SplineFontDB: 3.0
FontName: Inconsolata-lig
FullName: Inconsolata-lig
FamilyName: Inconsolata-lig
Weight: Medium
Copyright: Created by Raph Levien using his own tools and FontForge. Copyright 2006 Raph Levien. Released under the SIL Open Font License, http://scripts.sil.org/OFL. Modified by maffi leonardo, Feb 13 2009. Modified by Nick Winans, August 1 2018
Version: 001.010
ItalicAngle: 0
UnderlinePosition: -250
UnderlineWidth: 50
Ascent: 820
Descent: 180
InvalidEm: 0
sfntRevision: 0x0001028f
LayerCount: 2
Layer: 0 1 "Back" 1
Layer: 1 1 "Fore" 0
XUID: [1021 305 -812336031 13867]
StyleMap: 0x0040
FSType: 8
OS2Version: 3
OS2_WeightWidthSlopeOnly: 0
OS2_UseTypoMetrics: 0
CreationTime: 1161020814
ModificationTime: 1533190903
PfmFamily: 17
TTFWeight: 500
TTFWidth: 5
LineGap: 200
VLineGap: 0
Panose: 2 11 6 9 3 0 3 0 0 0
OS2TypoAscent: 820
OS2TypoAOffset: 0
OS2TypoDescent: -180
OS2TypoDOffset: 0
OS2TypoLinegap: 0
OS2WinAscent: 967
OS2WinAOffset: 0
OS2WinDescent: 206
OS2WinDOffset: 0
HheadAscent: 967
HheadAOffset: 0
HheadDescent: -206
HheadDOffset: 0
OS2SubXSize: 650
OS2SubYSize: 700
OS2SubXOff: 0
OS2SubYOff: 140
OS2SupXSize: 650
OS2SupYSize: 700
OS2SupXOff: 0
OS2SupYOff: 480
OS2StrikeYSize: 49
OS2StrikeYPos: 258
OS2CapHeight: 722
OS2XHeight: 529
OS2Vendor: 'PfEd'
OS2CodePages: 00000013.00000000
OS2UnicodeRanges: 8000002f.0000016b.00000000.00000000
Lookup: 4 0 1 "'liga' Standard Ligatures in Latin lookup 0" { "'liga' Standard Ligatures in Latin lookup 0 subtable"  } ['liga' ('DFLT' <'dflt' > 'latn' <'dflt' > ) ]
MarkAttachClasses: 1
DEI: 91125
ShortTable: maxp 16
  1
  0
  302
  89
  8
  0
  0
  2
  0
  1
  1
  0
  64
  0
  0
  0
EndShort
LangName: 1033 "" "" "" "FontForge 2.0 : Inconsolata-lig : 1-8-2018"
GaspTable: 1 65535 2 0
Encoding: UnicodeBmp
UnicodeInterp: none
NameList: AGL For New Fonts
DisplaySize: -48
AntiAlias: 1
FitToEm: 0
WinInfo: 0 39 14
BeginPrivate: 0
EndPrivate
BeginChars: 65554 304

StartChar: exclam
Encoding: 33 33 4
Width: 600
GlyphClass: 2
Flags: W
LayerCount: 2
Fore
SplineSet
356 55.5 m 128,-1,1
 356 27 356 27 336 7 c 128,-1,2
 316 -13 316 -13 287.5 -13 c 128,-1,3
 259 -13 259 -13 239 7 c 128,-1,4
 219 27 219 27 219 55.5 c 128,-1,5
 219 84 219 84 239 104 c 128,-1,6
 259 124 259 124 287.5 124 c 128,-1,7
 316 124 316 124 336 104 c 128,-1,0
 356 84 356 84 356 55.5 c 128,-1,1
289 774 m 0,8,9
 307 774 307 774 322.5 761.5 c 128,-1,10
 338 749 338 749 344 724 c 0,11,12
 349 707 349 707 349 677 c 0,13,14
 349 652 349 652 344 605 c 128,-1,15
 339 558 339 558 338 545 c 2,16,-1
 317 225 l 1,17,-1
 259 225 l 1,18,-1
 242 545 l 2,19,20
 240 584 240 584 235.5 626 c 128,-1,21
 231 668 231 668 231 687 c 0,22,23
 231 718 231 718 238 737 c 0,24,25
 254 774 254 774 289 774 c 0,8,9
EndSplineSet
EndChar

StartChar: quotedbl
Encoding: 34 34 5
Width: 600
GlyphClass: 2
Flags: W
LayerCount: 2
Fore
SplineSet
456 706 m 2,0,-1
 456 596 l 1,1,-1
 458 492 l 1,2,-1
 377 492 l 1,3,4
 375 520 375 520 375.5 542 c 128,-1,5
 376 564 376 564 376 592 c 0,6,7
 379 596 379 596 376.5 619 c 128,-1,8
 374 642 374 642 374 648 c 2,9,-1
 374 706 l 2,10,11
 374 737 374 737 388.5 754.5 c 128,-1,12
 403 772 403 772 420 772 c 0,13,14
 456 772 456 772 456 706 c 2,0,-1
254 706 m 2,15,-1
 254 596 l 1,16,-1
 256 492 l 1,17,-1
 175 492 l 1,18,19
 173 520 173 520 173.5 542 c 128,-1,20
 174 564 174 564 174 592 c 0,21,22
 177 596 177 596 174.5 619 c 128,-1,23
 172 642 172 642 172 648 c 2,24,-1
 172 706 l 2,25,26
 172 737 172 737 186.5 754.5 c 128,-1,27
 201 772 201 772 218 772 c 0,28,29
 254 772 254 772 254 706 c 2,15,-1
EndSplineSet
EndChar

StartChar: numbersign
Encoding: 35 35 6
Width: 600
GlyphClass: 2
Flags: W
LayerCount: 2
Fore
SplineSet
211 723 m 1,0,-1
 281 726 l 1,1,-1
 257 527 l 1,2,-1
 385 529 l 1,3,-1
 407 717 l 1,4,-1
 479 720 l 1,5,-1
 456 530 l 1,6,-1
 561 531 l 1,7,-1
 555 475 l 1,8,-1
 449 474 l 1,9,-1
 425 279 l 1,10,-1
 540 281 l 1,11,-1
 534 227 l 1,12,-1
 419 225 l 1,13,-1
 393 16 l 1,14,-1
 323 12 l 1,15,-1
 348 224 l 1,16,-1
 220 222 l 1,17,-1
 195 16 l 1,18,-1
 127 13 l 1,19,-1
 152 221 l 1,20,-1
 39 219 l 1,21,-1
 44 272 l 1,22,-1
 158 274 l 1,23,-1
 181 471 l 1,24,-1
 55 470 l 1,25,-1
 59 525 l 1,26,-1
 188 527 l 1,27,-1
 211 723 l 1,0,-1
250 472 m 1,28,-1
 226 275 l 1,29,-1
 355 278 l 1,30,-1
 378 473 l 1,31,-1
 250 472 l 1,28,-1
EndSplineSet
EndChar

StartChar: dollar
Encoding: 36 36 7
Width: 600
GlyphClass: 2
Flags: W
LayerCount: 2
Fore
SplineSet
282 754 m 1,0,-1
 357 754 l 2,1,2
 358 752 358 752 358 750 c 0,3,4
 358 746 358 746 354 741 c 128,-1,5
 350 736 350 736 350 730 c 2,6,-1
 350 686 l 1,7,8
 457 675 457 675 522 597 c 1,9,-1
 472 534 l 1,10,11
 467 535 467 535 466 542 c 0,12,13
 465 551 465 551 465 552 c 0,14,15
 464 554 464 554 460 559 c 0,16,17
 421 607 421 607 350 617 c 1,18,-1
 350 394 l 1,19,20
 402 377 402 377 427 366 c 0,21,22
 543 316 543 316 543 210 c 0,23,24
 543 142 543 142 493 86.5 c 128,-1,25
 443 31 443 31 350 19 c 1,26,-1
 350 -54 l 1,27,-1
 282 -54 l 1,28,-1
 282 17 l 1,29,30
 157 24 157 24 79 109 c 1,31,-1
 129 178 l 1,32,33
 135 175 135 175 134 167 c 0,34,35
 134 159 134 159 138 154 c 0,36,37
 195 93 195 93 282 83 c 1,38,-1
 282 338 l 1,39,40
 245 350 245 350 218 363 c 0,41,42
 173 385 173 385 145.5 414.5 c 128,-1,43
 118 444 118 444 110 468 c 128,-1,44
 102 492 102 492 102 517 c 0,45,46
 102 580 102 580 152 627 c 128,-1,47
 202 674 202 674 282 685 c 1,48,-1
 282 754 l 1,0,-1
350 317 m 1,49,-1
 350 86 l 1,50,51
 404 96 404 96 435.5 130 c 128,-1,52
 467 164 467 164 467 205 c 0,53,54
 467 262 467 262 410 294 c 0,55,56
 391 304 391 304 350 317 c 1,49,-1
282 418 m 1,57,-1
 282 619 l 1,58,59
 231 613 231 613 204.5 586.5 c 128,-1,60
 178 560 178 560 178 527 c 0,61,62
 178 473 178 473 241 437 c 0,63,64
 258 428 258 428 282 418 c 1,57,-1
EndSplineSet
EndChar

StartChar: percent
Encoding: 37 37 8
Width: 600
GlyphClass: 2
Flags: W
LayerCount: 2
Fore
SplineSet
463 722 m 1,0,-1
 541 722 l 1,1,-1
 137 0 l 1,2,-1
 63 0 l 1,3,-1
 463 722 l 1,0,-1
172 735 m 0,4,5
 226 735 226 735 264 691.5 c 128,-1,6
 302 648 302 648 302 582 c 0,7,8
 302 518 302 518 264 475 c 128,-1,9
 226 432 226 432 173 432 c 0,10,11
 119 432 119 432 81 475.5 c 128,-1,12
 43 519 43 519 43 583 c 0,13,14
 43 649 43 649 81 692 c 128,-1,15
 119 735 119 735 172 735 c 0,4,5
170 674 m 256,16,17
 148 674 148 674 130.5 654 c 128,-1,18
 113 634 113 634 113 587 c 0,19,20
 113 535 113 535 131.5 514.5 c 128,-1,21
 150 494 150 494 172 494 c 128,-1,22
 194 494 194 494 211.5 514 c 128,-1,23
 229 534 229 534 229 579 c 0,24,25
 229 633 229 633 210.5 653.5 c 128,-1,26
 192 674 192 674 170 674 c 256,16,17
569 139 m 0,27,28
 569 74 569 74 531 31 c 128,-1,29
 493 -12 493 -12 439.5 -12 c 128,-1,30
 386 -12 386 -12 348 31 c 128,-1,31
 310 74 310 74 310 138 c 0,32,33
 310 203 310 203 348 246 c 128,-1,34
 386 289 386 289 439.5 289 c 128,-1,35
 493 289 493 289 531 246 c 128,-1,36
 569 203 569 203 569 139 c 0,27,28
439 229 m 128,-1,38
 416 229 416 229 397.5 207.5 c 128,-1,39
 379 186 379 186 379 138 c 0,40,41
 379 91 379 91 397.5 69 c 128,-1,42
 416 47 416 47 440 47 c 0,43,44
 463 47 463 47 481.5 68 c 128,-1,45
 500 89 500 89 500 136 c 0,46,47
 500 186 500 186 481 207.5 c 128,-1,37
 462 229 462 229 439 229 c 128,-1,38
EndSplineSet
EndChar

StartChar: ampersand
Encoding: 38 38 9
Width: 600
GlyphClass: 2
Flags: W
LayerCount: 2
Fore
SplineSet
275 729 m 256,0,1
 341 729 341 729 385.5 685 c 128,-1,2
 430 641 430 641 430 575 c 0,3,4
 430 518 430 518 396 465.5 c 128,-1,5
 362 413 362 413 305 382 c 1,6,-1
 435 201 l 1,7,8
 471 242 471 242 487 294 c 0,9,10
 489 299 489 299 489 303 c 0,11,12
 489 305 489 305 488 310 c 128,-1,13
 487 315 487 315 487 317 c 0,14,15
 487 324 487 324 492 329 c 1,16,-1
 567 277 l 1,17,18
 528 206 528 206 479 142 c 1,19,-1
 560 37 l 1,20,-1
 492 -14 l 1,21,-1
 428 88 l 1,22,23
 392 43 392 43 340.5 15.5 c 128,-1,24
 289 -12 289 -12 233 -12 c 0,25,26
 155 -12 155 -12 103.5 40 c 128,-1,27
 52 92 52 92 52 169 c 0,28,29
 52 237 52 237 91.5 299 c 128,-1,30
 131 361 131 361 198 397 c 1,31,32
 116 496 116 496 116 577 c 0,33,34
 116 642 116 642 162.5 685.5 c 128,-1,35
 209 729 209 729 275 729 c 256,0,1
196 576 m 0,36,37
 196 520 196 520 266 432 c 1,38,39
 306 454 306 454 330 491.5 c 128,-1,40
 354 529 354 529 354 569 c 256,41,42
 354 609 354 609 330.5 634.5 c 128,-1,43
 307 660 307 660 274 660 c 0,44,45
 242 660 242 660 219 636.5 c 128,-1,46
 196 613 196 613 196 576 c 0,36,37
238 343 m 1,47,48
 192 313 192 313 165.5 268 c 128,-1,49
 139 223 139 223 139 177 c 0,50,51
 139 128 139 128 169.5 95.5 c 128,-1,52
 200 63 200 63 245 63 c 0,53,54
 272 63 272 63 299.5 75.5 c 128,-1,55
 327 88 327 88 345 103.5 c 128,-1,56
 363 119 363 119 374.5 130.5 c 128,-1,57
 386 142 386 142 386 143 c 2,58,-1
 238 343 l 1,47,48
EndSplineSet
EndChar

StartChar: quotesingle
Encoding: 39 39 10
Width: 600
GlyphClass: 2
Flags: W
LayerCount: 2
Fore
SplineSet
391 702 m 2,0,-1
 391 582 l 1,1,-1
 393 469 l 1,2,-1
 279 469 l 1,3,4
 277 499 277 499 277.5 523.5 c 128,-1,5
 278 548 278 548 277 578 c 0,6,7
 280 591 280 591 279.5 597.5 c 128,-1,8
 279 604 279 604 277 616.5 c 128,-1,9
 275 629 275 629 275 639 c 2,10,-1
 275 702 l 2,11,12
 275 736 275 736 295.5 755 c 128,-1,13
 316 774 316 774 339 774 c 0,14,15
 391 774 391 774 391 702 c 2,0,-1
EndSplineSet
EndChar

StartChar: parenleft
Encoding: 40 40 11
Width: 600
GlyphClass: 2
Flags: W
LayerCount: 2
Fore
SplineSet
464 772 m 1,0,-1
 499 701 l 1,1,2
 495 699 495 699 490 699 c 0,3,4
 487 699 487 699 483 699.5 c 128,-1,5
 479 700 479 700 477 700 c 0,6,7
 473 700 473 700 467 696 c 0,8,9
 366 637 366 637 308.5 532.5 c 128,-1,10
 251 428 251 428 251 303 c 0,11,12
 251 167 251 167 318 48 c 128,-1,13
 385 -71 385 -71 503 -139 c 1,14,-1
 465 -200 l 1,15,16
 328 -128 328 -128 249.5 6.5 c 128,-1,17
 171 141 171 141 171 299.5 c 128,-1,18
 171 458 171 458 250 585.5 c 128,-1,19
 329 713 329 713 464 772 c 1,0,-1
EndSplineSet
EndChar

StartChar: parenright
Encoding: 41 41 12
Width: 600
GlyphClass: 2
Flags: W
LayerCount: 2
Fore
SplineSet
100 699 m 1,0,-1
 122 771 l 1,1,2
 263 706 263 706 347.5 575.5 c 128,-1,3
 432 445 432 445 432 290 c 0,4,5
 432 134 432 134 346 0.5 c 128,-1,6
 260 -133 260 -133 116 -202 c 1,7,-1
 94 -132 l 1,8,9
 212 -70 212 -70 281 43 c 128,-1,10
 350 156 350 156 350 287 c 0,11,12
 350 416 350 416 282.5 527 c 128,-1,13
 215 638 215 638 100 699 c 1,0,-1
EndSplineSet
EndChar

StartChar: asterisk
Encoding: 42 42 13
Width: 600
GlyphClass: 2
Flags: W
LayerCount: 2
Fore
SplineSet
257 601 m 1,0,-1
 351 601 l 1,1,2
 350 595 350 595 347.5 586.5 c 128,-1,3
 345 578 345 578 344 570 c 2,4,-1
 326 396 l 1,5,-1
 510 480 l 1,6,-1
 541 409 l 1,7,-1
 342 349 l 1,8,-1
 488 174 l 1,9,-1
 425 124 l 1,10,-1
 300 316 l 1,11,-1
 170 123 l 1,12,-1
 107 174 l 1,13,-1
 258 348 l 1,14,-1
 58 409 l 1,15,-1
 88 484 l 1,16,-1
 275 396 l 1,17,-1
 257 601 l 1,0,-1
EndSplineSet
EndChar

StartChar: plus
Encoding: 43 43 14
Width: 600
GlyphClass: 2
Flags: W
LayerCount: 2
Fore
SplineSet
267 606 m 1,0,-1
 340 606 l 1,1,-1
 340 408 l 1,2,-1
 538 408 l 1,3,-1
 538 337 l 1,4,-1
 340 337 l 1,5,-1
 340 120 l 1,6,-1
 267 120 l 1,7,-1
 267 337 l 1,8,-1
 62 337 l 1,9,-1
 62 408 l 1,10,-1
 267 408 l 1,11,-1
 267 606 l 1,0,-1
EndSplineSet
EndChar

StartChar: comma
Encoding: 44 44 15
Width: 600
GlyphClass: 2
Flags: W
LayerCount: 2
Fore
SplineSet
364 23 m 0,0,1
 364 -70 364 -70 241 -195 c 1,2,-1
 201 -160 l 1,3,4
 234 -130 234 -130 259 -88 c 0,5,6
 276 -60 276 -60 276 -40 c 0,7,8
 276 -17 276 -17 240 0 c 0,9,10
 220 9 220 9 207 28 c 128,-1,11
 194 47 194 47 194 70 c 0,12,13
 194 98 194 98 221.5 123.5 c 128,-1,14
 249 149 249 149 282 146 c 0,15,16
 313 143 313 143 338.5 105 c 128,-1,17
 364 67 364 67 364 23 c 0,0,1
EndSplineSet
EndChar

StartChar: hyphen
Encoding: 45 45 16
Width: 600
GlyphClass: 2
Flags: W
LayerCount: 2
Fore
SplineSet
91 381 m 1,0,-1
 508 381 l 1,1,-1
 508 304 l 1,2,-1
 91 304 l 1,3,-1
 91 381 l 1,0,-1
EndSplineSet
EndChar

StartChar: period
Encoding: 46 46 17
Width: 600
GlyphClass: 2
Flags: W
LayerCount: 2
Fore
SplineSet
380 68 m 128,-1,1
 380 34 380 34 356.5 10 c 128,-1,2
 333 -14 333 -14 300 -14 c 128,-1,3
 267 -14 267 -14 243.5 10 c 128,-1,4
 220 34 220 34 220 68 c 128,-1,5
 220 102 220 102 243.5 126 c 128,-1,6
 267 150 267 150 300 150 c 128,-1,7
 333 150 333 150 356.5 126 c 128,-1,0
 380 102 380 102 380 68 c 128,-1,1
EndSplineSet
EndChar

StartChar: slash
Encoding: 47 47 18
Width: 600
GlyphClass: 2
Flags: W
LayerCount: 2
Fore
SplineSet
84 -15 m 1,0,-1
 447 770 l 1,1,-1
 516 735 l 1,2,-1
 152 -49 l 1,3,-1
 84 -15 l 1,0,-1
EndSplineSet
EndChar

StartChar: zero
Encoding: 48 48 19
Width: 600
GlyphClass: 2
Flags: W
LayerCount: 2
Fore
SplineSet
334 361 m 128,-1,1
 334 337 334 337 322 320 c 128,-1,2
 310 303 310 303 293 303 c 256,3,4
 276 303 276 303 264.5 320 c 128,-1,5
 253 337 253 337 253 361 c 128,-1,6
 253 385 253 385 264.5 402.5 c 128,-1,7
 276 420 276 420 293 420 c 256,8,9
 310 420 310 420 322 402.5 c 128,-1,0
 334 385 334 385 334 361 c 128,-1,1
112 358 m 0,10,11
 108 282 108 282 133.5 212.5 c 128,-1,12
 159 143 159 143 205 101 c 128,-1,13
 251 59 251 59 304 58 c 1,14,15
 471 72 471 72 474 358 c 0,16,17
 478 490 478 490 432.5 568 c 128,-1,18
 387 646 387 646 300 656 c 1,19,20
 254 656 254 656 216.5 627.5 c 128,-1,21
 179 599 179 599 157 554 c 128,-1,22
 135 509 135 509 123.5 458 c 128,-1,23
 112 407 112 407 112 358 c 0,10,11
302 727 m 0,24,25
 348 727 348 727 393 702 c 128,-1,26
 438 677 438 677 474 631 c 128,-1,27
 510 585 510 585 532 511.5 c 128,-1,28
 554 438 554 438 554 349 c 128,-1,29
 554 260 554 260 531.5 188.5 c 128,-1,30
 509 117 509 117 472 74.5 c 128,-1,31
 435 32 435 32 391.5 9.5 c 128,-1,32
 348 -13 348 -13 304 -13 c 0,33,34
 256 -13 256 -13 210 12.5 c 128,-1,35
 164 38 164 38 127.5 83.5 c 128,-1,36
 91 129 91 129 68.5 200 c 128,-1,37
 46 271 46 271 46 355 c 256,38,39
 46 439 46 439 68 510.5 c 128,-1,40
 90 582 90 582 126.5 628.5 c 128,-1,41
 163 675 163 675 208.5 701 c 128,-1,42
 254 727 254 727 302 727 c 0,24,25
EndSplineSet
EndChar

StartChar: one
Encoding: 49 49 20
Width: 600
GlyphClass: 2
Flags: W
LayerCount: 2
Fore
SplineSet
393 724 m 1,0,-1
 393 0 l 1,1,-1
 304 0 l 1,2,-1
 304 623 l 1,3,-1
 145 580 l 1,4,-1
 124 625 l 1,5,-1
 332 724 l 1,6,-1
 393 724 l 1,0,-1
EndSplineSet
EndChar

StartChar: two
Encoding: 50 50 21
Width: 600
GlyphClass: 2
Flags: W
LayerCount: 2
Fore
SplineSet
72 610 m 1,0,1
 107 665 107 665 167 696 c 128,-1,2
 227 727 227 727 295 727 c 0,3,4
 392 727 392 727 458.5 668 c 128,-1,5
 525 609 525 609 525 524 c 0,6,7
 525 476 525 476 499.5 428.5 c 128,-1,8
 474 381 474 381 449 355.5 c 128,-1,9
 424 330 424 330 385 297 c 0,10,11
 352 268 352 268 318 240 c 128,-1,12
 284 212 284 212 241.5 165.5 c 128,-1,13
 199 119 199 119 169 71 c 1,14,-1
 502 71 l 2,15,16
 510 71 510 71 516 76 c 0,17,18
 526 83 526 83 533 81 c 1,19,-1
 533 0 l 1,20,-1
 67 0 l 1,21,-1
 67 51 l 1,22,23
 148 197 148 197 298 320 c 0,24,25
 333 349 333 349 346 360.5 c 128,-1,26
 359 372 359 372 386.5 401.5 c 128,-1,27
 414 431 414 431 425.5 459 c 128,-1,28
 437 487 437 487 437 518 c 0,29,30
 437 576 437 576 392.5 615.5 c 128,-1,31
 348 655 348 655 284 655 c 0,32,33
 238 655 238 655 202 635 c 128,-1,34
 166 615 166 615 148 590 c 0,35,36
 145 586 145 586 143 577 c 128,-1,37
 141 568 141 568 137 563 c 1,38,-1
 72 610 l 1,0,1
EndSplineSet
EndChar

StartChar: three
Encoding: 51 51 22
Width: 600
GlyphClass: 2
Flags: W
LayerCount: 2
Fore
SplineSet
509 541 m 0,0,1
 509 489 509 489 476 446 c 128,-1,2
 443 403 443 403 390 385 c 1,3,4
 452 365 452 365 489.5 314 c 128,-1,5
 527 263 527 263 527 199 c 0,6,7
 527 111 527 111 459.5 49.5 c 128,-1,8
 392 -12 392 -12 282 -12 c 0,9,10
 155 -12 155 -12 73 70 c 1,11,-1
 140 143 l 1,12,13
 146 137 146 137 149 126 c 128,-1,14
 152 115 152 115 157 110 c 0,15,16
 206 61 206 61 281 61 c 0,17,18
 350 61 350 61 395.5 104.5 c 128,-1,19
 441 148 441 148 441 208 c 0,20,21
 441 272 441 272 389 309 c 128,-1,22
 337 346 337 346 255 346 c 0,23,24
 235 346 235 346 214 343 c 1,25,-1
 214 408 l 1,26,27
 290 408 290 408 340 426 c 0,28,29
 380 442 380 442 402 473.5 c 128,-1,30
 424 505 424 505 424 540 c 0,31,32
 424 587 424 587 385 619.5 c 128,-1,33
 346 652 346 652 286 652 c 0,34,35
 206 652 206 652 149 597 c 1,36,-1
 100 647 l 1,37,38
 177 724 177 724 291 724 c 0,39,40
 384 724 384 724 446.5 670 c 128,-1,41
 509 616 509 616 509 541 c 0,0,1
EndSplineSet
EndChar

StartChar: four
Encoding: 52 52 23
Width: 600
GlyphClass: 2
Flags: W
LayerCount: 2
Fore
SplineSet
380 723 m 1,0,-1
 455 723 l 1,1,-1
 455 271 l 1,2,-1
 557 271 l 1,3,-1
 557 199 l 1,4,-1
 455 199 l 1,5,-1
 455 0 l 1,6,-1
 363 0 l 1,7,-1
 363 200 l 1,8,-1
 43 200 l 1,9,-1
 43 260 l 1,10,-1
 380 723 l 1,0,-1
364 594 m 1,11,-1
 131 271 l 1,12,-1
 364 271 l 1,13,-1
 364 594 l 1,11,-1
EndSplineSet
EndChar

StartChar: five
Encoding: 53 53 24
Width: 600
GlyphClass: 2
Flags: W
LayerCount: 2
Fore
SplineSet
111 722 m 1,0,-1
 513 722 l 1,1,-1
 513 649 l 1,2,-1
 186 649 l 1,3,-1
 173 441 l 1,4,5
 235 469 235 469 303 469 c 0,6,7
 407 469 407 469 475 405 c 128,-1,8
 543 341 543 341 543 228 c 128,-1,9
 543 115 543 115 471.5 51 c 128,-1,10
 400 -13 400 -13 292 -13 c 0,11,12
 221 -13 221 -13 158.5 16 c 128,-1,13
 96 45 96 45 57 98 c 1,14,-1
 136 152 l 1,15,16
 142 148 142 148 143 138 c 128,-1,17
 144 128 144 128 146 125 c 0,18,19
 153 110 153 110 194.5 84 c 128,-1,20
 236 58 236 58 291 58 c 0,21,22
 358 58 358 58 405 104 c 128,-1,23
 452 150 452 150 452 230 c 0,24,25
 452 312 452 312 404.5 357 c 128,-1,26
 357 402 357 402 289 402 c 0,27,28
 200 402 200 402 140 334 c 1,29,-1
 83 355 l 1,30,-1
 111 722 l 1,0,-1
EndSplineSet
EndChar

StartChar: six
Encoding: 54 54 25
Width: 600
GlyphClass: 2
Flags: W
LayerCount: 2
Fore
SplineSet
344 730 m 0,0,1
 444 730 444 730 518 664 c 1,2,-1
 456 602 l 1,3,4
 449 606 449 606 444.5 615.5 c 128,-1,5
 440 625 440 625 436 628 c 0,6,7
 432 632 432 632 422 638 c 128,-1,8
 412 644 412 644 389.5 651 c 128,-1,9
 367 658 367 658 344 658 c 0,10,11
 323 658 323 658 302 653 c 128,-1,12
 281 648 281 648 253 630.5 c 128,-1,13
 225 613 225 613 204 584.5 c 128,-1,14
 183 556 183 556 167.5 502.5 c 128,-1,15
 152 449 152 449 150 379 c 1,16,17
 178 420 178 420 222.5 443 c 128,-1,18
 267 466 267 466 320 466 c 0,19,20
 408 466 408 466 473 402 c 128,-1,21
 538 338 538 338 538 230 c 256,22,23
 538 122 538 122 471.5 55 c 128,-1,24
 405 -12 405 -12 310 -12 c 0,25,26
 256 -12 256 -12 206.5 12.5 c 128,-1,27
 157 37 157 37 122 84 c 0,28,29
 62 166 62 166 62 329 c 0,30,31
 62 461 62 461 96 551 c 0,32,33
 131 640 131 640 198.5 685 c 128,-1,34
 266 730 266 730 344 730 c 0,0,1
310 395 m 0,35,36
 266 395 266 395 224.5 368.5 c 128,-1,37
 183 342 183 342 156 298 c 1,38,39
 147 198 147 198 194 129 c 128,-1,40
 241 60 241 60 314 60 c 0,41,42
 370 60 370 60 410 103 c 128,-1,43
 450 146 450 146 450 225 c 0,44,45
 450 270 450 270 437.5 304 c 128,-1,46
 425 338 425 338 404 357 c 128,-1,47
 383 376 383 376 359.5 385.5 c 128,-1,48
 336 395 336 395 310 395 c 0,35,36
EndSplineSet
EndChar

StartChar: seven
Encoding: 55 55 26
Width: 600
GlyphClass: 2
Flags: W
LayerCount: 2
Fore
SplineSet
76 722 m 1,0,-1
 524 722 l 1,1,-1
 524 677 l 1,2,3
 435 487 435 487 374 338 c 0,4,5
 306 172 306 172 248 0 c 1,6,-1
 148 0 l 1,7,8
 216 190 216 190 300 386 c 2,9,10
 300 386 300 386 414 645 c 1,11,-1
 76 645 l 1,12,-1
 76 722 l 1,0,-1
EndSplineSet
EndChar

StartChar: eight
Encoding: 56 56 27
Width: 600
GlyphClass: 2
Flags: W
LayerCount: 2
Fore
SplineSet
310 731 m 0,0,1
 397 731 397 731 456.5 681.5 c 128,-1,2
 516 632 516 632 516 560 c 0,3,4
 516 508 516 508 481.5 461 c 128,-1,5
 447 414 447 414 390 386 c 1,6,7
 458 357 458 357 500 303 c 128,-1,8
 542 249 542 249 542 186 c 0,9,10
 542 103 542 103 472 45.5 c 128,-1,11
 402 -12 402 -12 298 -12 c 0,12,13
 196 -12 196 -12 127 44.5 c 128,-1,14
 58 101 58 101 58 182 c 0,15,16
 58 244 58 244 101 299 c 128,-1,17
 144 354 144 354 216 384 c 1,18,19
 161 409 161 409 127.5 455 c 128,-1,20
 94 501 94 501 94 553 c 0,21,22
 94 626 94 626 156.5 678.5 c 128,-1,23
 219 731 219 731 310 731 c 0,0,1
282 351 m 1,24,25
 224 328 224 328 186 285 c 128,-1,26
 148 242 148 242 148 192 c 0,27,28
 148 138 148 138 193 99.5 c 128,-1,29
 238 61 238 61 302 61 c 256,30,31
 366 61 366 61 409 98 c 128,-1,32
 452 135 452 135 452 187 c 0,33,34
 452 240 452 240 406 284.5 c 128,-1,35
 360 329 360 329 282 351 c 1,24,25
302 663 m 0,36,37
 251 663 251 663 215.5 633 c 128,-1,38
 180 603 180 603 180 560 c 0,39,40
 180 527 180 527 202 497.5 c 128,-1,41
 224 468 224 468 250.5 451.5 c 128,-1,42
 277 435 277 435 299 425 c 2,43,-1
 320 415 l 1,44,45
 368 438 368 438 399 476 c 128,-1,46
 430 514 430 514 430 555 c 0,47,48
 430 600 430 600 393 631.5 c 128,-1,49
 356 663 356 663 302 663 c 0,36,37
EndSplineSet
EndChar

StartChar: nine
Encoding: 57 57 28
Width: 600
GlyphClass: 2
Flags: W
LayerCount: 2
Fore
SplineSet
255 -12 m 0,0,1
 153 -12 153 -12 79 54 c 1,2,-1
 141 116 l 1,3,4
 148 112 148 112 152.5 102 c 128,-1,5
 157 92 157 92 161 88 c 2,6,-1
 168 84 l 2,7,8
 176 80 176 80 187.5 75 c 128,-1,9
 199 70 199 70 218 66 c 128,-1,10
 237 62 237 62 257 62 c 0,11,12
 305 62 305 62 347.5 86 c 128,-1,13
 390 110 390 110 414 161 c 0,14,15
 443 226 443 226 446 340 c 1,16,17
 387 262 387 262 283 262 c 0,18,19
 193 262 193 262 129 325.5 c 128,-1,20
 65 389 65 389 65 490 c 0,21,22
 65 593 65 593 131 661 c 128,-1,23
 197 729 197 729 292 729 c 0,24,25
 360 729 360 729 419 690 c 128,-1,26
 478 651 478 651 508 572 c 0,27,28
 535 498 535 498 535 370 c 0,29,30
 535 236 535 236 501 156 c 0,31,32
 467 74 467 74 399.5 31 c 128,-1,33
 332 -12 332 -12 255 -12 c 0,0,1
291 333 m 0,34,35
 334 333 334 333 375 357 c 128,-1,36
 416 381 416 381 442 421 c 1,37,38
 452 526 452 526 406.5 591.5 c 128,-1,39
 361 657 361 657 290 657 c 0,40,41
 233 657 233 657 192 612.5 c 128,-1,42
 151 568 151 568 151 493 c 0,43,44
 151 417 151 417 192.5 375 c 128,-1,45
 234 333 234 333 291 333 c 0,34,35
EndSplineSet
EndChar

StartChar: colon
Encoding: 58 58 29
Width: 600
GlyphClass: 2
Flags: W
LayerCount: 2
Fore
SplineSet
355 423.5 m 128,-1,1
 355 396 355 396 335 376.5 c 128,-1,2
 315 357 315 357 286.5 357 c 128,-1,3
 258 357 258 357 238 376.5 c 128,-1,4
 218 396 218 396 218 423.5 c 128,-1,5
 218 451 218 451 238 470.5 c 128,-1,6
 258 490 258 490 286.5 490 c 128,-1,7
 315 490 315 490 335 470.5 c 128,-1,0
 355 451 355 451 355 423.5 c 128,-1,1
355 53.5 m 128,-1,9
 355 26 355 26 335 6.5 c 128,-1,10
 315 -13 315 -13 286.5 -13 c 128,-1,11
 258 -13 258 -13 238 6.5 c 128,-1,12
 218 26 218 26 218 53.5 c 128,-1,13
 218 81 218 81 238 100.5 c 128,-1,14
 258 120 258 120 286.5 120 c 128,-1,15
 315 120 315 120 335 100.5 c 128,-1,8
 355 81 355 81 355 53.5 c 128,-1,9
EndSplineSet
EndChar

StartChar: semicolon
Encoding: 59 59 30
Width: 600
GlyphClass: 2
Flags: W
LayerCount: 2
Fore
SplineSet
364 23 m 0,0,1
 364 -70 364 -70 241 -195 c 1,2,-1
 201 -160 l 1,3,4
 234 -130 234 -130 259 -88 c 0,5,6
 276 -60 276 -60 276 -40 c 0,7,8
 276 -16 276 -16 249 2 c 0,9,10
 217 23 217 23 217 53 c 0,11,12
 217 80 217 80 236.5 99.5 c 128,-1,13
 256 119 256 119 284 119 c 0,14,15
 316 119 316 119 340 92.5 c 128,-1,16
 364 66 364 66 364 23 c 0,0,1
355 423.5 m 128,-1,18
 355 396 355 396 335 376.5 c 128,-1,19
 315 357 315 357 286.5 357 c 128,-1,20
 258 357 258 357 238 376.5 c 128,-1,21
 218 396 218 396 218 423.5 c 128,-1,22
 218 451 218 451 238 470.5 c 128,-1,23
 258 490 258 490 286.5 490 c 128,-1,24
 315 490 315 490 335 470.5 c 128,-1,17
 355 451 355 451 355 423.5 c 128,-1,18
EndSplineSet
EndChar

StartChar: less
Encoding: 60 60 31
Width: 600
GlyphClass: 2
Flags: W
LayerCount: 2
Fore
SplineSet
541 575 m 1,0,-1
 541 657 l 1,1,-1
 50 399 l 1,2,-1
 50 343 l 1,3,-1
 544 55 l 1,4,-1
 544 142 l 1,5,-1
 139 370 l 1,6,-1
 541 575 l 1,0,-1
EndSplineSet
EndChar

StartChar: equal
Encoding: 61 61 32
Width: 600
GlyphClass: 2
Flags: W
LayerCount: 2
Fore
SplineSet
62 520 m 1,0,-1
 538 520 l 1,1,-1
 538 449 l 1,2,-1
 62 449 l 1,3,-1
 62 520 l 1,0,-1
62 280 m 5,4,-1
 538 280 l 5,5,-1
 538 209 l 5,6,-1
 62 209 l 5,7,-1
 62 280 l 5,4,-1
EndSplineSet
EndChar

StartChar: greater
Encoding: 62 62 33
Width: 600
GlyphClass: 2
Flags: W
LayerCount: 2
Fore
SplineSet
59 575 m 5,0,-1
 59 657 l 5,1,-1
 550 399 l 5,2,-1
 550 343 l 5,3,-1
 56 55 l 5,4,-1
 56 142 l 5,5,-1
 461 370 l 5,6,-1
 59 575 l 5,0,-1
EndSplineSet
EndChar

StartChar: question
Encoding: 63 63 34
Width: 600
GlyphClass: 2
Flags: W
LayerCount: 2
Fore
SplineSet
381 51.5 m 128,-1,1
 381 24 381 24 361 4.5 c 128,-1,2
 341 -15 341 -15 312.5 -15 c 128,-1,3
 284 -15 284 -15 264 4.5 c 128,-1,4
 244 24 244 24 244 51.5 c 128,-1,5
 244 79 244 79 264 98.5 c 128,-1,6
 284 118 284 118 312.5 118 c 128,-1,7
 341 118 341 118 361 98.5 c 128,-1,0
 381 79 381 79 381 51.5 c 128,-1,1
84 650 m 1,8,9
 121 707 121 707 181 739 c 128,-1,10
 241 771 241 771 307 771 c 0,11,12
 402 771 402 771 457.5 711.5 c 128,-1,13
 513 652 513 652 513 567 c 0,14,15
 513 541 513 541 507 517.5 c 128,-1,16
 501 494 501 494 492.5 478 c 128,-1,17
 484 462 484 462 469.5 445 c 128,-1,18
 455 428 455 428 445.5 419.5 c 128,-1,19
 436 411 436 411 419.5 397.5 c 128,-1,20
 403 384 403 384 398 380 c 0,21,22
 366 351 366 351 357 325 c 128,-1,23
 348 299 348 299 348 262 c 2,24,-1
 348 214 l 1,25,-1
 272 214 l 1,26,-1
 272 262 l 2,27,28
 272 309 272 309 281.5 341 c 128,-1,29
 291 373 291 373 326 411 c 0,30,31
 331 416 331 416 349 434.5 c 128,-1,32
 367 453 367 453 376 463.5 c 128,-1,33
 385 474 385 474 397.5 493 c 128,-1,34
 410 512 410 512 416 531.5 c 128,-1,35
 422 551 422 551 422 573 c 0,36,37
 422 624 422 624 386.5 659.5 c 128,-1,38
 351 695 351 695 300 695 c 0,39,40
 256 695 256 695 213 668 c 128,-1,41
 170 641 170 641 143 595 c 1,42,-1
 84 650 l 1,8,9
EndSplineSet
EndChar

StartChar: at
Encoding: 64 64 35
Width: 600
GlyphClass: 2
Flags: W
LayerCount: 2
Fore
SplineSet
514 35 m 1,0,1
 440 -13 440 -13 352 -13 c 0,2,3
 307 -13 307 -13 264.5 0 c 128,-1,4
 222 13 222 13 182 42.5 c 128,-1,5
 142 72 142 72 112 114.5 c 128,-1,6
 82 157 82 157 64 221.5 c 128,-1,7
 46 286 46 286 46 364 c 0,8,9
 46 440 46 440 63 503 c 128,-1,10
 80 566 80 566 107.5 607.5 c 128,-1,11
 135 649 135 649 171.5 678 c 128,-1,12
 208 707 208 707 246.5 720 c 128,-1,13
 285 733 285 733 324 733 c 0,14,15
 389 733 389 733 442.5 699 c 128,-1,16
 496 665 496 665 523 605 c 0,17,18
 535 579 535 579 541 547.5 c 128,-1,19
 547 516 547 516 548 494.5 c 128,-1,20
 549 473 549 473 549 438 c 2,21,-1
 549 203 l 1,22,-1
 479 203 l 1,23,-1
 479 247 l 1,24,25
 434 193 434 193 363 193 c 0,26,27
 301 193 301 193 257 237 c 128,-1,28
 213 281 213 281 213 344 c 0,29,30
 213 392 213 392 241.5 434 c 128,-1,31
 270 476 270 476 323 497 c 0,32,33
 369 515 369 515 459 515 c 2,34,-1
 476 515 l 1,35,36
 476 580 476 580 431 625.5 c 128,-1,37
 386 671 386 671 321 671 c 0,38,39
 282 671 282 671 246 652.5 c 128,-1,40
 210 634 210 634 179.5 598 c 128,-1,41
 149 562 149 562 131 502 c 128,-1,42
 113 442 113 442 113 367 c 0,43,44
 113 286 113 286 135 223.5 c 128,-1,45
 157 161 157 161 194 125 c 128,-1,46
 231 89 231 89 272.5 71 c 128,-1,47
 314 53 314 53 358 53 c 0,48,49
 427 53 427 53 483 91 c 1,50,-1
 514 35 l 1,0,1
479 457 m 1,51,-1
 460 457 l 2,52,53
 432 457 432 457 415.5 456 c 128,-1,54
 399 455 399 455 374 448.5 c 128,-1,55
 349 442 349 442 331 430 c 0,56,57
 285 398 285 398 285 347 c 0,58,59
 285 310 285 310 311.5 283.5 c 128,-1,60
 338 257 338 257 377 257 c 0,61,62
 403 257 403 257 426 270.5 c 128,-1,63
 449 284 449 284 462 310 c 0,64,65
 470 326 470 326 474 350 c 128,-1,66
 478 374 478 374 478.5 387.5 c 128,-1,67
 479 401 479 401 479 435 c 2,68,-1
 479 457 l 1,51,-1
EndSplineSet
EndChar

StartChar: A
Encoding: 65 65 36
Width: 600
GlyphClass: 2
Flags: W
LayerCount: 2
Fore
SplineSet
27 -1 m 1,0,-1
 282 735 l 1,1,-1
 291 735 l 1,2,-1
 570 0 l 1,3,-1
 486 0 l 1,4,-1
 406 211 l 1,5,-1
 177 211 l 1,6,-1
 107 -1 l 1,7,-1
 27 -1 l 1,0,-1
388 274 m 1,8,-1
 286 549 l 1,9,-1
 193 274 l 1,10,-1
 388 274 l 1,8,-1
EndSplineSet
EndChar

StartChar: B
Encoding: 66 66 37
Width: 600
GlyphClass: 2
Flags: W
LayerCount: 2
Fore
SplineSet
66 722 m 1,0,-1
 271 722 l 2,1,2
 360 722 360 722 406 702 c 0,3,4
 456 680 456 680 483.5 637.5 c 128,-1,5
 511 595 511 595 511 546 c 0,6,7
 511 494 511 494 482 450.5 c 128,-1,8
 453 407 453 407 404 387 c 1,9,10
 465 367 465 367 502 315 c 128,-1,11
 539 263 539 263 539 200 c 0,12,13
 539 143 539 143 507.5 94.5 c 128,-1,14
 476 46 476 46 419 22 c 0,15,16
 367 0 367 0 270 0 c 2,17,-1
 66 0 l 1,18,-1
 66 722 l 1,0,-1
146 653 m 1,19,-1
 146 423 l 1,20,-1
 259 423 l 2,21,22
 325 423 325 423 359 438 c 0,23,24
 392 452 392 452 410.5 479 c 128,-1,25
 429 506 429 506 429 538 c 256,26,27
 429 570 429 570 410 598 c 128,-1,28
 391 626 391 626 356 640 c 0,29,30
 324 653 324 653 260 653 c 2,31,-1
 146 653 l 1,19,-1
146 355 m 1,32,-1
 146 71 l 1,33,-1
 284 71 l 2,34,35
 345 71 345 71 377 86 c 0,36,37
 414 102 414 102 434 135 c 128,-1,38
 454 168 454 168 454 208 c 256,39,40
 454 248 454 248 432.5 283.5 c 128,-1,41
 411 319 411 319 372 337 c 0,42,43
 335 355 335 355 264 355 c 2,44,-1
 146 355 l 1,32,-1
EndSplineSet
EndChar

StartChar: C
Encoding: 67 67 38
Width: 600
GlyphClass: 2
Flags: W
LayerCount: 2
Fore
SplineSet
332 728 m 0,0,1
 404 728 404 728 464 689 c 128,-1,2
 524 650 524 650 553 585 c 1,3,-1
 476 547 l 1,4,5
 471 551 471 551 471 558 c 0,6,7
 471 560 471 560 471 563 c 128,-1,8
 471 566 471 566 471 567 c 0,9,10
 471 572 471 572 467 579 c 0,11,12
 445 618 445 618 408 640.5 c 128,-1,13
 371 663 371 663 329 663 c 0,14,15
 248 663 248 663 192 582.5 c 128,-1,16
 136 502 136 502 136 364 c 0,17,18
 136 223 136 223 194 140.5 c 128,-1,19
 252 58 252 58 336 58 c 0,20,21
 379 58 379 58 418.5 81.5 c 128,-1,22
 458 105 458 105 483 146 c 1,23,-1
 543 107 l 1,24,25
 509 52 509 52 452.5 20 c 128,-1,26
 396 -12 396 -12 331 -12 c 0,27,28
 293 -12 293 -12 256.5 -1 c 128,-1,29
 220 10 220 10 183.5 37.5 c 128,-1,30
 147 65 147 65 119 106 c 128,-1,31
 91 147 91 147 74 211.5 c 128,-1,32
 57 276 57 276 57 357 c 0,33,34
 57 440 57 440 75 506 c 128,-1,35
 93 572 93 572 121 612.5 c 128,-1,36
 149 653 149 653 186.5 680 c 128,-1,37
 224 707 224 707 259.5 717.5 c 128,-1,38
 295 728 295 728 332 728 c 0,0,1
EndSplineSet
EndChar

StartChar: D
Encoding: 68 68 39
Width: 600
GlyphClass: 2
Flags: W
LayerCount: 2
Fore
SplineSet
72 722 m 1,0,-1
 241 722 l 2,1,2
 296 722 296 722 334.5 714.5 c 128,-1,3
 373 707 373 707 409 683 c 0,4,5
 476 640 476 640 509.5 555.5 c 128,-1,6
 543 471 543 471 543 362 c 0,7,8
 543 243 543 243 501.5 155.5 c 128,-1,9
 460 68 460 68 383 28 c 0,10,11
 348 10 348 10 313 4.5 c 128,-1,12
 278 -1 278 -1 227 -1 c 2,13,-1
 72 -1 l 1,14,-1
 72 722 l 1,0,-1
149 653 m 1,15,-1
 149 63 l 1,16,-1
 223 63 l 2,17,18
 266 63 266 63 296.5 69 c 128,-1,19
 327 75 327 75 358 96 c 0,20,21
 461 165 461 165 461 351 c 0,22,23
 461 539 461 539 372 613 c 0,24,25
 342 638 342 638 310.5 645.5 c 128,-1,26
 279 653 279 653 236 653 c 2,27,-1
 149 653 l 1,15,-1
EndSplineSet
EndChar

StartChar: E
Encoding: 69 69 40
Width: 600
GlyphClass: 2
Flags: W
LayerCount: 2
Fore
SplineSet
78 723 m 1,0,-1
 521 723 l 1,1,-1
 521 651 l 1,2,-1
 155 651 l 1,3,-1
 155 414 l 1,4,-1
 457 414 l 1,5,-1
 457 340 l 1,6,-1
 155 340 l 1,7,-1
 155 72 l 1,8,-1
 518 72 l 1,9,-1
 518 0 l 1,10,-1
 78 0 l 1,11,-1
 78 723 l 1,0,-1
EndSplineSet
EndChar

StartChar: F
Encoding: 70 70 41
Width: 600
GlyphClass: 2
Flags: W
LayerCount: 2
Fore
SplineSet
100 723 m 1,0,-1
 516 723 l 1,1,-1
 516 652 l 1,2,-1
 182 652 l 1,3,-1
 182 425 l 1,4,-1
 452 425 l 1,5,-1
 452 355 l 1,6,-1
 182 355 l 1,7,-1
 182 0 l 1,8,-1
 100 0 l 1,9,-1
 100 723 l 1,0,-1
EndSplineSet
EndChar

StartChar: G
Encoding: 71 71 42
Width: 600
GlyphClass: 2
Flags: W
LayerCount: 2
Fore
SplineSet
331 729 m 0,0,1
 398 729 398 729 454 696.5 c 128,-1,2
 510 664 510 664 541 608 c 1,3,-1
 484 550 l 1,4,5
 477 555 477 555 469 573 c 0,6,7
 451 610 451 610 414.5 634 c 128,-1,8
 378 658 378 658 331 658 c 0,9,10
 283 658 283 658 239 631.5 c 128,-1,11
 195 605 195 605 168 555 c 0,12,13
 132 486 132 486 132 369 c 0,14,15
 132 202 132 202 201 123 c 0,16,17
 256 60 256 60 338 60 c 0,18,19
 406 60 406 60 468 104 c 1,20,-1
 468 276 l 1,21,-1
 337 276 l 1,22,-1
 337 346 l 1,23,-1
 543 346 l 1,24,-1
 543 64 l 1,25,26
 441 -11 441 -11 331 -11 c 0,27,28
 291 -11 291 -11 253.5 0 c 128,-1,29
 216 11 216 11 178.5 38.5 c 128,-1,30
 141 66 141 66 113.5 106 c 128,-1,31
 86 146 86 146 69 209.5 c 128,-1,32
 52 273 52 273 52 352 c 0,33,34
 52 443 52 443 72 513 c 128,-1,35
 92 583 92 583 122 622.5 c 128,-1,36
 152 662 152 662 192 687 c 128,-1,37
 232 712 232 712 265 720.5 c 128,-1,38
 298 729 298 729 331 729 c 0,0,1
EndSplineSet
EndChar

StartChar: H
Encoding: 72 72 43
Width: 600
GlyphClass: 2
Flags: W
LayerCount: 2
Fore
SplineSet
73 722 m 1,0,-1
 163 722 l 2,1,2
 164 719 164 719 164 717 c 0,3,4
 164 713 164 713 160.5 707 c 128,-1,5
 157 701 157 701 157 694 c 2,6,-1
 157 413 l 1,7,-1
 440 413 l 1,8,-1
 440 722 l 1,9,-1
 528 722 l 2,10,11
 529 720 529 720 529 717 c 0,12,13
 529 713 529 713 525 707.5 c 128,-1,14
 521 702 521 702 521 696 c 2,15,-1
 521 -1 l 1,16,-1
 439 -1 l 1,17,-1
 439 344 l 1,18,-1
 157 344 l 1,19,-1
 157 0 l 1,20,-1
 73 0 l 1,21,-1
 73 722 l 1,0,-1
EndSplineSet
EndChar

StartChar: I
Encoding: 73 73 44
Width: 600
GlyphClass: 2
Flags: W
LayerCount: 2
Fore
SplineSet
112 722 m 1,0,-1
 470 722 l 1,1,-1
 470 654 l 1,2,-1
 327 654 l 1,3,-1
 327 66 l 1,4,-1
 477 66 l 1,5,-1
 477 -1 l 1,6,-1
 104 -1 l 1,7,-1
 104 67 l 1,8,-1
 246 67 l 1,9,-1
 246 654 l 1,10,-1
 112 654 l 1,11,-1
 112 722 l 1,0,-1
EndSplineSet
EndChar

StartChar: J
Encoding: 74 74 45
Width: 600
GlyphClass: 2
Flags: W
LayerCount: 2
Fore
SplineSet
209 722 m 1,0,-1
 539 722 l 1,1,-1
 539 654 l 1,2,-1
 428 654 l 1,3,-1
 428 242 l 2,4,5
 428 208 428 208 427 187.5 c 128,-1,6
 426 167 426 167 419.5 137 c 128,-1,7
 413 107 413 107 400 83 c 0,8,9
 375 37 375 37 331.5 12 c 128,-1,10
 288 -13 288 -13 235 -13 c 0,11,12
 187 -13 187 -13 143 8 c 128,-1,13
 99 29 99 29 67 67 c 1,14,-1
 121 133 l 1,15,16
 125 130 125 130 125.5 122.5 c 128,-1,17
 126 115 126 115 128 112 c 0,18,19
 132 107 132 107 143.5 96.5 c 128,-1,20
 155 86 155 86 182.5 72.5 c 128,-1,21
 210 59 210 59 237 59 c 0,22,23
 291 59 291 59 322 105 c 0,24,25
 335 123 335 123 341 150 c 128,-1,26
 347 177 347 177 347.5 192.5 c 128,-1,27
 348 208 348 208 348 241 c 2,28,-1
 348 654 l 1,29,-1
 209 654 l 1,30,-1
 209 722 l 1,0,-1
EndSplineSet
EndChar

StartChar: K
Encoding: 75 75 46
Width: 600
GlyphClass: 2
Flags: W
LayerCount: 2
Fore
SplineSet
59 723 m 1,0,-1
 156 723 l 1,1,2
 157 716 157 716 149 706 c 0,3,4
 145 701 145 701 145 693 c 2,5,-1
 145 389 l 1,6,-1
 447 728 l 1,7,8
 471 722 471 722 507 722 c 2,9,-1
 537 722 l 1,10,-1
 264 410 l 1,11,-1
 556 -1 l 1,12,13
 453 -1 453 -1 453 -5 c 2,14,-1
 202 361 l 1,15,-1
 145 299 l 1,16,-1
 145 0 l 1,17,-1
 59 0 l 1,18,-1
 59 723 l 1,0,-1
EndSplineSet
EndChar

StartChar: L
Encoding: 76 76 47
Width: 600
GlyphClass: 2
Flags: W
LayerCount: 2
Fore
SplineSet
87 722 m 1,0,-1
 181 722 l 1,1,2
 182 714 182 714 177 704 c 0,3,4
 171 692 171 692 171 683 c 2,5,-1
 171 69 l 1,6,-1
 519 69 l 1,7,-1
 519 -1 l 1,8,-1
 87 -1 l 1,9,-1
 87 722 l 1,0,-1
EndSplineSet
EndChar

StartChar: M
Encoding: 77 77 48
Width: 600
GlyphClass: 2
Flags: W
LayerCount: 2
Fore
SplineSet
57 722 m 1,0,-1
 121 722 l 1,1,-1
 300 369 l 1,2,-1
 482 723 l 1,3,-1
 543 723 l 1,4,-1
 543 -1 l 1,5,-1
 466 -1 l 1,6,-1
 466 545 l 1,7,-1
 310 254 l 1,8,-1
 279 254 l 1,9,-1
 133 541 l 1,10,-1
 133 -1 l 1,11,-1
 57 -1 l 1,12,-1
 57 722 l 1,0,-1
EndSplineSet
EndChar

StartChar: N
Encoding: 78 78 49
Width: 600
GlyphClass: 2
Flags: W
LayerCount: 2
Fore
SplineSet
68 0 m 1,0,-1
 68 722 l 1,1,-1
 147 722 l 1,2,-1
 450 187 l 1,3,-1
 450 723 l 1,4,-1
 536 723 l 1,5,6
 537 716 537 716 533 708 c 0,7,8
 528 699 528 699 528 692 c 2,9,-1
 528 -1 l 1,10,-1
 464 -1 l 1,11,-1
 146 568 l 1,12,-1
 146 0 l 1,13,-1
 68 0 l 1,0,-1
EndSplineSet
EndChar

StartChar: O
Encoding: 79 79 50
Width: 600
GlyphClass: 2
Flags: W
LayerCount: 2
Fore
SplineSet
556 360 m 0,0,1
 556 216 556 216 513 129 c 0,2,3
 479 60 479 60 422.5 24.5 c 128,-1,4
 366 -11 366 -11 304 -11 c 0,5,6
 269 -11 269 -11 234.5 0 c 128,-1,7
 200 11 200 11 165 39 c 128,-1,8
 130 67 130 67 103.5 108 c 128,-1,9
 77 149 77 149 60.5 214.5 c 128,-1,10
 44 280 44 280 44 362 c 128,-1,11
 44 444 44 444 61 509 c 128,-1,12
 78 574 78 574 104.5 614.5 c 128,-1,13
 131 655 131 655 166 682 c 128,-1,14
 201 709 201 709 235 719.5 c 128,-1,15
 269 730 269 730 304 730 c 0,16,17
 366 730 366 730 422 695.5 c 128,-1,18
 478 661 478 661 512 594 c 0,19,20
 556 507 556 507 556 360 c 0,0,1
300 654 m 0,21,22
 270 654 270 654 240.5 639.5 c 128,-1,23
 211 625 211 625 184 594.5 c 128,-1,24
 157 564 157 564 140.5 506.5 c 128,-1,25
 124 449 124 449 124 373 c 0,26,27
 124 291 124 291 140.5 229 c 128,-1,28
 157 167 157 167 184.5 133.5 c 128,-1,29
 212 100 212 100 242 84 c 128,-1,30
 272 68 272 68 305 68 c 0,31,32
 345 68 345 68 382 92 c 128,-1,33
 419 116 419 116 443 166 c 0,34,35
 475 234 475 234 475 349 c 0,36,37
 475 470 475 470 447 540 c 0,38,39
 423 598 423 598 383 626 c 128,-1,40
 343 654 343 654 300 654 c 0,21,22
EndSplineSet
EndChar

StartChar: P
Encoding: 80 80 51
Width: 600
GlyphClass: 2
Flags: W
LayerCount: 2
Fore
SplineSet
78 722 m 1,0,-1
 298 722 l 2,1,2
 327 722 327 722 345 721 c 128,-1,3
 363 720 363 720 388 714 c 128,-1,4
 413 708 413 708 435 697 c 0,5,6
 484 672 484 672 511 623.5 c 128,-1,7
 538 575 538 575 538 518.5 c 128,-1,8
 538 462 538 462 511.5 414.5 c 128,-1,9
 485 367 485 367 436 342 c 0,10,11
 390 319 390 319 304 319 c 2,12,-1
 162 319 l 1,13,-1
 162 0 l 1,14,-1
 78 0 l 1,15,-1
 78 722 l 1,0,-1
162 646 m 1,16,-1
 161 390 l 1,17,-1
 307 390 l 2,18,19
 362 390 362 390 391 405 c 0,20,21
 422 420 422 420 438.5 450 c 128,-1,22
 455 480 455 480 455 515 c 0,23,24
 455 551 455 551 437 582.5 c 128,-1,25
 419 614 419 614 387 631 c 0,26,27
 356 646 356 646 298 646 c 2,28,-1
 162 646 l 1,16,-1
EndSplineSet
EndChar

StartChar: Q
Encoding: 81 81 52
Width: 600
GlyphClass: 2
Flags: W
LayerCount: 2
Fore
SplineSet
300 656 m 0,0,1
 269 656 269 656 239.5 641 c 128,-1,2
 210 626 210 626 183 595 c 128,-1,3
 156 564 156 564 139.5 507 c 128,-1,4
 123 450 123 450 123 374 c 0,5,6
 123 292 123 292 139 229.5 c 128,-1,7
 155 167 155 167 182.5 132.5 c 128,-1,8
 210 98 210 98 241 81 c 128,-1,9
 272 64 272 64 305 64 c 0,10,11
 326 64 326 64 347 70 c 128,-1,12
 368 76 368 76 392.5 95 c 128,-1,13
 417 114 417 114 435 144 c 128,-1,14
 453 174 453 174 465.5 227 c 128,-1,15
 478 280 478 280 478 348 c 0,16,17
 478 468 478 468 449 541 c 0,18,19
 424 600 424 600 383.5 628 c 128,-1,20
 343 656 343 656 300 656 c 0,0,1
556 358 m 0,21,22
 556 214 556 214 513 128 c 0,23,24
 484 70 484 70 439.5 36 c 128,-1,25
 395 2 395 2 343 -8 c 1,26,27
 344 -25 344 -25 347 -38.5 c 128,-1,28
 350 -52 350 -52 358.5 -66 c 128,-1,29
 367 -80 367 -80 384.5 -87.5 c 128,-1,30
 402 -95 402 -95 428 -95 c 0,31,32
 442 -95 442 -95 474 -92.5 c 128,-1,33
 506 -90 506 -90 522 -89 c 1,34,-1
 520 -168 l 1,35,36
 462 -170 462 -170 416 -167.5 c 128,-1,37
 370 -165 370 -165 341 -150 c 0,38,39
 270 -115 270 -115 272 -8 c 1,40,41
 239 -3 239 -3 208 11.5 c 128,-1,42
 177 26 177 26 146.5 55.5 c 128,-1,43
 116 85 116 85 94 125.5 c 128,-1,44
 72 166 72 166 58 227 c 128,-1,45
 44 288 44 288 44 362 c 0,46,47
 44 444 44 444 61 509 c 128,-1,48
 78 574 78 574 104.5 614.5 c 128,-1,49
 131 655 131 655 166 682 c 128,-1,50
 201 709 201 709 235 719.5 c 128,-1,51
 269 730 269 730 304 730 c 0,52,53
 366 730 366 730 422.5 695 c 128,-1,54
 479 660 479 660 513 592 c 0,55,56
 556 506 556 506 556 358 c 0,21,22
EndSplineSet
EndChar

StartChar: R
Encoding: 82 82 53
Width: 600
GlyphClass: 2
Flags: W
LayerCount: 2
Fore
SplineSet
75 722 m 1,0,-1
 288 722 l 2,1,2
 317 722 317 722 335.5 721 c 128,-1,3
 354 720 354 720 379.5 714.5 c 128,-1,4
 405 709 405 709 426 698 c 0,5,6
 475 673 475 673 501.5 626.5 c 128,-1,7
 528 580 528 580 528 524 c 0,8,9
 528 452 528 452 487.5 396 c 128,-1,10
 447 340 447 340 381 322 c 1,11,-1
 548 0 l 1,12,-1
 457 0 l 1,13,-1
 297 319 l 1,14,-1
 157 319 l 1,15,-1
 157 0 l 1,16,-1
 75 0 l 1,17,-1
 75 722 l 1,0,-1
157 646 m 1,18,-1
 157 390 l 1,19,-1
 297 390 l 2,20,21
 352 390 352 390 381 405 c 0,22,23
 412 420 412 420 428.5 450 c 128,-1,24
 445 480 445 480 445 515 c 0,25,26
 445 551 445 551 427 582.5 c 128,-1,27
 409 614 409 614 377 631 c 0,28,29
 346 646 346 646 288 646 c 2,30,-1
 157 646 l 1,18,-1
EndSplineSet
EndChar

StartChar: S
Encoding: 83 83 54
Width: 600
GlyphClass: 2
Flags: W
LayerCount: 2
Fore
SplineSet
514 636 m 1,0,-1
 463 567 l 1,1,2
 457 569 457 569 457 576.5 c 128,-1,3
 457 584 457 584 454 588 c 0,4,5
 432 620 432 620 394 639.5 c 128,-1,6
 356 659 356 659 307 659 c 0,7,8
 248 659 248 659 212.5 628 c 128,-1,9
 177 597 177 597 177 553 c 0,10,11
 177 489 177 489 251 446 c 0,12,13
 275 431 275 431 322.5 412.5 c 128,-1,14
 370 394 370 394 412 373.5 c 128,-1,15
 454 353 454 353 481 327 c 0,16,17
 537 275 537 275 537 197 c 0,18,19
 537 160 537 160 524 125 c 128,-1,20
 511 90 511 90 483.5 58.5 c 128,-1,21
 456 27 456 27 407.5 7.5 c 128,-1,22
 359 -12 359 -12 297 -12 c 0,23,24
 155 -12 155 -12 70 81 c 1,25,-1
 118 164 l 1,26,27
 123 161 123 161 123 153 c 256,28,29
 123 145 123 145 127 141 c 0,30,31
 153 107 153 107 198.5 84 c 128,-1,32
 244 61 244 61 299 61 c 0,33,34
 373 61 373 61 415 100.5 c 128,-1,35
 457 140 457 140 457 192 c 0,36,37
 457 254 457 254 396 292 c 0,38,39
 375 305 375 305 291.5 339 c 128,-1,40
 208 373 208 373 171 400 c 0,41,42
 94 457 94 457 94 541 c 0,43,44
 94 617 94 617 156 671.5 c 128,-1,45
 218 726 218 726 314 726 c 0,46,47
 373 726 373 726 425.5 702.5 c 128,-1,48
 478 679 478 679 514 636 c 1,0,-1
EndSplineSet
EndChar

StartChar: T
Encoding: 84 84 55
Width: 600
GlyphClass: 2
Flags: W
LayerCount: 2
Fore
SplineSet
46 723 m 1,0,-1
 546 723 l 1,1,-1
 546 650 l 1,2,-1
 333 650 l 1,3,-1
 333 -1 l 1,4,-1
 251 -1 l 1,5,-1
 251 650 l 1,6,-1
 46 650 l 1,7,-1
 46 723 l 1,0,-1
EndSplineSet
EndChar

StartChar: U
Encoding: 85 85 56
Width: 600
GlyphClass: 2
Flags: W
LayerCount: 2
Fore
SplineSet
68 722 m 1,0,-1
 159 722 l 2,1,2
 160 719 160 719 160 716 c 0,3,4
 160 711 160 711 153 700 c 0,5,6
 148 694 148 694 148 685 c 2,7,-1
 148 248 l 2,8,9
 148 179 148 179 165 142 c 0,10,11
 184 101 184 101 221.5 78.5 c 128,-1,12
 259 56 259 56 303 56 c 256,13,14
 347 56 347 56 384 78 c 128,-1,15
 421 100 421 100 440 141 c 0,16,17
 459 179 459 179 459 251 c 2,18,-1
 459 722 l 1,19,-1
 536 722 l 1,20,-1
 536 253 l 2,21,22
 536 204 536 204 531 169 c 128,-1,23
 526 134 526 134 507 100 c 0,24,25
 477 45 477 45 422 16 c 128,-1,26
 367 -13 367 -13 301 -13 c 0,27,28
 236 -13 236 -13 180.5 16 c 128,-1,29
 125 45 125 45 96 99 c 0,30,31
 78 133 78 133 73 167 c 128,-1,32
 68 201 68 201 68 249 c 2,33,-1
 68 722 l 1,0,-1
EndSplineSet
EndChar

StartChar: V
Encoding: 86 86 57
Width: 600
GlyphClass: 2
Flags: W
LayerCount: 2
Fore
SplineSet
39 723 m 1,0,-1
 124 723 l 1,1,-1
 309 168 l 1,2,-1
 484 722 l 1,3,-1
 564 722 l 1,4,-1
 322 -5 l 1,5,-1
 285 -5 l 1,6,-1
 39 723 l 1,0,-1
EndSplineSet
EndChar

StartChar: W
Encoding: 87 87 58
Width: 600
GlyphClass: 2
Flags: W
LayerCount: 2
Fore
SplineSet
30 722 m 1,0,-1
 105 722 l 1,1,-1
 183 234 l 1,2,-1
 299 669 l 1,3,-1
 324 669 l 1,4,-1
 441 232 l 1,5,-1
 507 722 l 1,6,-1
 575 722 l 1,7,-1
 461 -5 l 1,8,-1
 429 -5 l 1,9,-1
 305 472 l 1,10,-1
 179 -5 l 1,11,-1
 146 -5 l 1,12,-1
 30 722 l 1,0,-1
EndSplineSet
EndChar

StartChar: X
Encoding: 88 88 59
Width: 600
GlyphClass: 2
Flags: W
LayerCount: 2
Fore
SplineSet
449 723 m 1,0,-1
 530 723 l 1,1,-1
 347 370 l 1,2,-1
 552 0 l 1,3,-1
 461 0 l 1,4,-1
 300 286 l 1,5,-1
 146 0 l 1,6,-1
 57 0 l 1,7,-1
 254 368 l 1,8,-1
 61 723 l 1,9,-1
 148 723 l 1,10,-1
 300 449 l 1,11,-1
 449 723 l 1,0,-1
EndSplineSet
EndChar

StartChar: Y
Encoding: 89 89 60
Width: 600
GlyphClass: 2
Flags: W
LayerCount: 2
Fore
SplineSet
43 723 m 1,0,-1
 135 723 l 1,1,-1
 312 372 l 1,2,-1
 472 722 l 1,3,-1
 558 722 l 1,4,-1
 353 285 l 1,5,-1
 353 0 l 1,6,-1
 265 0 l 1,7,-1
 265 285 l 1,8,-1
 43 723 l 1,0,-1
EndSplineSet
EndChar

StartChar: Z
Encoding: 90 90 61
Width: 600
GlyphClass: 2
Flags: W
LayerCount: 2
Fore
SplineSet
82 722 m 1,0,-1
 528 722 l 1,1,-1
 527 665 l 1,2,-1
 170 71 l 1,3,-1
 511 71 l 2,4,5
 519 71 519 71 528.5 75 c 128,-1,6
 538 79 538 79 546 78 c 1,7,-1
 546 -1 l 1,8,-1
 68 -1 l 1,9,-1
 68 56 l 1,10,-1
 432 649 l 1,11,-1
 82 649 l 1,12,-1
 82 722 l 1,0,-1
EndSplineSet
EndChar

StartChar: bracketleft
Encoding: 91 91 62
Width: 600
GlyphClass: 2
Flags: W
LayerCount: 2
Fore
SplineSet
162 776 m 1,0,-1
 493 776 l 1,1,-1
 493 707 l 1,2,-1
 236 707 l 1,3,-1
 237 -102 l 1,4,-1
 495 -102 l 1,5,-1
 495 -168 l 1,6,-1
 163 -168 l 1,7,-1
 162 776 l 1,0,-1
EndSplineSet
EndChar

StartChar: backslash
Encoding: 92 92 63
Width: 600
GlyphClass: 2
Flags: W
LayerCount: 2
Fore
SplineSet
516 -15 m 1,0,-1
 153 770 l 1,1,-1
 84 735 l 1,2,-1
 448 -49 l 1,3,-1
 516 -15 l 1,0,-1
EndSplineSet
EndChar

StartChar: bracketright
Encoding: 93 93 64
Width: 600
GlyphClass: 2
Flags: W
LayerCount: 2
Fore
SplineSet
438 776 m 1,0,-1
 107 776 l 1,1,-1
 107 707 l 1,2,-1
 364 707 l 1,3,-1
 361 -93 l 1,4,-1
 103 -93 l 1,5,-1
 103 -159 l 1,6,-1
 435 -159 l 1,7,-1
 438 776 l 1,0,-1
EndSplineSet
EndChar

StartChar: asciicircum
Encoding: 94 94 65
Width: 600
GlyphClass: 2
Flags: W
LayerCount: 2
Fore
SplineSet
38 431 m 1,0,-1
 296 728 l 1,1,-1
 333 728 l 1,2,-1
 562 432 l 1,3,-1
 471 403 l 1,4,-1
 308 606 l 1,5,-1
 123 403 l 1,6,-1
 38 431 l 1,0,-1
EndSplineSet
EndChar

StartChar: underscore
Encoding: 95 95 66
Width: 600
GlyphClass: 2
Flags: W
LayerCount: 2
Fore
SplineSet
50 -22 m 1,0,-1
 550 -22 l 1,1,-1
 550 -93 l 1,2,-1
 50 -93 l 1,3,-1
 50 -22 l 1,0,-1
EndSplineSet
EndChar

StartChar: grave
Encoding: 96 96 67
Width: 600
GlyphClass: 2
Flags: W
LayerCount: 2
Fore
SplineSet
293 353 m 2,0,-1
 230 463 l 1,1,-1
 170 563 l 1,2,-1
 168 744 l 1,3,4
 184 721 184 721 198.5 694 c 128,-1,5
 213 667 213 667 225 648 c 0,6,7
 232 630 232 630 243 616 c 128,-1,8
 254 602 254 602 257 595 c 2,9,-1
 291 537 l 2,10,11
 309 506 309 506 319 456 c 128,-1,12
 329 406 329 406 330 369 c 0,13,14
 331 287 331 287 293 353 c 2,0,-1
EndSplineSet
EndChar

StartChar: a
Encoding: 97 97 68
Width: 600
GlyphClass: 2
Flags: W
LayerCount: 2
Fore
SplineSet
115 467 m 1,0,1
 187 541 187 541 304 541 c 0,2,3
 366 541 366 541 414 518.5 c 128,-1,4
 462 496 462 496 488 453 c 0,5,6
 505 426 505 426 509.5 397 c 128,-1,7
 514 368 514 368 514 328 c 2,8,-1
 514 0 l 1,9,-1
 435 0 l 1,10,-1
 435 58 l 1,11,12
 348 -13 348 -13 245 -13 c 0,13,14
 165 -13 165 -13 116 31.5 c 128,-1,15
 67 76 67 76 67 137 c 0,16,17
 67 184 67 184 97.5 225 c 128,-1,18
 128 266 128 266 188 288 c 0,19,20
 219 300 219 300 263.5 305.5 c 128,-1,21
 308 311 308 311 334.5 311.5 c 128,-1,22
 361 312 361 312 417 312 c 2,23,-1
 434 312 l 1,24,-1
 434 331 l 2,25,26
 434 394 434 394 417 422 c 0,27,28
 386 473 386 473 308 473 c 0,29,30
 212 473 212 473 156 414 c 1,31,-1
 115 467 l 1,0,1
437 248 m 1,32,-1
 418 248 l 2,33,34
 382 249 382 249 328.5 248 c 128,-1,35
 275 247 275 247 244 240 c 0,36,37
 197 229 197 229 174 201.5 c 128,-1,38
 151 174 151 174 151 142 c 0,39,40
 151 105 151 105 181 78 c 128,-1,41
 211 51 211 51 262 51 c 0,42,43
 307 51 307 51 343.5 71 c 128,-1,44
 380 91 380 91 401 113 c 0,45,46
 418 131 418 131 426.5 151 c 128,-1,47
 435 171 435 171 436 182.5 c 128,-1,48
 437 194 437 194 437 213 c 2,49,-1
 437 248 l 1,32,-1
EndSplineSet
EndChar

StartChar: b
Encoding: 98 98 69
Width: 600
GlyphClass: 2
Flags: W
LayerCount: 2
Fore
SplineSet
79 771 m 1,0,-1
 177 771 l 1,1,2
 179 764 179 764 171 758 c 0,3,4
 164 753 164 753 164 745 c 2,5,-1
 164 448 l 1,6,7
 189 492 189 492 233 517 c 128,-1,8
 277 542 277 542 327 542 c 0,9,10
 367 542 367 542 404.5 525.5 c 128,-1,11
 442 509 442 509 472.5 476.5 c 128,-1,12
 503 444 503 444 521.5 391 c 128,-1,13
 540 338 540 338 540 271 c 0,14,15
 540 202 540 202 521 146.5 c 128,-1,16
 502 91 502 91 470 57 c 128,-1,17
 438 23 438 23 399 5 c 128,-1,18
 360 -13 360 -13 319 -13 c 0,19,20
 271 -13 271 -13 229.5 9 c 128,-1,21
 188 31 188 31 162 70 c 1,22,-1
 133 0 l 1,23,-1
 79 0 l 1,24,-1
 79 771 l 1,0,-1
298 470 m 0,25,26
 258 470 258 470 225.5 449 c 128,-1,27
 193 428 193 428 178 393 c 0,28,29
 164 359 164 359 164 282 c 0,30,31
 164 202 164 202 167 177 c 0,32,33
 172 142 172 142 187.5 117 c 128,-1,34
 203 92 203 92 224 81 c 128,-1,35
 245 70 245 70 262.5 66 c 128,-1,36
 280 62 280 62 297 62 c 0,37,38
 315 62 315 62 333.5 66 c 128,-1,39
 352 70 352 70 374 83 c 128,-1,40
 396 96 396 96 413 116 c 128,-1,41
 430 136 430 136 441.5 171.5 c 128,-1,42
 453 207 453 207 453 254 c 0,43,44
 453 307 453 307 441.5 347.5 c 128,-1,45
 430 388 430 388 413 410.5 c 128,-1,46
 396 433 396 433 374 447.5 c 128,-1,47
 352 462 352 462 334 466 c 128,-1,48
 316 470 316 470 298 470 c 0,25,26
EndSplineSet
EndChar

StartChar: c
Encoding: 99 99 70
Width: 600
GlyphClass: 2
Flags: W
LayerCount: 2
Fore
SplineSet
539 442 m 1,0,-1
 480 373 l 1,1,2
 475 377 475 377 474.5 387 c 128,-1,3
 474 397 474 397 473 400 c 0,4,5
 470 404 470 404 462 413.5 c 128,-1,6
 454 423 454 423 437.5 436.5 c 128,-1,7
 421 450 421 450 394 459.5 c 128,-1,8
 367 469 367 469 336 469 c 0,9,10
 261 469 261 469 211 415.5 c 128,-1,11
 161 362 161 362 161 273 c 0,12,13
 161 181 161 181 213 122 c 128,-1,14
 265 63 265 63 343 63 c 0,15,16
 427 63 427 63 483 127 c 1,17,-1
 531 71 l 1,18,19
 493 30 493 30 442.5 8.5 c 128,-1,20
 392 -13 392 -13 336 -13 c 0,21,22
 223 -13 223 -13 149 66 c 128,-1,23
 75 145 75 145 75 264.5 c 128,-1,24
 75 384 75 384 150 462 c 128,-1,25
 225 540 225 540 341 540 c 0,26,27
 404 540 404 540 455.5 514 c 128,-1,28
 507 488 507 488 539 442 c 1,0,-1
EndSplineSet
EndChar

StartChar: d
Encoding: 100 100 71
Width: 600
GlyphClass: 2
Flags: W
LayerCount: 2
Fore
SplineSet
440 452 m 1,0,-1
 440 771 l 1,1,-1
 529 771 l 1,2,3
 529 764 529 764 523 754 c 0,4,5
 518 746 518 746 518 738 c 2,6,-1
 519 49 l 2,7,8
 519 19 519 19 524 0 c 1,9,-1
 441 0 l 1,10,11
 436 15 436 15 436 39 c 2,12,-1
 436 85 l 1,13,14
 411 40 411 40 367 14 c 128,-1,15
 323 -12 323 -12 272 -12 c 0,16,17
 233 -12 233 -12 196.5 5 c 128,-1,18
 160 22 160 22 129.5 55 c 128,-1,19
 99 88 99 88 80.5 143.5 c 128,-1,20
 62 199 62 199 62 269 c 0,21,22
 62 341 62 341 82 396.5 c 128,-1,23
 102 452 102 452 135.5 482.5 c 128,-1,24
 169 513 169 513 207 528 c 128,-1,25
 245 543 245 543 285 543 c 0,26,27
 339 543 339 543 380 518.5 c 128,-1,28
 421 494 421 494 440 452 c 1,0,-1
289 475 m 0,29,30
 264 475 264 475 240 465.5 c 128,-1,31
 216 456 216 456 193.5 435.5 c 128,-1,32
 171 415 171 415 157 375.5 c 128,-1,33
 143 336 143 336 143 283 c 0,34,35
 143 221 143 221 157.5 175.5 c 128,-1,36
 172 130 172 130 195.5 106.5 c 128,-1,37
 219 83 219 83 243 72.5 c 128,-1,38
 267 62 267 62 292 62 c 0,39,40
 335 62 335 62 371 89 c 128,-1,41
 407 116 407 116 422 162 c 0,42,43
 433 197 433 197 433 259 c 0,44,45
 433 338 433 338 424 372 c 0,46,47
 410 425 410 425 370.5 450 c 128,-1,48
 331 475 331 475 289 475 c 0,29,30
EndSplineSet
EndChar

StartChar: e
Encoding: 101 101 72
Width: 600
GlyphClass: 2
Flags: W
LayerCount: 2
Fore
SplineSet
310 542 m 0,0,1
 344 542 344 542 376 532.5 c 128,-1,2
 408 523 408 523 437.5 502 c 128,-1,3
 467 481 467 481 489 443 c 128,-1,4
 511 405 511 405 519 354 c 0,5,6
 528 305 528 305 523 253 c 1,7,-1
 147 253 l 1,8,9
 150 197 150 197 168 156 c 128,-1,10
 186 115 186 115 213.5 94.5 c 128,-1,11
 241 74 241 74 269 64.5 c 128,-1,12
 297 55 297 55 327 55 c 0,13,14
 411 55 411 55 464 115 c 1,15,-1
 510 70 l 1,16,17
 442 -12 442 -12 320 -12 c 0,18,19
 209 -12 209 -12 137.5 59 c 128,-1,20
 66 130 66 130 66 259 c 0,21,22
 66 329 66 329 86 384 c 128,-1,23
 106 439 106 439 140.5 473 c 128,-1,24
 175 507 175 507 218 524.5 c 128,-1,25
 261 542 261 542 310 542 c 0,0,1
150 317 m 1,26,-1
 441 317 l 1,27,28
 449 382 449 382 408.5 430 c 128,-1,29
 368 478 368 478 304 478 c 0,30,31
 281 478 281 478 258 470 c 128,-1,32
 235 462 235 462 212 444.5 c 128,-1,33
 189 427 189 427 172.5 394 c 128,-1,34
 156 361 156 361 150 317 c 1,26,-1
EndSplineSet
EndChar

StartChar: f
Encoding: 102 102 73
Width: 600
GlyphClass: 2
Flags: W
LayerCount: 2
Fore
SplineSet
408 777 m 0,0,1
 510 777 510 777 570 705 c 1,2,-1
 532 628 l 2,3,4
 529 628 529 628 526 630 c 128,-1,5
 523 632 523 632 523 638 c 0,6,7
 522 648 522 648 519 651 c 0,8,9
 502 678 502 678 471 695 c 128,-1,10
 440 712 440 712 404 712 c 0,11,12
 370 712 370 712 341.5 697 c 128,-1,13
 313 682 313 682 297 653 c 0,14,15
 288 637 288 637 283.5 615 c 128,-1,16
 279 593 279 593 278.5 579.5 c 128,-1,17
 278 566 278 566 278 539 c 2,18,-1
 278 498 l 1,19,-1
 451 498 l 1,20,-1
 451 432 l 1,21,-1
 278 432 l 1,22,-1
 278 0 l 1,23,-1
 198 0 l 1,24,-1
 198 432 l 1,25,-1
 83 432 l 1,26,-1
 83 498 l 1,27,-1
 198 498 l 1,28,-1
 198 550 l 2,29,30
 198 593 198 593 203.5 624 c 128,-1,31
 209 655 209 655 227 685 c 0,32,33
 254 729 254 729 302.5 753 c 128,-1,34
 351 777 351 777 408 777 c 0,0,1
EndSplineSet
EndChar

StartChar: g
Encoding: 103 103 74
Width: 600
GlyphClass: 2
Flags: W
LayerCount: 2
Fore
SplineSet
156 364 m 128,-1,1
 156 316 156 316 190 282 c 128,-1,2
 224 248 224 248 272.5 248 c 128,-1,3
 321 248 321 248 355 282 c 128,-1,4
 389 316 389 316 389 364 c 128,-1,5
 389 412 389 412 355 446.5 c 128,-1,6
 321 481 321 481 272.5 481 c 128,-1,7
 224 481 224 481 190 446.5 c 128,-1,0
 156 412 156 412 156 364 c 128,-1,1
278 547 m 0,8,9
 352 547 352 547 403 496 c 1,10,11
 467 550 467 550 550 543 c 1,12,-1
 560 475 l 1,13,14
 545 478 545 478 529 478 c 0,15,16
 480 478 480 478 437 452 c 1,17,18
 464 411 464 411 464 362 c 0,19,20
 464 289 464 289 408 235 c 128,-1,21
 352 181 352 181 273 181 c 0,22,23
 239 181 239 181 206 193 c 1,24,25
 168 162 168 162 168 134 c 0,26,27
 168 108 168 108 200 99 c 0,28,29
 225 92 225 92 276 92 c 0,30,31
 315 95 315 95 367.5 93.5 c 128,-1,32
 420 92 420 92 455 77 c 0,33,34
 496 61 496 61 516.5 30 c 128,-1,35
 537 -1 537 -1 537 -38 c 0,36,37
 537 -66 537 -66 524 -93 c 128,-1,38
 511 -120 511 -120 483.5 -144.5 c 128,-1,39
 456 -169 456 -169 407 -184 c 128,-1,40
 358 -199 358 -199 294 -199 c 0,41,42
 227 -199 227 -199 178.5 -188 c 128,-1,43
 130 -177 130 -177 104 -158 c 128,-1,44
 78 -139 78 -139 66 -118 c 128,-1,45
 54 -97 54 -97 54 -74 c 0,46,47
 54 -12 54 -12 141 43 c 1,48,49
 98 66 98 66 98 114 c 0,50,51
 98 165 98 165 158 216 c 1,52,53
 122 240 122 240 101 278 c 128,-1,54
 80 316 80 316 80 359 c 0,55,56
 80 436 80 436 139 491.5 c 128,-1,57
 198 547 198 547 278 547 c 0,8,9
197 28 m 1,58,59
 131 -8 131 -8 131 -54 c 0,60,61
 131 -98 131 -98 183 -119 c 0,62,63
 227 -136 227 -136 292 -136 c 0,64,65
 368 -136 368 -136 411 -113 c 0,66,67
 461 -86 461 -86 461 -43 c 0,68,69
 461 -22 461 -22 446 -4 c 128,-1,70
 431 14 431 14 398 19 c 0,71,72
 380 22 380 22 337 22 c 128,-1,73
 294 22 294 22 286 22 c 0,74,75
 230 24 230 24 197 28 c 1,58,59
EndSplineSet
EndChar

StartChar: h
Encoding: 104 104 75
Width: 600
GlyphClass: 2
Flags: W
LayerCount: 2
Fore
SplineSet
91 0 m 1,0,-1
 91 770 l 1,1,-1
 187 770 l 2,2,3
 188 768 188 768 188 767 c 0,4,5
 188 762 188 762 180 754 c 0,6,7
 176 750 176 750 176 743 c 2,8,-1
 176 436 l 1,9,10
 207 483 207 483 253.5 512.5 c 128,-1,11
 300 542 300 542 352 542 c 0,12,13
 398 542 398 542 435.5 517.5 c 128,-1,14
 473 493 473 493 493 449 c 0,15,16
 512 405 512 405 512 321 c 2,17,-1
 512 0 l 1,18,-1
 430 0 l 1,19,-1
 430 319 l 2,20,21
 430 344 430 344 429 359.5 c 128,-1,22
 428 375 428 375 421 397.5 c 128,-1,23
 414 420 414 420 401 436 c 0,24,25
 373 470 373 470 329 470 c 0,26,27
 292 470 292 470 257 446 c 128,-1,28
 222 422 222 422 202 396 c 0,29,30
 176 361 176 361 176 305 c 2,31,-1
 176 0 l 1,32,-1
 91 0 l 1,0,-1
EndSplineSet
EndChar

StartChar: i
Encoding: 105 105 76
Width: 600
GlyphClass: 2
Flags: W
LayerCount: 2
Fore
SplineSet
133 530 m 1,0,-1
 345 530 l 1,1,-1
 345 67 l 1,2,-1
 469 67 l 1,3,-1
 469 0 l 1,4,-1
 126 0 l 1,5,-1
 126 67 l 1,6,-1
 261 67 l 1,7,-1
 261 462 l 1,8,-1
 133 462 l 1,9,-1
 133 530 l 1,0,-1
305 760 m 128,-1,11
 330 760 330 760 347.5 742.5 c 128,-1,12
 365 725 365 725 365 700.5 c 128,-1,13
 365 676 365 676 347.5 658.5 c 128,-1,14
 330 641 330 641 305 641 c 128,-1,15
 280 641 280 641 262.5 658.5 c 128,-1,16
 245 676 245 676 245 700.5 c 128,-1,17
 245 725 245 725 262.5 742.5 c 128,-1,10
 280 760 280 760 305 760 c 128,-1,11
EndSplineSet
EndChar

StartChar: j
Encoding: 106 106 77
Width: 600
GlyphClass: 2
Flags: W
LayerCount: 2
Fore
SplineSet
156 530 m 1,0,-1
 437 530 l 1,1,-1
 437 37 l 2,2,3
 437 -50 437 -50 413 -96 c 0,4,5
 387 -147 387 -147 337 -174.5 c 128,-1,6
 287 -202 287 -202 228 -202 c 0,7,8
 126 -202 126 -202 66 -128 c 1,9,-1
 120 -56 l 1,10,11
 124 -59 124 -59 126 -67 c 128,-1,12
 128 -75 128 -75 130 -77 c 0,13,14
 135 -84 135 -84 144.5 -94.5 c 128,-1,15
 154 -105 154 -105 179 -117.5 c 128,-1,16
 204 -130 204 -130 233 -130 c 0,17,18
 267 -130 267 -130 296 -112.5 c 128,-1,19
 325 -95 325 -95 339 -63 c 0,20,21
 353 -34 353 -34 353 21 c 2,22,-1
 353 461 l 1,23,-1
 156 461 l 1,24,-1
 156 530 l 1,0,-1
396 760 m 128,-1,26
 421 760 421 760 438.5 742.5 c 128,-1,27
 456 725 456 725 456 700.5 c 128,-1,28
 456 676 456 676 438.5 658.5 c 128,-1,29
 421 641 421 641 396 641 c 128,-1,30
 371 641 371 641 353.5 658.5 c 128,-1,31
 336 676 336 676 336 700.5 c 128,-1,32
 336 725 336 725 353.5 742.5 c 128,-1,25
 371 760 371 760 396 760 c 128,-1,26
EndSplineSet
EndChar

StartChar: k
Encoding: 107 107 78
Width: 600
GlyphClass: 2
Flags: W
LayerCount: 2
Fore
SplineSet
87 770 m 1,0,-1
 182 770 l 1,1,2
 183 763 183 763 175 753 c 0,3,4
 171 748 171 748 171 740 c 2,5,-1
 171 286 l 1,6,-1
 436 532 l 1,7,8
 460 526 460 526 498 526 c 2,9,-1
 528 526 l 1,10,-1
 305 316 l 1,11,-1
 565 -1 l 2,12,13
 561 -1 561 -1 557 -1 c 0,14,15
 522 -1 522 -1 489.5 -3 c 128,-1,16
 457 -5 457 -5 457 -5 c 1,17,-1
 241 265 l 1,18,-1
 171 200 l 1,19,-1
 171 -1 l 1,20,-1
 87 -1 l 1,21,-1
 87 770 l 1,0,-1
EndSplineSet
EndChar

StartChar: l
Encoding: 108 108 79
Width: 600
GlyphClass: 2
Flags: W
LayerCount: 2
Fore
SplineSet
108 770 m 1,0,-1
 342 770 l 1,1,-1
 342 67 l 1,2,-1
 498 67 l 1,3,-1
 498 0 l 1,4,-1
 101 0 l 1,5,-1
 101 67 l 1,6,-1
 258 67 l 1,7,-1
 258 703 l 1,8,-1
 108 703 l 1,9,-1
 108 770 l 1,0,-1
EndSplineSet
EndChar

StartChar: m
Encoding: 109 109 80
Width: 600
GlyphClass: 2
Flags: W
LayerCount: 2
Fore
SplineSet
54 0 m 1,0,-1
 54 529 l 1,1,-1
 131 529 l 1,2,-1
 130 477 l 1,3,4
 149 506 149 506 178 524 c 128,-1,5
 207 542 207 542 238 542 c 0,6,7
 273 542 273 542 299.5 520 c 128,-1,8
 326 498 326 498 332 465 c 1,9,10
 347 500 347 500 379.5 521 c 128,-1,11
 412 542 412 542 451 542 c 0,12,13
 506 542 506 542 533 500 c 0,14,15
 540 490 540 490 544.5 478 c 128,-1,16
 549 466 549 466 551 454 c 128,-1,17
 553 442 553 442 554 428.5 c 128,-1,18
 555 415 555 415 555 402.5 c 128,-1,19
 555 390 555 390 555 376 c 2,20,-1
 555 -1 l 1,21,-1
 476 -1 l 1,22,-1
 476 375 l 2,23,24
 477 391 477 391 476 414 c 128,-1,25
 475 437 475 437 469 452 c 0,26,27
 456 481 456 481 427 481 c 0,28,29
 394 481 394 481 365 433 c 0,30,31
 343 396 343 396 343 350 c 2,32,-1
 343 0 l 1,33,-1
 265 0 l 1,34,-1
 265 368 l 2,35,36
 265 421 265 421 260 438 c 0,37,38
 253 458 253 458 239.5 468 c 128,-1,39
 226 478 226 478 211 478 c 0,40,41
 173 478 173 478 147 429 c 0,42,43
 130 398 130 398 130 353 c 2,44,-1
 130 0 l 1,45,-1
 54 0 l 1,0,-1
EndSplineSet
EndChar

StartChar: n
Encoding: 110 110 81
Width: 600
GlyphClass: 2
Flags: W
LayerCount: 2
Fore
SplineSet
89 0 m 1,0,-1
 89 529 l 1,1,-1
 174 529 l 1,2,-1
 174 436 l 1,3,4
 205 483 205 483 251.5 512.5 c 128,-1,5
 298 542 298 542 350 542 c 0,6,7
 396 542 396 542 433.5 517.5 c 128,-1,8
 471 493 471 493 491 449 c 0,9,10
 510 405 510 405 510 321 c 2,11,-1
 510 0 l 1,12,-1
 428 0 l 1,13,-1
 428 319 l 2,14,15
 428 344 428 344 427 359.5 c 128,-1,16
 426 375 426 375 419 397.5 c 128,-1,17
 412 420 412 420 399 436 c 0,18,19
 371 470 371 470 327 470 c 0,20,21
 290 470 290 470 255 446 c 128,-1,22
 220 422 220 422 200 396 c 0,23,24
 174 361 174 361 174 305 c 2,25,-1
 174 0 l 1,26,-1
 89 0 l 1,0,-1
EndSplineSet
EndChar

StartChar: o
Encoding: 111 111 82
Width: 600
GlyphClass: 2
Flags: W
LayerCount: 2
Fore
SplineSet
543 262 m 0,0,1
 543 136 543 136 473.5 61 c 128,-1,2
 404 -14 404 -14 305 -14 c 0,3,4
 203 -14 203 -14 130 64 c 128,-1,5
 57 142 57 142 57 261 c 0,6,7
 57 381 57 381 130.5 461 c 128,-1,8
 204 541 204 541 307 541 c 0,9,10
 353 541 353 541 395 523 c 128,-1,11
 437 505 437 505 470.5 471 c 128,-1,12
 504 437 504 437 523.5 383 c 128,-1,13
 543 329 543 329 543 262 c 0,0,1
302 470 m 0,14,15
 237 470 237 470 191 415.5 c 128,-1,16
 145 361 145 361 145 268 c 0,17,18
 145 173 145 173 192.5 115.5 c 128,-1,19
 240 58 240 58 306 58 c 0,20,21
 368 58 368 58 413.5 111 c 128,-1,22
 459 164 459 164 459 259 c 0,23,24
 459 361 459 361 412 415.5 c 128,-1,25
 365 470 365 470 302 470 c 0,14,15
EndSplineSet
EndChar

StartChar: p
Encoding: 112 112 83
Width: 600
GlyphClass: 2
Flags: W
LayerCount: 2
Fore
SplineSet
79 529 m 1,0,-1
 164 529 l 1,1,-1
 164 448 l 1,2,3
 191 491 191 491 235.5 516 c 128,-1,4
 280 541 280 541 331 541 c 0,5,6
 372 541 372 541 409 524.5 c 128,-1,7
 446 508 446 508 477.5 476.5 c 128,-1,8
 509 445 509 445 527.5 391.5 c 128,-1,9
 546 338 546 338 546 271 c 0,10,11
 546 201 546 201 526.5 145 c 128,-1,12
 507 89 507 89 475 55 c 128,-1,13
 443 21 443 21 404.5 3.5 c 128,-1,14
 366 -14 366 -14 324 -14 c 0,15,16
 276 -14 276 -14 234 8.5 c 128,-1,17
 192 31 192 31 165 70 c 1,18,-1
 165 -193 l 1,19,-1
 80 -193 l 1,20,-1
 79 529 l 1,0,-1
301 470 m 0,21,22
 260 470 260 470 226.5 449 c 128,-1,23
 193 428 193 428 178 393 c 0,24,25
 164 360 164 360 164 289 c 0,26,27
 164 240 164 240 164.5 219.5 c 128,-1,28
 165 199 165 199 168.5 174.5 c 128,-1,29
 172 150 172 150 179 133 c 0,30,31
 194 98 194 98 227.5 79 c 128,-1,32
 261 60 261 60 300 60 c 0,33,34
 318 60 318 60 336 64 c 128,-1,35
 354 68 354 68 377 80.5 c 128,-1,36
 400 93 400 93 417.5 113 c 128,-1,37
 435 133 435 133 447 169.5 c 128,-1,38
 459 206 459 206 459 253 c 0,39,40
 459 308 459 308 447 349.5 c 128,-1,41
 435 391 435 391 417.5 413 c 128,-1,42
 400 435 400 435 376.5 448.5 c 128,-1,43
 353 462 353 462 335.5 466 c 128,-1,44
 318 470 318 470 301 470 c 0,21,22
EndSplineSet
EndChar

StartChar: q
Encoding: 113 113 84
Width: 600
GlyphClass: 2
Flags: W
LayerCount: 2
Fore
SplineSet
443 452 m 2,0,-1
 443 529 l 1,1,-1
 522 529 l 1,2,-1
 522 -193 l 1,3,-1
 439 -193 l 1,4,-1
 439 85 l 1,5,6
 414 41 414 41 370.5 14.5 c 128,-1,7
 327 -12 327 -12 277 -12 c 0,8,9
 186 -12 186 -12 122.5 66 c 128,-1,10
 59 144 59 144 59 270 c 0,11,12
 59 335 59 335 78.5 388 c 128,-1,13
 98 441 98 441 130.5 474 c 128,-1,14
 163 507 163 507 203.5 525 c 128,-1,15
 244 543 244 543 289 543 c 0,16,17
 386 543 386 543 434 468 c 0,18,19
 443 454 443 454 443 452 c 2,0,-1
292 475 m 0,20,21
 232 475 232 475 187.5 426.5 c 128,-1,22
 143 378 143 378 143 282 c 0,23,24
 143 176 143 176 188 119 c 128,-1,25
 233 62 233 62 295 62 c 0,26,27
 338 62 338 62 374 89 c 128,-1,28
 410 116 410 116 425 162 c 0,29,30
 436 196 436 196 436 258 c 0,31,32
 436 349 436 349 423 385 c 0,33,34
 407 430 407 430 369.5 452.5 c 128,-1,35
 332 475 332 475 292 475 c 0,20,21
EndSplineSet
EndChar

StartChar: r
Encoding: 114 114 85
Width: 600
GlyphClass: 2
Flags: W
LayerCount: 2
Fore
SplineSet
125 529 m 1,0,-1
 212 529 l 1,1,-1
 209 427 l 1,2,3
 234 482 234 482 286.5 512 c 128,-1,4
 339 542 339 542 400 542 c 0,5,6
 485 542 485 542 541 484 c 1,7,-1
 502 404 l 1,8,9
 497 409 497 409 490.5 418.5 c 128,-1,10
 484 428 484 428 482 431 c 0,11,12
 459 460 459 460 388 460 c 0,13,14
 300 460 300 460 246 374 c 0,15,16
 208 314 208 314 208 246 c 2,17,-1
 209 -1 l 1,18,-1
 125 -1 l 1,19,-1
 125 529 l 1,0,-1
EndSplineSet
EndChar

StartChar: s
Encoding: 115 115 86
Width: 600
GlyphClass: 2
Flags: W
LayerCount: 2
Fore
SplineSet
511 459 m 1,0,-1
 462 386 l 1,1,2
 456 387 456 387 456 395 c 128,-1,3
 456 403 456 403 453 406 c 0,4,5
 433 433 433 433 395 456 c 128,-1,6
 357 479 357 479 307 479 c 0,7,8
 261 479 261 479 228 458.5 c 128,-1,9
 195 438 195 438 195 407 c 0,10,11
 195 368 195 368 247 342 c 0,12,13
 268 333 268 333 338.5 312 c 128,-1,14
 409 291 409 291 442 273 c 0,15,16
 520 229 520 229 520 153 c 0,17,18
 520 88 520 88 461 38 c 128,-1,19
 402 -12 402 -12 299 -12 c 0,20,21
 166 -12 166 -12 76 72 c 1,22,-1
 124 155 l 1,23,24
 130 152 130 152 129.5 144 c 128,-1,25
 129 136 129 136 132 132 c 0,26,27
 145 118 145 118 162.5 103.5 c 128,-1,28
 180 89 180 89 218.5 73.5 c 128,-1,29
 257 58 257 58 298 58 c 0,30,31
 356 58 356 58 395 81.5 c 128,-1,32
 434 105 434 105 434 142 c 0,33,34
 434 184 434 184 381 209 c 0,35,36
 359 220 359 220 305.5 236.5 c 128,-1,37
 252 253 252 253 239 258 c 0,38,39
 223 264 223 264 214 267.5 c 128,-1,40
 205 271 205 271 182.5 283.5 c 128,-1,41
 160 296 160 296 146.5 309.5 c 128,-1,42
 133 323 133 323 121.5 345.5 c 128,-1,43
 110 368 110 368 110 394 c 0,44,45
 110 455 110 455 167 498.5 c 128,-1,46
 224 542 224 542 313 542 c 0,47,48
 436 542 436 542 511 459 c 1,0,-1
EndSplineSet
EndChar

StartChar: t
Encoding: 116 116 87
Width: 600
GlyphClass: 2
Flags: W
LayerCount: 2
Fore
SplineSet
228 671 m 1,0,-1
 319 686 l 1,1,2
 320 679 320 679 319.5 675.5 c 128,-1,3
 319 672 319 672 316 665.5 c 128,-1,4
 313 659 313 659 312 655 c 0,5,6
 309 636 309 636 304 583 c 2,7,-1
 299 530 l 1,8,-1
 472 530 l 1,9,-1
 472 461 l 1,10,-1
 298 461 l 1,11,12
 288 358 288 358 288 254 c 0,13,14
 288 178 288 178 291 152 c 0,15,16
 297 108 297 108 322 87.5 c 128,-1,17
 347 67 347 67 380 67 c 0,18,19
 434 67 434 67 499 115 c 1,20,-1
 525 49 l 1,21,22
 444 -10 444 -10 356 -10 c 0,23,24
 275 -10 275 -10 235 46 c 0,25,26
 221 66 221 66 213.5 93.5 c 128,-1,27
 206 121 206 121 205 140 c 128,-1,28
 204 159 204 159 204 190 c 0,29,30
 204 326 204 326 215 461 c 1,31,-1
 91 461 l 1,32,-1
 92 529 l 1,33,-1
 218 529 l 1,34,-1
 228 671 l 1,0,-1
EndSplineSet
EndChar

StartChar: u
Encoding: 117 117 88
Width: 600
GlyphClass: 2
Flags: W
LayerCount: 2
Fore
SplineSet
83 529 m 1,0,-1
 167 529 l 1,1,-1
 167 234 l 2,2,3
 167 157 167 157 186 120 c 0,4,5
 201 89 201 89 228 72 c 128,-1,6
 255 55 255 55 287 55 c 0,7,8
 324 55 324 55 357 77 c 128,-1,9
 390 99 390 99 409 133 c 0,10,11
 430 172 430 172 430 238 c 2,12,-1
 430 529 l 1,13,-1
 514 529 l 1,14,-1
 514 48 l 2,15,16
 514 19 514 19 520 0 c 1,17,-1
 432 0 l 1,18,19
 429 16 429 16 430 41 c 2,20,-1
 431 81 l 1,21,22
 405 37 405 37 361 12 c 128,-1,23
 317 -13 317 -13 268 -13 c 0,24,25
 215 -13 215 -13 170.5 15.5 c 128,-1,26
 126 44 126 44 103 95 c 0,27,28
 82 143 82 143 82 234 c 2,29,-1
 83 529 l 1,0,-1
EndSplineSet
EndChar

StartChar: v
Encoding: 118 118 89
Width: 600
GlyphClass: 2
Flags: W
LayerCount: 2
Fore
SplineSet
56 530 m 1,0,-1
 156 530 l 1,1,2
 157 525 157 525 154.5 517.5 c 128,-1,3
 152 510 152 510 152 507 c 256,4,5
 152 504 152 504 154 500 c 2,6,-1
 307 113 l 1,7,-1
 392 310 l 2,8,9
 447 438 447 438 464 530 c 1,10,-1
 539 530 l 1,11,12
 518 434 518 434 460 298 c 2,13,-1
 331 -4 l 1,14,-1
 266 -4 l 1,15,-1
 56 530 l 1,0,-1
EndSplineSet
EndChar

StartChar: w
Encoding: 119 119 90
Width: 600
GlyphClass: 2
Flags: W
LayerCount: 2
Fore
SplineSet
28 530 m 1,0,-1
 113 530 l 1,1,2
 116 522 116 522 111 507 c 0,3,4
 108 497 108 497 110 486 c 2,5,-1
 187 104 l 1,6,-1
 278 480 l 1,7,-1
 329 480 l 1,8,-1
 441 105 l 1,9,10
 474 323 474 323 483 401 c 128,-1,11
 492 479 492 479 490 529 c 1,12,-1
 567 529 l 1,13,14
 533 262 533 262 479 -1 c 1,15,-1
 401 -1 l 1,16,-1
 303 342 l 1,17,-1
 210 -1 l 1,18,-1
 135 -1 l 1,19,-1
 28 530 l 1,0,-1
EndSplineSet
EndChar

StartChar: x
Encoding: 120 120 91
Width: 600
GlyphClass: 2
Flags: W
LayerCount: 2
Fore
SplineSet
430 530 m 1,0,-1
 515 530 l 1,1,-1
 343 272 l 1,2,-1
 538 0 l 1,3,-1
 443 0 l 1,4,-1
 297 206 l 1,5,-1
 159 0 l 1,6,-1
 65 0 l 1,7,-1
 251 269 l 1,8,-1
 68 530 l 1,9,-1
 159 530 l 1,10,-1
 298 334 l 1,11,-1
 430 530 l 1,0,-1
EndSplineSet
EndChar

StartChar: y
Encoding: 121 121 92
Width: 600
GlyphClass: 2
Flags: W
LayerCount: 2
Fore
SplineSet
63 529 m 1,0,-1
 167 529 l 1,1,2
 167 523 167 523 164.5 515.5 c 128,-1,3
 162 508 162 508 162 504 c 128,-1,4
 162 500 162 500 164 495 c 2,5,-1
 319 105 l 1,6,-1
 420 389 l 2,7,8
 450 472 450 472 460 530 c 1,9,-1
 547 530 l 1,10,11
 528 468 528 468 494 377 c 2,12,-1
 329 -60 l 2,13,14
 308 -117 308 -117 283 -144 c 0,15,16
 232 -201 232 -201 151 -201 c 0,17,18
 82 -201 82 -201 36 -157 c 1,19,-1
 79 -82 l 1,20,21
 83 -85 83 -85 85.5 -92.5 c 128,-1,22
 88 -100 88 -100 88 -101 c 0,23,24
 91 -105 91 -105 97 -111.5 c 128,-1,25
 103 -118 103 -118 118 -125.5 c 128,-1,26
 133 -133 133 -133 150 -133 c 0,27,28
 192 -133 192 -133 224 -98 c 0,29,30
 243 -79 243 -79 261 -37 c 2,31,-1
 278 2 l 1,32,-1
 63 529 l 1,0,-1
EndSplineSet
EndChar

StartChar: z
Encoding: 122 122 93
Width: 600
GlyphClass: 2
Flags: W
LayerCount: 2
Fore
SplineSet
92 530 m 1,0,-1
 504 530 l 1,1,-1
 504 473 l 1,2,-1
 181 71 l 1,3,-1
 496 71 l 2,4,5
 504 71 504 71 513.5 75 c 128,-1,6
 523 79 523 79 531 78 c 1,7,-1
 531 -1 l 1,8,-1
 68 -1 l 1,9,-1
 68 56 l 1,10,-1
 396 457 l 1,11,-1
 92 457 l 1,12,-1
 92 530 l 1,0,-1
EndSplineSet
EndChar

StartChar: braceleft
Encoding: 123 123 94
Width: 600
GlyphClass: 2
Flags: W
LayerCount: 2
Fore
SplineSet
71 329 m 1,0,-1
 94 329 l 2,1,2
 147 329 147 329 172 355 c 0,3,4
 202 387 202 387 202 453 c 0,5,6
 202 467 202 467 200.5 494.5 c 128,-1,7
 199 522 199 522 199 536 c 0,8,9
 199 640 199 640 256 692 c 0,10,11
 272 706 272 706 291.5 716 c 128,-1,12
 311 726 311 726 330 730 c 128,-1,13
 349 734 349 734 369.5 736.5 c 128,-1,14
 390 739 390 739 409 738.5 c 128,-1,15
 428 738 428 738 448 738 c 2,16,-1
 483 738 l 1,17,-1
 483 672 l 1,18,-1
 443 672 l 2,19,20
 417 672 417 672 397 672.5 c 128,-1,21
 377 673 377 673 358.5 669.5 c 128,-1,22
 340 666 340 666 326 657 c 0,23,24
 279 628 279 628 279 549 c 0,25,26
 279 536 279 536 281 509 c 128,-1,27
 283 482 283 482 283 468 c 0,28,29
 283 413 283 413 264 375 c 0,30,31
 238 321 238 321 182 297 c 1,32,33
 223 283 223 283 251.5 240.5 c 128,-1,34
 280 198 280 198 280 117 c 0,35,36
 280 98 280 98 278 66 c 128,-1,37
 276 34 276 34 276 20 c 0,38,39
 276 -67 276 -67 324 -100 c 0,40,41
 335 -107 335 -107 348.5 -111.5 c 128,-1,42
 362 -116 362 -116 375.5 -117.5 c 128,-1,43
 389 -119 389 -119 405.5 -119 c 128,-1,44
 422 -119 422 -119 439 -119 c 2,45,-1
 482 -119 l 1,46,-1
 482 -184 l 1,47,-1
 440 -184 l 2,48,49
 418 -184 418 -184 398.5 -184 c 128,-1,50
 379 -184 379 -184 360 -182.5 c 128,-1,51
 341 -181 341 -181 324 -178 c 128,-1,52
 307 -175 307 -175 290.5 -167.5 c 128,-1,53
 274 -160 274 -160 259 -149 c 0,54,55
 194 -100 194 -100 194 19 c 0,56,57
 194 43 194 43 196.5 80.5 c 128,-1,58
 199 118 199 118 199 135 c 0,59,60
 199 211 199 211 168 241 c 0,61,62
 145 264 145 264 95 264 c 2,63,-1
 71 264 l 1,64,-1
 71 329 l 1,0,-1
EndSplineSet
EndChar

StartChar: bar
Encoding: 124 124 95
Width: 600
GlyphClass: 2
Flags: W
LayerCount: 2
Fore
SplineSet
261 756 m 1,0,-1
 339 756 l 1,1,-1
 339 -175 l 1,2,-1
 261 -175 l 1,3,-1
 261 756 l 1,0,-1
EndSplineSet
EndChar

StartChar: braceright
Encoding: 125 125 96
Width: 600
GlyphClass: 2
Flags: W
LayerCount: 2
Fore
SplineSet
529 329 m 1,0,-1
 506 329 l 2,1,2
 453 329 453 329 428 355 c 0,3,4
 398 387 398 387 398 453 c 0,5,6
 398 467 398 467 399.5 494.5 c 128,-1,7
 401 522 401 522 401 536 c 0,8,9
 401 640 401 640 344 692 c 0,10,11
 328 706 328 706 308.5 716 c 128,-1,12
 289 726 289 726 270 730 c 128,-1,13
 251 734 251 734 230.5 736.5 c 128,-1,14
 210 739 210 739 191 738.5 c 128,-1,15
 172 738 172 738 152 738 c 2,16,-1
 117 738 l 1,17,-1
 117 672 l 1,18,-1
 157 672 l 2,19,20
 183 672 183 672 203 672.5 c 128,-1,21
 223 673 223 673 241.5 669.5 c 128,-1,22
 260 666 260 666 274 657 c 0,23,24
 321 628 321 628 321 549 c 0,25,26
 321 536 321 536 319 509 c 128,-1,27
 317 482 317 482 317 468 c 0,28,29
 317 413 317 413 336 375 c 0,30,31
 362 321 362 321 418 297 c 1,32,33
 377 283 377 283 348.5 240.5 c 128,-1,34
 320 198 320 198 320 117 c 0,35,36
 320 98 320 98 322 66 c 128,-1,37
 324 34 324 34 324 20 c 0,38,39
 324 -67 324 -67 276 -100 c 0,40,41
 265 -107 265 -107 251.5 -111.5 c 128,-1,42
 238 -116 238 -116 224.5 -117.5 c 128,-1,43
 211 -119 211 -119 194.5 -119 c 128,-1,44
 178 -119 178 -119 161 -119 c 2,45,-1
 118 -119 l 1,46,-1
 118 -184 l 1,47,-1
 160 -184 l 2,48,49
 182 -184 182 -184 201.5 -184 c 128,-1,50
 221 -184 221 -184 240 -182.5 c 128,-1,51
 259 -181 259 -181 276 -178 c 128,-1,52
 293 -175 293 -175 309.5 -167.5 c 128,-1,53
 326 -160 326 -160 341 -149 c 0,54,55
 406 -100 406 -100 406 19 c 0,56,57
 406 43 406 43 403.5 80.5 c 128,-1,58
 401 118 401 118 401 135 c 0,59,60
 401 211 401 211 432 241 c 0,61,62
 455 264 455 264 505 264 c 2,63,-1
 529 264 l 1,64,-1
 529 329 l 1,0,-1
EndSplineSet
EndChar

StartChar: asciitilde
Encoding: 126 126 97
Width: 600
GlyphClass: 2
Flags: W
LayerCount: 2
Fore
SplineSet
116 396 m 1,0,-1
 58 434 l 1,1,2
 85 480 85 480 127.5 509 c 128,-1,3
 170 538 170 538 217 538 c 0,4,5
 249 538 249 538 278 524.5 c 128,-1,6
 307 511 307 511 324.5 494.5 c 128,-1,7
 342 478 342 478 365 464.5 c 128,-1,8
 388 451 388 451 409 451 c 0,9,10
 436 451 436 451 458 469.5 c 128,-1,11
 480 488 480 488 508 526 c 1,12,-1
 561 482 l 1,13,14
 533 439 533 439 491.5 407 c 128,-1,15
 450 375 450 375 401 375 c 0,16,17
 369 375 369 375 341.5 389.5 c 128,-1,18
 314 404 314 404 297.5 421.5 c 128,-1,19
 281 439 281 439 258.5 453.5 c 128,-1,20
 236 468 236 468 212 468 c 0,21,22
 160 468 160 468 116 396 c 1,0,-1
EndSplineSet
EndChar

StartChar: exclamdown
Encoding: 161 161 99
Width: 600
GlyphClass: 2
Flags: W
LayerCount: 2
Fore
SplineSet
219 705.5 m 128,-1,1
 219 734 219 734 239 754 c 128,-1,2
 259 774 259 774 287.5 774 c 128,-1,3
 316 774 316 774 336 754 c 128,-1,4
 356 734 356 734 356 705.5 c 128,-1,5
 356 677 356 677 336 657 c 128,-1,6
 316 637 316 637 287.5 637 c 128,-1,7
 259 637 259 637 239 657 c 128,-1,0
 219 677 219 677 219 705.5 c 128,-1,1
286 -13 m 0,8,9
 268 -13 268 -13 252.5 -0.5 c 128,-1,10
 237 12 237 12 231 37 c 0,11,12
 226 54 226 54 226 84 c 0,13,14
 226 109 226 109 231 156 c 128,-1,15
 236 203 236 203 237 216 c 2,16,-1
 258 536 l 1,17,-1
 316 536 l 1,18,-1
 333 216 l 2,19,20
 335 177 335 177 339.5 135 c 128,-1,21
 344 93 344 93 344 74 c 0,22,23
 344 43 344 43 336 24 c 0,24,25
 321 -13 321 -13 286 -13 c 0,8,9
EndSplineSet
EndChar

StartChar: cent
Encoding: 162 162 100
Width: 600
GlyphClass: 2
Flags: W
LayerCount: 2
Fore
SplineSet
340 723 m 1,0,-1
 418 715 l 1,1,2
 419 708 419 708 414 699 c 128,-1,3
 409 690 409 690 408 683 c 2,4,-1
 395 588 l 1,5,6
 486 570 486 570 533 498 c 1,7,-1
 482 432 l 1,8,9
 477 436 477 436 477 444 c 0,10,11
 477 457 477 457 473 462 c 0,12,13
 440 501 440 501 386 518 c 1,14,-1
 333 112 l 1,15,16
 422 112 422 112 485 177 c 1,17,-1
 527 121 l 1,18,19
 451 38 451 38 332 38 c 0,20,21
 327 38 327 38 323 38 c 2,22,-1
 306 -91 l 1,23,-1
 239 -83 l 1,24,-1
 255 48 l 1,25,26
 169 72 169 72 117.5 144 c 128,-1,27
 66 216 66 216 66 316 c 0,28,29
 66 433 66 433 137 510 c 128,-1,30
 208 587 208 587 324 593 c 1,31,-1
 340 723 l 1,0,-1
265 125 m 1,32,-1
 315 526 l 1,33,34
 242 521 242 521 195 468 c 128,-1,35
 148 415 148 415 148 327 c 0,36,37
 148 252 148 252 179.5 199 c 128,-1,38
 211 146 211 146 265 125 c 1,32,-1
EndSplineSet
EndChar

StartChar: sterling
Encoding: 163 163 101
Width: 600
GlyphClass: 2
Flags: W
LayerCount: 2
Fore
SplineSet
494 663 m 1,0,-1
 443 599 l 1,1,2
 438 603 438 603 434 611.5 c 128,-1,3
 430 620 430 620 428 623 c 0,4,5
 423 627 423 627 414 634 c 128,-1,6
 405 641 405 641 384 648.5 c 128,-1,7
 363 656 363 656 341 656 c 0,8,9
 291 656 291 656 254.5 618.5 c 128,-1,10
 218 581 218 581 218 513 c 0,11,12
 218 482 218 482 227 438 c 1,13,-1
 342 438 l 1,14,-1
 342 372 l 1,15,-1
 243 372 l 1,16,17
 259 305 259 305 259 259 c 0,18,19
 259 173 259 173 216 104 c 1,20,21
 231 107 231 107 247 107 c 0,22,23
 287 107 287 107 347 83 c 128,-1,24
 407 59 407 59 438 59 c 0,25,26
 487 59 487 59 524 91 c 1,27,-1
 555 31 l 1,28,29
 494 -17 494 -17 434 -17 c 0,30,31
 398 -17 398 -17 334.5 9 c 128,-1,32
 271 35 271 35 228 35 c 0,33,34
 168 35 168 35 85 -9 c 1,35,-1
 55 57 l 1,36,37
 88 72 88 72 99 77.5 c 128,-1,38
 110 83 110 83 121 92.5 c 128,-1,39
 132 102 132 102 141 116 c 0,40,41
 181 178 181 178 181 257 c 0,42,43
 181 301 181 301 164 372 c 1,44,-1
 88 372 l 1,45,-1
 88 438 l 1,46,-1
 148 438 l 1,47,48
 140 479 140 479 140 512 c 0,49,50
 140 606 140 606 199.5 664 c 128,-1,51
 259 722 259 722 343 722 c 0,52,53
 430 722 430 722 494 663 c 1,0,-1
EndSplineSet
EndChar

StartChar: currency
Encoding: 164 164 102
Width: 600
GlyphClass: 2
Flags: W
LayerCount: 2
Fore
SplineSet
301 516 m 128,-1,1
 253 516 253 516 218.5 482 c 128,-1,2
 184 448 184 448 184 400 c 128,-1,3
 184 352 184 352 218.5 318 c 128,-1,4
 253 284 253 284 301 284 c 128,-1,5
 349 284 349 284 383 318 c 128,-1,6
 417 352 417 352 417 400 c 128,-1,7
 417 448 417 448 383 482 c 128,-1,0
 349 516 349 516 301 516 c 128,-1,1
89 570 m 1,8,-1
 130 611 l 1,9,-1
 195 546 l 1,10,11
 243 580 243 580 301 580 c 0,12,13
 358 580 358 580 405 547 c 1,14,-1
 469 611 l 1,15,-1
 510 570 l 1,16,-1
 446 506 l 1,17,18
 481 458 481 458 481 400 c 256,19,20
 481 342 481 342 447 295 c 1,21,-1
 510 231 l 1,22,-1
 469 190 l 1,23,-1
 405 254 l 1,24,25
 358 220 358 220 301 220 c 0,26,27
 242 220 242 220 195 255 c 1,28,-1
 130 190 l 1,29,-1
 89 231 l 1,30,-1
 154 296 l 1,31,32
 121 343 121 343 121 400 c 256,33,34
 121 457 121 457 154 504 c 1,35,-1
 89 570 l 1,8,-1
EndSplineSet
EndChar

StartChar: yen
Encoding: 165 165 103
Width: 600
GlyphClass: 2
Flags: W
LayerCount: 2
Fore
SplineSet
52 723 m 1,0,-1
 142 723 l 1,1,-1
 310 421 l 1,2,-1
 464 722 l 1,3,-1
 550 722 l 1,4,-1
 348 342 l 1,5,-1
 348 318 l 1,6,-1
 504 318 l 1,7,-1
 504 252 l 1,8,-1
 348 252 l 1,9,-1
 348 179 l 1,10,-1
 504 179 l 1,11,-1
 504 114 l 1,12,-1
 348 114 l 1,13,-1
 348 0 l 1,14,-1
 269 0 l 1,15,-1
 269 114 l 1,16,-1
 107 114 l 1,17,-1
 107 179 l 1,18,-1
 269 179 l 1,19,-1
 269 252 l 1,20,-1
 107 252 l 1,21,-1
 107 318 l 1,22,-1
 269 318 l 1,23,-1
 269 342 l 1,24,-1
 52 723 l 1,0,-1
EndSplineSet
EndChar

StartChar: brokenbar
Encoding: 166 166 104
Width: 600
GlyphClass: 2
Flags: W
LayerCount: 2
Fore
SplineSet
261 756 m 1,0,-1
 339 756 l 1,1,-1
 339 342 l 1,2,-1
 261 342 l 1,3,-1
 261 756 l 1,0,-1
339 -175 m 1,4,-1
 261 -175 l 1,5,-1
 261 227 l 1,6,-1
 339 227 l 1,7,-1
 339 -175 l 1,4,-1
EndSplineSet
EndChar

StartChar: section
Encoding: 167 167 105
Width: 600
GlyphClass: 2
Flags: W
LayerCount: 2
Fore
SplineSet
488 676 m 1,0,-1
 423 618 l 1,1,2
 419 621 419 621 417.5 625 c 128,-1,3
 416 629 416 629 415.5 634 c 128,-1,4
 415 639 415 639 414 642 c 0,5,6
 405 667 405 667 377.5 688.5 c 128,-1,7
 350 710 350 710 308 710 c 0,8,9
 263 710 263 710 233 684 c 128,-1,10
 203 658 203 658 203 621 c 0,11,12
 203 567 203 567 264 535 c 0,13,14
 281 526 281 526 322.5 511 c 128,-1,15
 364 496 364 496 388 485 c 0,16,17
 444 458 444 458 469 423.5 c 128,-1,18
 494 389 494 389 494 354 c 0,19,20
 494 318 494 318 470.5 288 c 128,-1,21
 447 258 447 258 409 242 c 1,22,23
 445 217 445 217 464 181.5 c 128,-1,24
 483 146 483 146 483 107 c 0,25,26
 483 38 483 38 427.5 -12.5 c 128,-1,27
 372 -63 372 -63 286 -63 c 0,28,29
 227 -63 227 -63 174 -37 c 128,-1,30
 121 -11 121 -11 85 36 c 1,31,-1
 146 107 l 1,32,33
 150 105 150 105 151.5 102 c 128,-1,34
 153 99 153 99 154 94 c 128,-1,35
 155 89 155 89 156 87 c 0,36,37
 158 81 158 81 166 71 c 128,-1,38
 174 61 174 61 189 47 c 128,-1,39
 204 33 204 33 230 23.5 c 128,-1,40
 256 14 256 14 286 14 c 0,41,42
 337 14 337 14 368.5 40.5 c 128,-1,43
 400 67 400 67 400 105 c 0,44,45
 400 156 400 156 347 187 c 0,46,47
 324 201 324 201 264.5 218.5 c 128,-1,48
 205 236 205 236 175 254 c 0,49,50
 102 298 102 298 102 366 c 0,51,52
 102 405 102 405 128 436.5 c 128,-1,53
 154 468 154 468 196 483 c 1,54,55
 157 507 157 507 138 542 c 128,-1,56
 119 577 119 577 119 614 c 0,57,58
 119 681 119 681 173.5 729.5 c 128,-1,59
 228 778 228 778 308 778 c 0,60,61
 365 778 365 778 413 750.5 c 128,-1,62
 461 723 461 723 488 676 c 1,0,-1
239 462 m 1,63,64
 215 454 215 454 200.5 434 c 128,-1,65
 186 414 186 414 186 389 c 0,66,67
 186 334 186 334 248 304 c 0,68,69
 267 295 267 295 307 283.5 c 128,-1,70
 347 272 347 272 365 265 c 1,71,72
 384 274 384 274 395.5 292.5 c 128,-1,73
 407 311 407 311 407 334 c 0,74,75
 407 392 407 392 340 425 c 0,76,77
 324 433 324 433 288.5 444.5 c 128,-1,78
 253 456 253 456 239 462 c 1,63,64
EndSplineSet
EndChar

StartChar: dieresis
Encoding: 168 168 106
Width: 600
GlyphClass: 2
Flags: W
LayerCount: 2
Fore
SplineSet
257 711.5 m 128,-1,1
 257 687 257 687 240 670 c 128,-1,2
 223 653 223 653 198.5 653 c 128,-1,3
 174 653 174 653 157 670 c 128,-1,4
 140 687 140 687 140 711.5 c 128,-1,5
 140 736 140 736 157 753 c 128,-1,6
 174 770 174 770 198.5 770 c 128,-1,7
 223 770 223 770 240 753 c 128,-1,0
 257 736 257 736 257 711.5 c 128,-1,1
463 711.5 m 128,-1,9
 463 687 463 687 446 670 c 128,-1,10
 429 653 429 653 405 653 c 128,-1,11
 381 653 381 653 364 670 c 128,-1,12
 347 687 347 687 347 711.5 c 128,-1,13
 347 736 347 736 364 753 c 128,-1,14
 381 770 381 770 405 770 c 128,-1,15
 429 770 429 770 446 753 c 128,-1,8
 463 736 463 736 463 711.5 c 128,-1,9
EndSplineSet
EndChar

StartChar: copyright
Encoding: 169 169 107
Width: 600
GlyphClass: 2
Flags: W
LayerCount: 2
Fore
SplineSet
314 491 m 0,0,1
 367 491 367 491 407 461 c 128,-1,2
 447 431 447 431 458 384 c 1,3,-1
 398 361 l 1,4,5
 394 366 394 366 394 374.5 c 128,-1,6
 394 383 394 383 394 385 c 0,7,8
 392 389 392 389 388 396 c 128,-1,9
 384 403 384 403 375.5 412 c 128,-1,10
 367 421 367 421 351.5 427 c 128,-1,11
 336 433 336 433 316 433 c 0,12,13
 272 433 272 433 240 405.5 c 128,-1,14
 208 378 208 378 208 327 c 0,15,16
 208 275 208 275 240 238.5 c 128,-1,17
 272 202 272 202 317 202 c 0,18,19
 344 202 344 202 367.5 216 c 128,-1,20
 391 230 391 230 404 254 c 1,21,-1
 455 220 l 1,22,23
 431 183 431 183 393 162 c 128,-1,24
 355 141 355 141 312 141 c 0,25,26
 242 141 242 141 192.5 193.5 c 128,-1,27
 143 246 143 246 143 319 c 0,28,29
 143 393 143 393 193 442 c 128,-1,30
 243 491 243 491 314 491 c 0,0,1
306.5 22 m 128,-1,32
 191 22 191 22 108.5 108 c 128,-1,33
 26 194 26 194 26 317 c 0,34,35
 26 441 26 441 108.5 527.5 c 128,-1,36
 191 614 191 614 307 614 c 0,37,38
 422 614 422 614 504.5 528 c 128,-1,39
 587 442 587 442 587 318 c 0,40,41
 587 195 587 195 504.5 108.5 c 128,-1,31
 422 22 422 22 306.5 22 c 128,-1,32
79 318 m 256,42,43
 79 215 79 215 146.5 143.5 c 128,-1,44
 214 72 214 72 308 72 c 128,-1,45
 402 72 402 72 469.5 143.5 c 128,-1,46
 537 215 537 215 537 319 c 0,47,48
 537 422 537 422 469.5 493.5 c 128,-1,49
 402 565 402 565 308 565 c 128,-1,50
 214 565 214 565 146.5 493 c 128,-1,51
 79 421 79 421 79 318 c 256,42,43
EndSplineSet
EndChar

StartChar: ordfeminine
Encoding: 170 170 108
Width: 600
GlyphClass: 2
Flags: W
LayerCount: 2
Fore
SplineSet
152 656 m 1,0,1
 209 721 209 721 308 721 c 0,2,3
 356 721 356 721 393 701.5 c 128,-1,4
 430 682 430 682 448 645 c 0,5,6
 461 616 461 616 461 562 c 2,7,-1
 461 309 l 1,8,-1
 388 309 l 1,9,-1
 388 348 l 1,10,11
 335 298 335 298 264 298 c 0,12,13
 205 298 205 298 166.5 333.5 c 128,-1,14
 128 369 128 369 128 419 c 0,15,16
 128 450 128 450 145.5 479 c 128,-1,17
 163 508 163 508 197 526 c 0,18,19
 212 534 212 534 229.5 539.5 c 128,-1,20
 247 545 247 545 264 547 c 128,-1,21
 281 549 281 549 299.5 550 c 128,-1,22
 318 551 318 551 335 551 c 128,-1,23
 352 551 352 551 370 551 c 2,24,-1
 387 551 l 1,25,-1
 387 565 l 2,26,27
 387 605 387 605 374 625 c 0,28,29
 352 659 352 659 301 659 c 0,30,31
 229 659 229 659 192 608 c 1,32,-1
 152 656 l 1,0,1
390 491 m 1,33,-1
 371 491 l 2,34,35
 290 491 290 491 272 488 c 0,36,37
 236 481 236 481 219.5 462.5 c 128,-1,38
 203 444 203 444 203 422 c 0,39,40
 203 397 203 397 223 379 c 128,-1,41
 243 361 243 361 276 361 c 0,42,43
 325 361 325 361 364 397 c 0,44,45
 381 413 381 413 385.5 429 c 128,-1,46
 390 445 390 445 390 471 c 2,47,-1
 390 491 l 1,33,-1
98 239 m 1,48,-1
 503 239 l 1,49,-1
 503 176 l 1,50,-1
 98 176 l 1,51,-1
 98 239 l 1,48,-1
EndSplineSet
EndChar

StartChar: guillemotleft
Encoding: 171 171 109
Width: 600
GlyphClass: 2
Flags: W
LayerCount: 2
Fore
SplineSet
298 293 m 1,0,-1
 474 464 l 1,1,-1
 519 416 l 1,2,-1
 379 279 l 1,3,-1
 527 117 l 1,4,-1
 481 71 l 1,5,-1
 298 266 l 1,6,-1
 298 293 l 1,0,-1
88 293 m 1,7,-1
 264 464 l 1,8,-1
 309 416 l 1,9,-1
 169 279 l 1,10,-1
 317 117 l 1,11,-1
 271 71 l 1,12,-1
 88 266 l 1,13,-1
 88 293 l 1,7,-1
EndSplineSet
EndChar

StartChar: logicalnot
Encoding: 172 172 110
Width: 600
GlyphClass: 2
Flags: W
LayerCount: 2
Fore
SplineSet
116 402 m 1,0,-1
 490 402 l 1,1,-1
 490 182 l 1,2,-1
 416 182 l 1,3,-1
 416 329 l 1,4,-1
 116 329 l 1,5,-1
 116 402 l 1,0,-1
EndSplineSet
EndChar

StartChar: softhyphen
Encoding: 173 173 111
Width: 600
GlyphClass: 2
Flags: W
LayerCount: 2
Fore
SplineSet
92 408 m 1,0,-1
 509 408 l 1,1,-1
 509 331 l 1,2,-1
 92 331 l 1,3,-1
 92 408 l 1,0,-1
EndSplineSet
EndChar

StartChar: registered
Encoding: 174 174 112
Width: 600
GlyphClass: 2
Flags: W
LayerCount: 2
Fore
SplineSet
306.5 22 m 128,-1,1
 191 22 191 22 108.5 108 c 128,-1,2
 26 194 26 194 26 317 c 0,3,4
 26 441 26 441 108.5 527.5 c 128,-1,5
 191 614 191 614 307 614 c 0,6,7
 422 614 422 614 504.5 528 c 128,-1,8
 587 442 587 442 587 318 c 0,9,10
 587 195 587 195 504.5 108.5 c 128,-1,0
 422 22 422 22 306.5 22 c 128,-1,1
79 318 m 256,11,12
 79 215 79 215 146.5 143.5 c 128,-1,13
 214 72 214 72 308 72 c 128,-1,14
 402 72 402 72 469.5 143.5 c 128,-1,15
 537 215 537 215 537 319 c 0,16,17
 537 422 537 422 469.5 493.5 c 128,-1,18
 402 565 402 565 308 565 c 128,-1,19
 214 565 214 565 146.5 493 c 128,-1,20
 79 421 79 421 79 318 c 256,11,12
190 154 m 1,21,-1
 190 492 l 1,22,-1
 299 492 l 2,23,24
 352 492 352 492 379 481 c 0,25,26
 407 468 407 468 423 444.5 c 128,-1,27
 439 421 439 421 439 394 c 0,28,29
 439 363 439 363 420 338 c 128,-1,30
 401 313 401 313 371 305 c 1,31,-1
 446 160 l 1,32,-1
 391 152 l 1,33,-1
 319 297 l 1,34,-1
 243 297 l 1,35,-1
 243 154 l 1,36,-1
 190 154 l 1,21,-1
243 445 m 1,37,-1
 243 343 l 1,38,-1
 303 343 l 2,39,40
 345 343 345 343 363 355 c 0,41,42
 386 369 386 369 386 394 c 0,43,44
 386 420 386 420 360 435 c 0,45,46
 342 445 342 445 300 445 c 2,47,-1
 243 445 l 1,37,-1
EndSplineSet
EndChar

StartChar: macron
Encoding: 175 175 113
Width: 600
GlyphClass: 2
Flags: W
LayerCount: 2
Fore
SplineSet
153 720 m 1,0,-1
 447 720 l 1,1,-1
 447 655 l 1,2,-1
 153 655 l 1,3,-1
 153 720 l 1,0,-1
EndSplineSet
EndChar

StartChar: degree
Encoding: 176 176 114
Width: 600
GlyphClass: 2
Flags: W
LayerCount: 2
Fore
SplineSet
463 584.5 m 128,-1,1
 463 520 463 520 417 474.5 c 128,-1,2
 371 429 371 429 306.5 429 c 128,-1,3
 242 429 242 429 196 474.5 c 128,-1,4
 150 520 150 520 150 584.5 c 128,-1,5
 150 649 150 649 196 694.5 c 128,-1,6
 242 740 242 740 306.5 740 c 128,-1,7
 371 740 371 740 417 694.5 c 128,-1,0
 463 649 463 649 463 584.5 c 128,-1,1
307.5 679 m 128,-1,9
 272 679 272 679 246.5 652 c 128,-1,10
 221 625 221 625 221 586 c 128,-1,11
 221 547 221 547 246.5 520 c 128,-1,12
 272 493 272 493 307.5 493 c 128,-1,13
 343 493 343 493 368.5 520 c 128,-1,14
 394 547 394 547 394 586 c 256,15,16
 394 625 394 625 368.5 652 c 128,-1,8
 343 679 343 679 307.5 679 c 128,-1,9
EndSplineSet
EndChar

StartChar: plusminus
Encoding: 177 177 115
Width: 600
GlyphClass: 2
Flags: W
LayerCount: 2
Fore
SplineSet
63 93 m 1,0,-1
 540 93 l 1,1,-1
 540 20 l 1,2,-1
 63 20 l 1,3,-1
 63 93 l 1,0,-1
267 666 m 1,4,-1
 340 666 l 1,5,-1
 340 468 l 1,6,-1
 538 468 l 1,7,-1
 538 397 l 1,8,-1
 340 397 l 1,9,-1
 340 180 l 1,10,-1
 267 180 l 1,11,-1
 267 397 l 1,12,-1
 62 397 l 1,13,-1
 62 468 l 1,14,-1
 267 468 l 1,15,-1
 267 666 l 1,4,-1
EndSplineSet
EndChar

StartChar: uni00B2
Encoding: 178 178 116
Width: 600
GlyphClass: 2
Flags: W
LayerCount: 2
Fore
SplineSet
139 642 m 1,0,1
 165 687 165 687 210.5 712.5 c 128,-1,2
 256 738 256 738 309 738 c 0,3,4
 377 738 377 738 420.5 700 c 128,-1,5
 464 662 464 662 464 609 c 0,6,7
 464 551 464 551 410 501 c 0,8,9
 398 489 398 489 335.5 443.5 c 128,-1,10
 273 398 273 398 235 356 c 1,11,-1
 446 356 l 2,12,13
 453 356 453 356 458 361 c 0,14,15
 467 368 467 368 474 366 c 1,16,-1
 474 293 l 1,17,-1
 150 293 l 1,18,-1
 150 344 l 1,19,20
 172 375 172 375 202.5 406 c 128,-1,21
 233 437 233 437 252 453 c 128,-1,22
 271 469 271 469 301.5 492.5 c 128,-1,23
 332 516 332 516 334 518 c 0,24,25
 394 567 394 567 394 608 c 0,26,27
 394 637 394 637 370.5 658 c 128,-1,28
 347 679 347 679 307 679 c 0,29,30
 275 679 275 679 248 665 c 128,-1,31
 221 651 221 651 204 630 c 0,32,33
 201 626 201 626 198 618 c 128,-1,34
 195 610 195 610 193 606 c 1,35,-1
 139 642 l 1,0,1
EndSplineSet
EndChar

StartChar: uni00B3
Encoding: 179 179 117
Width: 600
GlyphClass: 2
Flags: W
LayerCount: 2
Fore
SplineSet
309 739 m 0,0,1
 372 739 372 739 416 702 c 128,-1,2
 460 665 460 665 460 615 c 0,3,4
 460 583 460 583 442 558 c 128,-1,5
 424 533 424 533 395 524 c 1,6,7
 432 517 432 517 456 489 c 128,-1,8
 480 461 480 461 480 425 c 0,9,10
 480 369 480 369 427.5 330 c 128,-1,11
 375 291 375 291 305 291 c 0,12,13
 258 291 258 291 214.5 310.5 c 128,-1,14
 171 330 171 330 140 366 c 1,15,-1
 194 426 l 1,16,17
 199 421 199 421 202 410 c 128,-1,18
 205 399 205 399 210 394 c 0,19,20
 249 356 249 356 306 356 c 0,21,22
 349 356 349 356 378.5 378 c 128,-1,23
 408 400 408 400 408 431 c 0,24,25
 408 441 408 441 404.5 450.5 c 128,-1,26
 401 460 401 460 391 471 c 128,-1,27
 381 482 381 482 359.5 488.5 c 128,-1,28
 338 495 338 495 307 495 c 0,29,30
 289 495 289 495 272 493 c 1,31,-1
 272 551 l 1,32,33
 284 550 284 550 295 550 c 0,34,35
 347 550 347 550 369.5 567.5 c 128,-1,36
 392 585 392 585 392 610 c 0,37,38
 392 637 392 637 367.5 657.5 c 128,-1,39
 343 678 343 678 305 678 c 0,40,41
 275 678 275 678 246.5 664 c 128,-1,42
 218 650 218 650 197 624 c 1,43,-1
 155 667 l 1,44,45
 184 701 184 701 224.5 720 c 128,-1,46
 265 739 265 739 309 739 c 0,0,1
EndSplineSet
EndChar

StartChar: acute
Encoding: 180 180 118
Width: 600
GlyphClass: 2
Flags: W
LayerCount: 2
Fore
SplineSet
348 810 m 1,0,-1
 421 761 l 1,1,-1
 304 605 l 1,2,-1
 246 640 l 1,3,-1
 348 810 l 1,0,-1
EndSplineSet
EndChar

StartChar: micro
Encoding: 181 181 119
Width: 600
GlyphClass: 2
Flags: W
LayerCount: 2
Fore
SplineSet
38 -193 m 1,0,1
 38 -129 38 -129 49.5 14.5 c 128,-1,2
 61 158 61 158 61 234 c 2,3,-1
 61 529 l 1,4,-1
 137 529 l 1,5,-1
 137 215 l 2,6,7
 137 150 137 150 154 115 c 0,8,9
 169 84 169 84 194.5 67 c 128,-1,10
 220 50 220 50 249 50 c 0,11,12
 280 50 280 50 308.5 70.5 c 128,-1,13
 337 91 337 91 352 126 c 0,14,15
 367 160 367 160 367 222 c 2,16,-1
 367 529 l 1,17,-1
 441 529 l 1,18,-1
 441 134 l 2,19,20
 441 95 441 95 451 78 c 0,21,22
 464 55 464 55 487 55 c 0,23,24
 512 55 512 55 531.5 80 c 128,-1,25
 551 105 551 105 551 111 c 2,26,-1
 582 52 l 1,27,28
 564 24 564 24 537.5 6 c 128,-1,29
 511 -12 511 -12 480 -12 c 0,30,31
 444 -12 444 -12 417 14 c 128,-1,32
 390 40 390 40 385 78 c 1,33,34
 365 36 365 36 326.5 11.5 c 128,-1,35
 288 -13 288 -13 243 -13 c 0,36,37
 200 -13 200 -13 164.5 9.5 c 128,-1,38
 129 32 129 32 111 70 c 1,39,40
 111 -61 111 -61 110 -193 c 1,41,-1
 38 -193 l 1,0,1
EndSplineSet
EndChar

StartChar: paragraph
Encoding: 182 182 120
Width: 600
GlyphClass: 2
Flags: W
LayerCount: 2
Fore
SplineSet
515 771 m 1,0,-1
 515 -79 l 1,1,-1
 448 -79 l 1,2,-1
 448 705 l 1,3,-1
 360 705 l 1,4,-1
 360 -79 l 1,5,-1
 291 -79 l 1,6,-1
 291 373 l 1,7,8
 203 379 203 379 143.5 437.5 c 128,-1,9
 84 496 84 496 84 575 c 0,10,11
 84 629 84 629 115 675.5 c 128,-1,12
 146 722 146 722 203 747 c 0,13,14
 229 758 229 758 261 763.5 c 128,-1,15
 293 769 293 769 313.5 770 c 128,-1,16
 334 771 334 771 370 771 c 2,17,-1
 515 771 l 1,0,-1
EndSplineSet
EndChar

StartChar: periodcentered
Encoding: 183 183 121
Width: 600
GlyphClass: 2
Flags: W
LayerCount: 2
Fore
SplineSet
355 383.5 m 128,-1,1
 355 356 355 356 335 336.5 c 128,-1,2
 315 317 315 317 286.5 317 c 128,-1,3
 258 317 258 317 238 336.5 c 128,-1,4
 218 356 218 356 218 383.5 c 128,-1,5
 218 411 218 411 238 430.5 c 128,-1,6
 258 450 258 450 286.5 450 c 128,-1,7
 315 450 315 450 335 430.5 c 128,-1,0
 355 411 355 411 355 383.5 c 128,-1,1
EndSplineSet
EndChar

StartChar: cedilla
Encoding: 184 184 122
Width: 600
GlyphClass: 2
Flags: W
LayerCount: 2
Fore
SplineSet
313 0 m 1,0,-1
 363 0 l 1,1,-1
 357 -55 l 1,2,-1
 376 -56 l 2,3,4
 406 -58 406 -58 421 -65 c 0,5,6
 455 -82 455 -82 455 -119 c 0,7,8
 455 -153 455 -153 422 -179 c 128,-1,9
 389 -205 389 -205 329 -205 c 0,10,11
 253 -205 253 -205 192 -162 c 1,12,-1
 221 -114 l 1,13,14
 272 -155 272 -155 336 -155 c 0,15,16
 366 -155 366 -155 377.5 -146 c 128,-1,17
 389 -137 389 -137 389 -127 c 0,18,19
 389 -114 389 -114 376 -107 c 0,20,21
 364 -99 364 -99 334 -99 c 2,22,-1
 300 -99 l 1,23,-1
 313 0 l 1,0,-1
EndSplineSet
EndChar

StartChar: uni00B9
Encoding: 185 185 123
Width: 600
GlyphClass: 2
Flags: W
LayerCount: 2
Fore
SplineSet
356 733 m 1,0,-1
 356 293 l 1,1,-1
 282 293 l 1,2,-1
 282 641 l 1,3,-1
 170 612 l 1,4,-1
 151 648 l 1,5,-1
 306 733 l 1,6,-1
 356 733 l 1,0,-1
EndSplineSet
EndChar

StartChar: ordmasculine
Encoding: 186 186 124
Width: 600
GlyphClass: 2
Flags: W
LayerCount: 2
Fore
SplineSet
302 721 m 0,0,1
 370 721 370 721 420 667 c 128,-1,2
 470 613 470 613 470 515 c 0,3,4
 470 461 470 461 454.5 418 c 128,-1,5
 439 375 439 375 414 349.5 c 128,-1,6
 389 324 389 324 358 310.5 c 128,-1,7
 327 297 327 297 295 297 c 0,8,9
 223 297 223 297 172 353 c 128,-1,10
 121 409 121 409 121 501 c 0,11,12
 121 598 121 598 174 659.5 c 128,-1,13
 227 721 227 721 302 721 c 0,0,1
191 506 m 0,14,15
 191 438 191 438 222.5 401 c 128,-1,16
 254 364 254 364 296 364 c 256,17,18
 338 364 338 364 369.5 400.5 c 128,-1,19
 401 437 401 437 401 506 c 0,20,21
 401 577 401 577 370 616.5 c 128,-1,22
 339 656 339 656 296 656 c 128,-1,23
 253 656 253 656 222 616.5 c 128,-1,24
 191 577 191 577 191 506 c 0,14,15
98 239 m 1,25,-1
 503 239 l 1,26,-1
 503 176 l 1,27,-1
 98 176 l 1,28,-1
 98 239 l 1,25,-1
EndSplineSet
EndChar

StartChar: guillemotright
Encoding: 187 187 125
Width: 600
GlyphClass: 2
Flags: W
LayerCount: 2
Fore
SplineSet
317 293 m 1,0,-1
 141 464 l 1,1,-1
 96 416 l 1,2,-1
 236 279 l 1,3,-1
 88 117 l 1,4,-1
 134 71 l 1,5,-1
 317 266 l 1,6,-1
 317 293 l 1,0,-1
527 293 m 1,7,-1
 351 464 l 1,8,-1
 306 416 l 1,9,-1
 446 279 l 1,10,-1
 298 117 l 1,11,-1
 344 71 l 1,12,-1
 527 266 l 1,13,-1
 527 293 l 1,7,-1
EndSplineSet
EndChar

StartChar: onequarter
Encoding: 188 188 126
Width: 600
GlyphClass: 2
Flags: W
LayerCount: 2
Fore
SplineSet
98 -19 m 1,0,-1
 461 770 l 1,1,-1
 516 739 l 1,2,-1
 152 -49 l 1,3,-1
 98 -19 l 1,0,-1
467 280 m 1,4,-1
 503 280 l 1,5,-1
 503 53 l 1,6,-1
 561 53 l 1,7,-1
 561 9 l 1,8,-1
 503 9 l 1,9,-1
 503 -81 l 1,10,-1
 450 -81 l 1,11,-1
 450 10 l 1,12,-1
 281 10 l 1,13,-1
 281 42 l 1,14,-1
 467 280 l 1,4,-1
451 190 m 1,15,-1
 342 53 l 1,16,-1
 451 53 l 1,17,-1
 451 190 l 1,15,-1
177 785 m 1,18,-1
 177 433 l 1,19,-1
 118 433 l 1,20,-1
 118 711 l 1,21,-1
 29 688 l 1,22,-1
 13 717 l 1,23,-1
 137 785 l 1,24,-1
 177 785 l 1,18,-1
EndSplineSet
EndChar

StartChar: onehalf
Encoding: 189 189 127
Width: 600
GlyphClass: 2
Flags: W
LayerCount: 2
Fore
SplineSet
98 -19 m 1,0,-1
 461 770 l 1,1,-1
 516 739 l 1,2,-1
 152 -49 l 1,3,-1
 98 -19 l 1,0,-1
312 195 m 1,4,5
 333 231 333 231 369.5 251.5 c 128,-1,6
 406 272 406 272 449 272 c 0,7,8
 503 272 503 272 538 241.5 c 128,-1,9
 573 211 573 211 573 168 c 0,10,11
 573 122 573 122 529 82 c 0,12,13
 519 73 519 73 469 36.5 c 128,-1,14
 419 0 419 0 389 -34 c 1,15,-1
 558 -34 l 2,16,17
 564 -34 564 -34 568 -30 c 0,18,19
 575 -24 575 -24 580 -26 c 1,20,-1
 580 -84 l 1,21,-1
 321 -84 l 1,22,-1
 321 -44 l 1,23,24
 339 -19 339 -19 363.5 6 c 128,-1,25
 388 31 388 31 403 43.5 c 128,-1,26
 418 56 418 56 442.5 75 c 128,-1,27
 467 94 467 94 469 96 c 0,28,29
 517 134 517 134 517 168 c 0,30,31
 517 191 517 191 498 207.5 c 128,-1,32
 479 224 479 224 447 224 c 0,33,34
 396 224 396 224 365 185 c 0,35,36
 362 182 362 182 360 175.5 c 128,-1,37
 358 169 358 169 356 166 c 2,38,-1
 312 195 l 1,4,5
177 785 m 1,39,-1
 177 433 l 1,40,-1
 118 433 l 1,41,-1
 118 711 l 1,42,-1
 29 688 l 1,43,-1
 13 717 l 1,44,-1
 137 785 l 1,45,-1
 177 785 l 1,39,-1
EndSplineSet
EndChar

StartChar: threequarters
Encoding: 190 190 128
Width: 600
GlyphClass: 2
Flags: W
LayerCount: 2
Fore
SplineSet
104 -19 m 1,0,-1
 467 770 l 1,1,-1
 522 739 l 1,2,-1
 158 -49 l 1,3,-1
 104 -19 l 1,0,-1
156 792 m 0,4,5
 207 792 207 792 242 762.5 c 128,-1,6
 277 733 277 733 277 693 c 0,7,8
 277 667 277 667 262.5 647.5 c 128,-1,9
 248 628 248 628 225 620 c 1,10,11
 254 615 254 615 273.5 592.5 c 128,-1,12
 293 570 293 570 293 541 c 0,13,14
 293 496 293 496 251 465 c 128,-1,15
 209 434 209 434 153 434 c 0,16,17
 74 434 74 434 21 494 c 1,18,-1
 64 542 l 1,19,20
 68 538 68 538 70.5 529 c 128,-1,21
 73 520 73 520 77 516 c 0,22,23
 108 486 108 486 154 486 c 0,24,25
 188 486 188 486 212 503.5 c 128,-1,26
 236 521 236 521 236 546 c 0,27,28
 236 554 236 554 233 561.5 c 128,-1,29
 230 569 230 569 222 577.5 c 128,-1,30
 214 586 214 586 196.5 591.5 c 128,-1,31
 179 597 179 597 154 597 c 0,32,33
 140 597 140 597 127 595 c 1,34,-1
 127 642 l 1,35,36
 136 641 136 641 145 641 c 0,37,38
 186 641 186 641 204 655 c 128,-1,39
 222 669 222 669 222 689 c 0,40,41
 222 710 222 710 202.5 726.5 c 128,-1,42
 183 743 183 743 153 743 c 0,43,44
 101 743 101 743 67 700 c 1,45,-1
 33 735 l 1,46,47
 82 792 82 792 156 792 c 0,4,5
467 280 m 1,48,-1
 503 280 l 1,49,-1
 503 53 l 1,50,-1
 561 53 l 1,51,-1
 561 9 l 1,52,-1
 503 9 l 1,53,-1
 503 -81 l 1,54,-1
 450 -81 l 1,55,-1
 450 10 l 1,56,-1
 281 10 l 1,57,-1
 281 42 l 1,58,-1
 467 280 l 1,48,-1
451 190 m 1,59,-1
 342 53 l 1,60,-1
 451 53 l 1,61,-1
 451 190 l 1,59,-1
EndSplineSet
EndChar

StartChar: questiondown
Encoding: 191 191 129
Width: 600
GlyphClass: 2
Flags: W
LayerCount: 2
Fore
SplineSet
220 704.5 m 128,-1,1
 220 732 220 732 240 751.5 c 128,-1,2
 260 771 260 771 288.5 771 c 128,-1,3
 317 771 317 771 337 751.5 c 128,-1,4
 357 732 357 732 357 704.5 c 128,-1,5
 357 677 357 677 337 657.5 c 128,-1,6
 317 638 317 638 288.5 638 c 128,-1,7
 260 638 260 638 240 657.5 c 128,-1,0
 220 677 220 677 220 704.5 c 128,-1,1
517 106 m 1,8,9
 480 49 480 49 420 17 c 128,-1,10
 360 -15 360 -15 294 -15 c 0,11,12
 199 -15 199 -15 143.5 44.5 c 128,-1,13
 88 104 88 104 88 189 c 0,14,15
 88 215 88 215 94.5 238.5 c 128,-1,16
 101 262 101 262 109 278 c 128,-1,17
 117 294 117 294 131.5 311 c 128,-1,18
 146 328 146 328 155.5 336.5 c 128,-1,19
 165 345 165 345 181.5 358.5 c 128,-1,20
 198 372 198 372 203 376 c 0,21,22
 235 405 235 405 244 431 c 128,-1,23
 253 457 253 457 253 494 c 2,24,-1
 253 542 l 1,25,-1
 329 542 l 1,26,-1
 329 494 l 2,27,28
 329 447 329 447 319.5 415 c 128,-1,29
 310 383 310 383 275 345 c 0,30,31
 270 340 270 340 252 321.5 c 128,-1,32
 234 303 234 303 225.5 292 c 128,-1,33
 217 281 217 281 204 262.5 c 128,-1,34
 191 244 191 244 185.5 224.5 c 128,-1,35
 180 205 180 205 180 183 c 0,36,37
 180 132 180 132 215 96.5 c 128,-1,38
 250 61 250 61 302 61 c 0,39,40
 346 61 346 61 388.5 88 c 128,-1,41
 431 115 431 115 458 161 c 1,42,-1
 517 106 l 1,8,9
EndSplineSet
EndChar

StartChar: Agrave
Encoding: 192 192 130
Width: 600
GlyphClass: 2
Flags: W
LayerCount: 2
Fore
SplineSet
220 917 m 1,0,-1
 174 836 l 1,1,-1
 370 765 l 1,2,-1
 397 813 l 1,3,-1
 220 917 l 1,0,-1
27 -1 m 1,4,-1
 282 735 l 1,5,-1
 291 735 l 1,6,-1
 570 0 l 1,7,-1
 486 0 l 1,8,-1
 406 211 l 1,9,-1
 177 211 l 1,10,-1
 107 -1 l 1,11,-1
 27 -1 l 1,4,-1
388 274 m 1,12,-1
 286 549 l 1,13,-1
 193 274 l 1,14,-1
 388 274 l 1,12,-1
EndSplineSet
EndChar

StartChar: Aacute
Encoding: 193 193 131
Width: 600
GlyphClass: 2
Flags: W
LayerCount: 2
Fore
SplineSet
367 917 m 1,0,-1
 413 836 l 1,1,-1
 217 765 l 1,2,-1
 190 813 l 1,3,-1
 367 917 l 1,0,-1
27 -1 m 1,4,-1
 282 735 l 1,5,-1
 291 735 l 1,6,-1
 570 0 l 1,7,-1
 486 0 l 1,8,-1
 406 211 l 1,9,-1
 177 211 l 1,10,-1
 107 -1 l 1,11,-1
 27 -1 l 1,4,-1
388 274 m 1,12,-1
 286 549 l 1,13,-1
 193 274 l 1,14,-1
 388 274 l 1,12,-1
EndSplineSet
EndChar

StartChar: Acircumflex
Encoding: 194 194 132
Width: 600
GlyphClass: 2
Flags: W
LayerCount: 2
Fore
SplineSet
128 802 m 1,0,-1
 280 917 l 1,1,-1
 305 917 l 1,2,-1
 448 804 l 1,3,-1
 410 760 l 1,4,-1
 290 842 l 1,5,-1
 161 763 l 1,6,-1
 128 802 l 1,0,-1
27 -1 m 1,7,-1
 282 735 l 1,8,-1
 291 735 l 1,9,-1
 570 0 l 1,10,-1
 486 0 l 1,11,-1
 406 211 l 1,12,-1
 177 211 l 1,13,-1
 107 -1 l 1,14,-1
 27 -1 l 1,7,-1
388 274 m 1,15,-1
 286 549 l 1,16,-1
 193 274 l 1,17,-1
 388 274 l 1,15,-1
EndSplineSet
EndChar

StartChar: Atilde
Encoding: 195 195 133
Width: 600
GlyphClass: 2
Flags: W
LayerCount: 2
Fore
SplineSet
162 792 m 1,0,-1
 110 829 l 1,1,2
 173 929 173 929 241 929 c 0,3,4
 262 929 262 929 283 918.5 c 128,-1,5
 304 908 304 908 312.5 900.5 c 128,-1,6
 321 893 321 893 334 880 c 0,7,8
 369 843 369 843 392 843 c 0,9,10
 405 843 405 843 416 851 c 128,-1,11
 427 859 427 859 436.5 873 c 128,-1,12
 446 887 446 887 459 904 c 1,13,-1
 502 858 l 1,14,15
 468 815 468 815 442.5 795.5 c 128,-1,16
 417 776 417 776 388 776 c 0,17,18
 365 776 365 776 343 789.5 c 128,-1,19
 321 803 321 803 306.5 819.5 c 128,-1,20
 292 836 292 836 273.5 849.5 c 128,-1,21
 255 863 255 863 238 863 c 0,22,23
 217 863 217 863 202 847.5 c 128,-1,24
 187 832 187 832 162 792 c 1,0,-1
27 -1 m 1,25,-1
 282 735 l 1,26,-1
 291 735 l 1,27,-1
 570 0 l 1,28,-1
 486 0 l 1,29,-1
 406 211 l 1,30,-1
 177 211 l 1,31,-1
 107 -1 l 1,32,-1
 27 -1 l 1,25,-1
388 274 m 1,33,-1
 286 549 l 1,34,-1
 193 274 l 1,35,-1
 388 274 l 1,33,-1
EndSplineSet
EndChar

StartChar: Adieresis
Encoding: 196 196 134
Width: 600
GlyphClass: 2
Flags: W
LayerCount: 2
Fore
SplineSet
244 855.5 m 128,-1,1
 244 831 244 831 227 814 c 128,-1,2
 210 797 210 797 185.5 797 c 128,-1,3
 161 797 161 797 144 814 c 128,-1,4
 127 831 127 831 127 855.5 c 128,-1,5
 127 880 127 880 144 897 c 128,-1,6
 161 914 161 914 185.5 914 c 128,-1,7
 210 914 210 914 227 897 c 128,-1,0
 244 880 244 880 244 855.5 c 128,-1,1
450 855.5 m 128,-1,9
 450 831 450 831 433 814 c 128,-1,10
 416 797 416 797 392 797 c 128,-1,11
 368 797 368 797 351 814 c 128,-1,12
 334 831 334 831 334 855.5 c 128,-1,13
 334 880 334 880 351 897 c 128,-1,14
 368 914 368 914 392 914 c 128,-1,15
 416 914 416 914 433 897 c 128,-1,8
 450 880 450 880 450 855.5 c 128,-1,9
27 -1 m 1,16,-1
 282 735 l 1,17,-1
 291 735 l 1,18,-1
 570 0 l 1,19,-1
 486 0 l 1,20,-1
 406 211 l 1,21,-1
 177 211 l 1,22,-1
 107 -1 l 1,23,-1
 27 -1 l 1,16,-1
388 274 m 1,24,-1
 286 549 l 1,25,-1
 193 274 l 1,26,-1
 388 274 l 1,24,-1
EndSplineSet
EndChar

StartChar: Aring
Encoding: 197 197 135
Width: 600
GlyphClass: 2
Flags: W
LayerCount: 2
Fore
SplineSet
394 819 m 128,-1,1
 394 777 394 777 363 747 c 128,-1,2
 332 717 332 717 288 717 c 128,-1,3
 244 717 244 717 213 747 c 128,-1,4
 182 777 182 777 182 819 c 128,-1,5
 182 861 182 861 213 891 c 128,-1,6
 244 921 244 921 288 921 c 128,-1,7
 332 921 332 921 363 891 c 128,-1,0
 394 861 394 861 394 819 c 128,-1,1
241 820 m 256,8,9
 241 798 241 798 255 782.5 c 128,-1,10
 269 767 269 767 289 767 c 128,-1,11
 309 767 309 767 323 782.5 c 128,-1,12
 337 798 337 798 337 820 c 256,13,14
 337 842 337 842 323 857.5 c 128,-1,15
 309 873 309 873 289 873 c 128,-1,16
 269 873 269 873 255 857.5 c 128,-1,17
 241 842 241 842 241 820 c 256,8,9
27 -1 m 1,18,-1
 282 735 l 1,19,-1
 291 735 l 1,20,-1
 570 0 l 1,21,-1
 486 0 l 1,22,-1
 406 211 l 1,23,-1
 177 211 l 1,24,-1
 107 -1 l 1,25,-1
 27 -1 l 1,18,-1
388 274 m 1,26,-1
 286 549 l 1,27,-1
 193 274 l 1,28,-1
 388 274 l 1,26,-1
EndSplineSet
EndChar

StartChar: AE
Encoding: 198 198 136
Width: 600
GlyphClass: 2
Flags: W
LayerCount: 2
Fore
SplineSet
242 723 m 1,0,-1
 571 723 l 1,1,-1
 571 651 l 1,2,-1
 370 651 l 1,3,-1
 372 414 l 1,4,-1
 541 414 l 1,5,-1
 541 340 l 1,6,-1
 373 340 l 1,7,-1
 375 72 l 1,8,-1
 568 72 l 1,9,-1
 568 0 l 1,10,-1
 302 0 l 1,11,-1
 302 196 l 1,12,-1
 151 196 l 1,13,-1
 89 0 l 1,14,-1
 15 0 l 1,15,-1
 242 723 l 1,0,-1
302 651 m 1,16,-1
 289 651 l 1,17,-1
 168 263 l 1,18,-1
 302 263 l 1,19,-1
 302 651 l 1,16,-1
EndSplineSet
EndChar

StartChar: Ccedilla
Encoding: 199 199 137
Width: 600
GlyphClass: 2
Flags: W
LayerCount: 2
Fore
SplineSet
313 0 m 1,0,-1
 363 0 l 1,1,-1
 357 -55 l 1,2,-1
 376 -56 l 2,3,4
 406 -58 406 -58 421 -65 c 0,5,6
 455 -82 455 -82 455 -119 c 0,7,8
 455 -153 455 -153 422 -179 c 128,-1,9
 389 -205 389 -205 329 -205 c 0,10,11
 253 -205 253 -205 192 -162 c 1,12,-1
 221 -114 l 1,13,14
 272 -155 272 -155 336 -155 c 0,15,16
 366 -155 366 -155 377.5 -146 c 128,-1,17
 389 -137 389 -137 389 -127 c 0,18,19
 389 -114 389 -114 376 -107 c 0,20,21
 364 -99 364 -99 334 -99 c 2,22,-1
 300 -99 l 1,23,-1
 313 0 l 1,0,-1
332 728 m 0,24,25
 404 728 404 728 464 689 c 128,-1,26
 524 650 524 650 553 585 c 1,27,-1
 476 547 l 1,28,29
 471 551 471 551 471 558 c 0,30,31
 471 560 471 560 471 563 c 128,-1,32
 471 566 471 566 471 567 c 0,33,34
 471 572 471 572 467 579 c 0,35,36
 445 618 445 618 408 640.5 c 128,-1,37
 371 663 371 663 329 663 c 0,38,39
 248 663 248 663 192 582.5 c 128,-1,40
 136 502 136 502 136 364 c 0,41,42
 136 223 136 223 194 140.5 c 128,-1,43
 252 58 252 58 336 58 c 0,44,45
 379 58 379 58 418.5 81.5 c 128,-1,46
 458 105 458 105 483 146 c 1,47,-1
 543 107 l 1,48,49
 509 52 509 52 452.5 20 c 128,-1,50
 396 -12 396 -12 331 -12 c 0,51,52
 293 -12 293 -12 256.5 -1 c 128,-1,53
 220 10 220 10 183.5 37.5 c 128,-1,54
 147 65 147 65 119 106 c 128,-1,55
 91 147 91 147 74 211.5 c 128,-1,56
 57 276 57 276 57 357 c 0,57,58
 57 440 57 440 75 506 c 128,-1,59
 93 572 93 572 121 612.5 c 128,-1,60
 149 653 149 653 186.5 680 c 128,-1,61
 224 707 224 707 259.5 717.5 c 128,-1,62
 295 728 295 728 332 728 c 0,24,25
EndSplineSet
EndChar

StartChar: Egrave
Encoding: 200 200 138
Width: 600
GlyphClass: 2
Flags: W
LayerCount: 2
Fore
SplineSet
220 917 m 1,0,-1
 174 836 l 1,1,-1
 370 765 l 1,2,-1
 397 813 l 1,3,-1
 220 917 l 1,0,-1
78 723 m 1,4,-1
 521 723 l 1,5,-1
 521 651 l 1,6,-1
 155 651 l 1,7,-1
 155 414 l 1,8,-1
 457 414 l 1,9,-1
 457 340 l 1,10,-1
 155 340 l 1,11,-1
 155 72 l 1,12,-1
 518 72 l 1,13,-1
 518 0 l 1,14,-1
 78 0 l 1,15,-1
 78 723 l 1,4,-1
EndSplineSet
EndChar

StartChar: Eacute
Encoding: 201 201 139
Width: 600
GlyphClass: 2
Flags: W
LayerCount: 2
Fore
SplineSet
387 917 m 1,0,-1
 433 836 l 1,1,-1
 237 765 l 1,2,-1
 210 813 l 1,3,-1
 387 917 l 1,0,-1
78 723 m 1,4,-1
 521 723 l 1,5,-1
 521 651 l 1,6,-1
 155 651 l 1,7,-1
 155 414 l 1,8,-1
 457 414 l 1,9,-1
 457 340 l 1,10,-1
 155 340 l 1,11,-1
 155 72 l 1,12,-1
 518 72 l 1,13,-1
 518 0 l 1,14,-1
 78 0 l 1,15,-1
 78 723 l 1,4,-1
EndSplineSet
EndChar

StartChar: Ecircumflex
Encoding: 202 202 140
Width: 600
GlyphClass: 2
Flags: W
LayerCount: 2
Fore
SplineSet
138 802 m 1,0,-1
 290 917 l 1,1,-1
 315 917 l 1,2,-1
 458 804 l 1,3,-1
 420 760 l 1,4,-1
 300 842 l 1,5,-1
 171 763 l 1,6,-1
 138 802 l 1,0,-1
78 723 m 1,7,-1
 521 723 l 1,8,-1
 521 651 l 1,9,-1
 155 651 l 1,10,-1
 155 414 l 1,11,-1
 457 414 l 1,12,-1
 457 340 l 1,13,-1
 155 340 l 1,14,-1
 155 72 l 1,15,-1
 518 72 l 1,16,-1
 518 0 l 1,17,-1
 78 0 l 1,18,-1
 78 723 l 1,7,-1
EndSplineSet
EndChar

StartChar: Edieresis
Encoding: 203 203 141
Width: 600
GlyphClass: 2
Flags: W
LayerCount: 2
Fore
SplineSet
252 855.5 m 128,-1,1
 252 831 252 831 235 814 c 128,-1,2
 218 797 218 797 193.5 797 c 128,-1,3
 169 797 169 797 152 814 c 128,-1,4
 135 831 135 831 135 855.5 c 128,-1,5
 135 880 135 880 152 897 c 128,-1,6
 169 914 169 914 193.5 914 c 128,-1,7
 218 914 218 914 235 897 c 128,-1,0
 252 880 252 880 252 855.5 c 128,-1,1
458 855.5 m 128,-1,9
 458 831 458 831 441 814 c 128,-1,10
 424 797 424 797 400 797 c 128,-1,11
 376 797 376 797 359 814 c 128,-1,12
 342 831 342 831 342 855.5 c 128,-1,13
 342 880 342 880 359 897 c 128,-1,14
 376 914 376 914 400 914 c 128,-1,15
 424 914 424 914 441 897 c 128,-1,8
 458 880 458 880 458 855.5 c 128,-1,9
78 723 m 1,16,-1
 521 723 l 1,17,-1
 521 651 l 1,18,-1
 155 651 l 1,19,-1
 155 414 l 1,20,-1
 457 414 l 1,21,-1
 457 340 l 1,22,-1
 155 340 l 1,23,-1
 155 72 l 1,24,-1
 518 72 l 1,25,-1
 518 0 l 1,26,-1
 78 0 l 1,27,-1
 78 723 l 1,16,-1
EndSplineSet
EndChar

StartChar: Igrave
Encoding: 204 204 142
Width: 600
GlyphClass: 2
Flags: W
LayerCount: 2
Fore
SplineSet
220 917 m 1,0,-1
 174 836 l 1,1,-1
 370 765 l 1,2,-1
 397 813 l 1,3,-1
 220 917 l 1,0,-1
112 722 m 1,4,-1
 470 722 l 1,5,-1
 470 654 l 1,6,-1
 327 654 l 1,7,-1
 327 66 l 1,8,-1
 477 66 l 1,9,-1
 477 -1 l 1,10,-1
 104 -1 l 1,11,-1
 104 67 l 1,12,-1
 246 67 l 1,13,-1
 246 654 l 1,14,-1
 112 654 l 1,15,-1
 112 722 l 1,4,-1
EndSplineSet
EndChar

StartChar: Iacute
Encoding: 205 205 143
Width: 600
GlyphClass: 2
Flags: W
LayerCount: 2
Fore
SplineSet
387 917 m 1,0,-1
 433 836 l 1,1,-1
 237 765 l 1,2,-1
 210 813 l 1,3,-1
 387 917 l 1,0,-1
112 722 m 1,4,-1
 470 722 l 1,5,-1
 470 654 l 1,6,-1
 327 654 l 1,7,-1
 327 66 l 1,8,-1
 477 66 l 1,9,-1
 477 -1 l 1,10,-1
 104 -1 l 1,11,-1
 104 67 l 1,12,-1
 246 67 l 1,13,-1
 246 654 l 1,14,-1
 112 654 l 1,15,-1
 112 722 l 1,4,-1
EndSplineSet
EndChar

StartChar: Icircumflex
Encoding: 206 206 144
Width: 600
GlyphClass: 2
Flags: W
LayerCount: 2
Fore
SplineSet
127 802 m 1,0,-1
 279 917 l 1,1,-1
 304 917 l 1,2,-1
 447 804 l 1,3,-1
 409 760 l 1,4,-1
 289 842 l 1,5,-1
 160 763 l 1,6,-1
 127 802 l 1,0,-1
112 722 m 1,7,-1
 470 722 l 1,8,-1
 470 654 l 1,9,-1
 327 654 l 1,10,-1
 327 66 l 1,11,-1
 477 66 l 1,12,-1
 477 -1 l 1,13,-1
 104 -1 l 1,14,-1
 104 67 l 1,15,-1
 246 67 l 1,16,-1
 246 654 l 1,17,-1
 112 654 l 1,18,-1
 112 722 l 1,7,-1
EndSplineSet
EndChar

StartChar: Idieresis
Encoding: 207 207 145
Width: 600
GlyphClass: 2
Flags: W
LayerCount: 2
Fore
SplineSet
248 855.5 m 128,-1,1
 248 831 248 831 231 814 c 128,-1,2
 214 797 214 797 189.5 797 c 128,-1,3
 165 797 165 797 148 814 c 128,-1,4
 131 831 131 831 131 855.5 c 128,-1,5
 131 880 131 880 148 897 c 128,-1,6
 165 914 165 914 189.5 914 c 128,-1,7
 214 914 214 914 231 897 c 128,-1,0
 248 880 248 880 248 855.5 c 128,-1,1
454 855.5 m 128,-1,9
 454 831 454 831 437 814 c 128,-1,10
 420 797 420 797 396 797 c 128,-1,11
 372 797 372 797 355 814 c 128,-1,12
 338 831 338 831 338 855.5 c 128,-1,13
 338 880 338 880 355 897 c 128,-1,14
 372 914 372 914 396 914 c 128,-1,15
 420 914 420 914 437 897 c 128,-1,8
 454 880 454 880 454 855.5 c 128,-1,9
112 722 m 1,16,-1
 470 722 l 1,17,-1
 470 654 l 1,18,-1
 327 654 l 1,19,-1
 327 66 l 1,20,-1
 477 66 l 1,21,-1
 477 -1 l 1,22,-1
 104 -1 l 1,23,-1
 104 67 l 1,24,-1
 246 67 l 1,25,-1
 246 654 l 1,26,-1
 112 654 l 1,27,-1
 112 722 l 1,16,-1
EndSplineSet
EndChar

StartChar: Eth
Encoding: 208 208 146
Width: 600
GlyphClass: 2
Flags: W
LayerCount: 2
Fore
SplineSet
101 722 m 1,0,-1
 263 722 l 2,1,2
 316 722 316 722 353.5 713.5 c 128,-1,3
 391 705 391 705 426 679 c 0,4,5
 488 633 488 633 519 548.5 c 128,-1,6
 550 464 550 464 550 365 c 0,7,8
 550 246 550 246 505.5 152.5 c 128,-1,9
 461 59 461 59 380 21 c 0,10,11
 332 -1 332 -1 249 -1 c 2,12,-1
 101 -1 l 1,13,-1
 101 722 l 1,0,-1
176 654 m 1,14,-1
 176 66 l 1,15,-1
 245 66 l 2,16,17
 283 66 283 66 310.5 71.5 c 128,-1,18
 338 77 338 77 366 96 c 0,19,20
 417 131 417 131 444.5 199.5 c 128,-1,21
 472 268 472 268 472 355 c 0,22,23
 472 501 472 501 411 585 c 0,24,25
 394 608 394 608 374 623.5 c 128,-1,26
 354 639 354 639 332 645 c 128,-1,27
 310 651 310 651 295 652.5 c 128,-1,28
 280 654 280 654 258 654 c 2,29,-1
 176 654 l 1,14,-1
45 416 m 1,30,-1
 297 416 l 1,31,-1
 297 349 l 1,32,-1
 45 349 l 1,33,-1
 45 416 l 1,30,-1
EndSplineSet
EndChar

StartChar: Ntilde
Encoding: 209 209 147
Width: 600
GlyphClass: 2
Flags: W
LayerCount: 2
Fore
SplineSet
167 792 m 1,0,-1
 115 829 l 1,1,2
 178 929 178 929 246 929 c 0,3,4
 267 929 267 929 288 918.5 c 128,-1,5
 309 908 309 908 317.5 900.5 c 128,-1,6
 326 893 326 893 339 880 c 0,7,8
 374 843 374 843 397 843 c 0,9,10
 410 843 410 843 421 851 c 128,-1,11
 432 859 432 859 441.5 873 c 128,-1,12
 451 887 451 887 464 904 c 1,13,-1
 507 858 l 1,14,15
 473 815 473 815 447.5 795.5 c 128,-1,16
 422 776 422 776 393 776 c 0,17,18
 370 776 370 776 348 789.5 c 128,-1,19
 326 803 326 803 311.5 819.5 c 128,-1,20
 297 836 297 836 278.5 849.5 c 128,-1,21
 260 863 260 863 243 863 c 0,22,23
 222 863 222 863 207 847.5 c 128,-1,24
 192 832 192 832 167 792 c 1,0,-1
68 0 m 1,25,-1
 68 722 l 1,26,-1
 147 722 l 1,27,-1
 450 187 l 1,28,-1
 450 723 l 1,29,-1
 536 723 l 1,30,31
 537 716 537 716 533 708 c 0,32,33
 528 699 528 699 528 692 c 2,34,-1
 528 -1 l 1,35,-1
 464 -1 l 1,36,-1
 146 568 l 1,37,-1
 146 0 l 1,38,-1
 68 0 l 1,25,-1
EndSplineSet
EndChar

StartChar: Ograve
Encoding: 210 210 148
Width: 600
GlyphClass: 2
Flags: W
LayerCount: 2
Fore
SplineSet
220 917 m 1,0,-1
 174 836 l 1,1,-1
 370 765 l 1,2,-1
 397 813 l 1,3,-1
 220 917 l 1,0,-1
556 360 m 0,4,5
 556 216 556 216 513 129 c 0,6,7
 479 60 479 60 422.5 24.5 c 128,-1,8
 366 -11 366 -11 304 -11 c 0,9,10
 269 -11 269 -11 234.5 0 c 128,-1,11
 200 11 200 11 165 39 c 128,-1,12
 130 67 130 67 103.5 108 c 128,-1,13
 77 149 77 149 60.5 214.5 c 128,-1,14
 44 280 44 280 44 362 c 128,-1,15
 44 444 44 444 61 509 c 128,-1,16
 78 574 78 574 104.5 614.5 c 128,-1,17
 131 655 131 655 166 682 c 128,-1,18
 201 709 201 709 235 719.5 c 128,-1,19
 269 730 269 730 304 730 c 0,20,21
 366 730 366 730 422 695.5 c 128,-1,22
 478 661 478 661 512 594 c 0,23,24
 556 507 556 507 556 360 c 0,4,5
300 654 m 0,25,26
 270 654 270 654 240.5 639.5 c 128,-1,27
 211 625 211 625 184 594.5 c 128,-1,28
 157 564 157 564 140.5 506.5 c 128,-1,29
 124 449 124 449 124 373 c 0,30,31
 124 291 124 291 140.5 229 c 128,-1,32
 157 167 157 167 184.5 133.5 c 128,-1,33
 212 100 212 100 242 84 c 128,-1,34
 272 68 272 68 305 68 c 0,35,36
 345 68 345 68 382 92 c 128,-1,37
 419 116 419 116 443 166 c 0,38,39
 475 234 475 234 475 349 c 0,40,41
 475 470 475 470 447 540 c 0,42,43
 423 598 423 598 383 626 c 128,-1,44
 343 654 343 654 300 654 c 0,25,26
EndSplineSet
EndChar

StartChar: Oacute
Encoding: 211 211 149
Width: 600
GlyphClass: 2
Flags: W
LayerCount: 2
Fore
SplineSet
387 917 m 1,0,-1
 433 836 l 1,1,-1
 237 765 l 1,2,-1
 210 813 l 1,3,-1
 387 917 l 1,0,-1
556 360 m 0,4,5
 556 216 556 216 513 129 c 0,6,7
 479 60 479 60 422.5 24.5 c 128,-1,8
 366 -11 366 -11 304 -11 c 0,9,10
 269 -11 269 -11 234.5 0 c 128,-1,11
 200 11 200 11 165 39 c 128,-1,12
 130 67 130 67 103.5 108 c 128,-1,13
 77 149 77 149 60.5 214.5 c 128,-1,14
 44 280 44 280 44 362 c 128,-1,15
 44 444 44 444 61 509 c 128,-1,16
 78 574 78 574 104.5 614.5 c 128,-1,17
 131 655 131 655 166 682 c 128,-1,18
 201 709 201 709 235 719.5 c 128,-1,19
 269 730 269 730 304 730 c 0,20,21
 366 730 366 730 422 695.5 c 128,-1,22
 478 661 478 661 512 594 c 0,23,24
 556 507 556 507 556 360 c 0,4,5
300 654 m 0,25,26
 270 654 270 654 240.5 639.5 c 128,-1,27
 211 625 211 625 184 594.5 c 128,-1,28
 157 564 157 564 140.5 506.5 c 128,-1,29
 124 449 124 449 124 373 c 0,30,31
 124 291 124 291 140.5 229 c 128,-1,32
 157 167 157 167 184.5 133.5 c 128,-1,33
 212 100 212 100 242 84 c 128,-1,34
 272 68 272 68 305 68 c 0,35,36
 345 68 345 68 382 92 c 128,-1,37
 419 116 419 116 443 166 c 0,38,39
 475 234 475 234 475 349 c 0,40,41
 475 470 475 470 447 540 c 0,42,43
 423 598 423 598 383 626 c 128,-1,44
 343 654 343 654 300 654 c 0,25,26
EndSplineSet
EndChar

StartChar: Ocircumflex
Encoding: 212 212 150
Width: 600
GlyphClass: 2
Flags: W
LayerCount: 2
Fore
SplineSet
141 802 m 1,0,-1
 293 917 l 1,1,-1
 318 917 l 1,2,-1
 461 804 l 1,3,-1
 423 760 l 1,4,-1
 303 842 l 1,5,-1
 174 763 l 1,6,-1
 141 802 l 1,0,-1
556 360 m 0,7,8
 556 216 556 216 513 129 c 0,9,10
 479 60 479 60 422.5 24.5 c 128,-1,11
 366 -11 366 -11 304 -11 c 0,12,13
 269 -11 269 -11 234.5 0 c 128,-1,14
 200 11 200 11 165 39 c 128,-1,15
 130 67 130 67 103.5 108 c 128,-1,16
 77 149 77 149 60.5 214.5 c 128,-1,17
 44 280 44 280 44 362 c 128,-1,18
 44 444 44 444 61 509 c 128,-1,19
 78 574 78 574 104.5 614.5 c 128,-1,20
 131 655 131 655 166 682 c 128,-1,21
 201 709 201 709 235 719.5 c 128,-1,22
 269 730 269 730 304 730 c 0,23,24
 366 730 366 730 422 695.5 c 128,-1,25
 478 661 478 661 512 594 c 0,26,27
 556 507 556 507 556 360 c 0,7,8
300 654 m 0,28,29
 270 654 270 654 240.5 639.5 c 128,-1,30
 211 625 211 625 184 594.5 c 128,-1,31
 157 564 157 564 140.5 506.5 c 128,-1,32
 124 449 124 449 124 373 c 0,33,34
 124 291 124 291 140.5 229 c 128,-1,35
 157 167 157 167 184.5 133.5 c 128,-1,36
 212 100 212 100 242 84 c 128,-1,37
 272 68 272 68 305 68 c 0,38,39
 345 68 345 68 382 92 c 128,-1,40
 419 116 419 116 443 166 c 0,41,42
 475 234 475 234 475 349 c 0,43,44
 475 470 475 470 447 540 c 0,45,46
 423 598 423 598 383 626 c 128,-1,47
 343 654 343 654 300 654 c 0,28,29
EndSplineSet
EndChar

StartChar: Otilde
Encoding: 213 213 151
Width: 600
GlyphClass: 2
Flags: W
LayerCount: 2
Fore
SplineSet
167 792 m 1,0,-1
 115 829 l 1,1,2
 178 929 178 929 246 929 c 0,3,4
 267 929 267 929 288 918.5 c 128,-1,5
 309 908 309 908 317.5 900.5 c 128,-1,6
 326 893 326 893 339 880 c 0,7,8
 374 843 374 843 397 843 c 0,9,10
 410 843 410 843 421 851 c 128,-1,11
 432 859 432 859 441.5 873 c 128,-1,12
 451 887 451 887 464 904 c 1,13,-1
 507 858 l 1,14,15
 473 815 473 815 447.5 795.5 c 128,-1,16
 422 776 422 776 393 776 c 0,17,18
 370 776 370 776 348 789.5 c 128,-1,19
 326 803 326 803 311.5 819.5 c 128,-1,20
 297 836 297 836 278.5 849.5 c 128,-1,21
 260 863 260 863 243 863 c 0,22,23
 222 863 222 863 207 847.5 c 128,-1,24
 192 832 192 832 167 792 c 1,0,-1
556 360 m 0,25,26
 556 216 556 216 513 129 c 0,27,28
 479 60 479 60 422.5 24.5 c 128,-1,29
 366 -11 366 -11 304 -11 c 0,30,31
 269 -11 269 -11 234.5 0 c 128,-1,32
 200 11 200 11 165 39 c 128,-1,33
 130 67 130 67 103.5 108 c 128,-1,34
 77 149 77 149 60.5 214.5 c 128,-1,35
 44 280 44 280 44 362 c 128,-1,36
 44 444 44 444 61 509 c 128,-1,37
 78 574 78 574 104.5 614.5 c 128,-1,38
 131 655 131 655 166 682 c 128,-1,39
 201 709 201 709 235 719.5 c 128,-1,40
 269 730 269 730 304 730 c 0,41,42
 366 730 366 730 422 695.5 c 128,-1,43
 478 661 478 661 512 594 c 0,44,45
 556 507 556 507 556 360 c 0,25,26
300 654 m 0,46,47
 270 654 270 654 240.5 639.5 c 128,-1,48
 211 625 211 625 184 594.5 c 128,-1,49
 157 564 157 564 140.5 506.5 c 128,-1,50
 124 449 124 449 124 373 c 0,51,52
 124 291 124 291 140.5 229 c 128,-1,53
 157 167 157 167 184.5 133.5 c 128,-1,54
 212 100 212 100 242 84 c 128,-1,55
 272 68 272 68 305 68 c 0,56,57
 345 68 345 68 382 92 c 128,-1,58
 419 116 419 116 443 166 c 0,59,60
 475 234 475 234 475 349 c 0,61,62
 475 470 475 470 447 540 c 0,63,64
 423 598 423 598 383 626 c 128,-1,65
 343 654 343 654 300 654 c 0,46,47
EndSplineSet
EndChar

StartChar: Odieresis
Encoding: 214 214 152
Width: 600
GlyphClass: 2
Flags: W
LayerCount: 2
Fore
SplineSet
252 855.5 m 128,-1,1
 252 831 252 831 235 814 c 128,-1,2
 218 797 218 797 193.5 797 c 128,-1,3
 169 797 169 797 152 814 c 128,-1,4
 135 831 135 831 135 855.5 c 128,-1,5
 135 880 135 880 152 897 c 128,-1,6
 169 914 169 914 193.5 914 c 128,-1,7
 218 914 218 914 235 897 c 128,-1,0
 252 880 252 880 252 855.5 c 128,-1,1
458 855.5 m 128,-1,9
 458 831 458 831 441 814 c 128,-1,10
 424 797 424 797 400 797 c 128,-1,11
 376 797 376 797 359 814 c 128,-1,12
 342 831 342 831 342 855.5 c 128,-1,13
 342 880 342 880 359 897 c 128,-1,14
 376 914 376 914 400 914 c 128,-1,15
 424 914 424 914 441 897 c 128,-1,8
 458 880 458 880 458 855.5 c 128,-1,9
556 360 m 0,16,17
 556 216 556 216 513 129 c 0,18,19
 479 60 479 60 422.5 24.5 c 128,-1,20
 366 -11 366 -11 304 -11 c 0,21,22
 269 -11 269 -11 234.5 0 c 128,-1,23
 200 11 200 11 165 39 c 128,-1,24
 130 67 130 67 103.5 108 c 128,-1,25
 77 149 77 149 60.5 214.5 c 128,-1,26
 44 280 44 280 44 362 c 128,-1,27
 44 444 44 444 61 509 c 128,-1,28
 78 574 78 574 104.5 614.5 c 128,-1,29
 131 655 131 655 166 682 c 128,-1,30
 201 709 201 709 235 719.5 c 128,-1,31
 269 730 269 730 304 730 c 0,32,33
 366 730 366 730 422 695.5 c 128,-1,34
 478 661 478 661 512 594 c 0,35,36
 556 507 556 507 556 360 c 0,16,17
300 654 m 0,37,38
 270 654 270 654 240.5 639.5 c 128,-1,39
 211 625 211 625 184 594.5 c 128,-1,40
 157 564 157 564 140.5 506.5 c 128,-1,41
 124 449 124 449 124 373 c 0,42,43
 124 291 124 291 140.5 229 c 128,-1,44
 157 167 157 167 184.5 133.5 c 128,-1,45
 212 100 212 100 242 84 c 128,-1,46
 272 68 272 68 305 68 c 0,47,48
 345 68 345 68 382 92 c 128,-1,49
 419 116 419 116 443 166 c 0,50,51
 475 234 475 234 475 349 c 0,52,53
 475 470 475 470 447 540 c 0,54,55
 423 598 423 598 383 626 c 128,-1,56
 343 654 343 654 300 654 c 0,37,38
EndSplineSet
EndChar

StartChar: multiply
Encoding: 215 215 153
Width: 600
GlyphClass: 2
Flags: W
LayerCount: 2
Fore
SplineSet
453 583 m 1,0,-1
 508 532 l 1,1,-1
 358 377 l 1,2,-1
 505 221 l 1,3,-1
 451 168 l 1,4,-1
 305 322 l 1,5,-1
 160 173 l 1,6,-1
 108 224 l 1,7,-1
 254 376 l 1,8,-1
 108 530 l 1,9,-1
 163 583 l 1,10,-1
 307 431 l 1,11,-1
 453 583 l 1,0,-1
EndSplineSet
EndChar

StartChar: Oslash
Encoding: 216 216 154
Width: 600
GlyphClass: 2
Flags: W
LayerCount: 2
Fore
SplineSet
300 654 m 0,0,1
 270 654 270 654 240.5 639.5 c 128,-1,2
 211 625 211 625 184 594.5 c 128,-1,3
 157 564 157 564 140.5 506.5 c 128,-1,4
 124 449 124 449 124 373 c 0,5,6
 124 246 124 246 163 168 c 1,7,-1
 400 612 l 1,8,9
 356 654 356 654 300 654 c 0,0,1
556 360 m 0,10,11
 556 216 556 216 513 129 c 0,12,13
 479 60 479 60 422.5 24.5 c 128,-1,14
 366 -11 366 -11 304 -11 c 0,15,16
 231 -11 231 -11 170 35 c 1,17,-1
 112 -73 l 1,18,-1
 52 -42 l 1,19,-1
 120 85 l 1,20,21
 44 185 44 185 44 362 c 0,22,23
 44 444 44 444 61 509 c 128,-1,24
 78 574 78 574 104.5 614.5 c 128,-1,25
 131 655 131 655 166 682 c 128,-1,26
 201 709 201 709 235 719.5 c 128,-1,27
 269 730 269 730 304 730 c 0,28,29
 378 730 378 730 438 684 c 1,30,-1
 491 784 l 1,31,-1
 553 751 l 1,32,-1
 489 631 l 1,33,34
 502 614 502 614 512 594 c 0,35,36
 556 507 556 507 556 360 c 0,10,11
444 547 m 1,37,-1
 208 107 l 1,38,39
 251 68 251 68 305 68 c 0,40,41
 345 68 345 68 382 92 c 128,-1,42
 419 116 419 116 443 166 c 0,43,44
 475 234 475 234 475 349 c 0,45,46
 475 470 475 470 447 540 c 2,47,-1
 444 547 l 1,37,-1
EndSplineSet
EndChar

StartChar: Ugrave
Encoding: 217 217 155
Width: 600
GlyphClass: 2
Flags: W
LayerCount: 2
Fore
SplineSet
220 917 m 1,0,-1
 174 836 l 1,1,-1
 370 765 l 1,2,-1
 397 813 l 1,3,-1
 220 917 l 1,0,-1
68 722 m 1,4,-1
 159 722 l 2,5,6
 160 719 160 719 160 716 c 0,7,8
 160 711 160 711 153 700 c 0,9,10
 148 694 148 694 148 685 c 2,11,-1
 148 248 l 2,12,13
 148 179 148 179 165 142 c 0,14,15
 184 101 184 101 221.5 78.5 c 128,-1,16
 259 56 259 56 303 56 c 256,17,18
 347 56 347 56 384 78 c 128,-1,19
 421 100 421 100 440 141 c 0,20,21
 459 179 459 179 459 251 c 2,22,-1
 459 722 l 1,23,-1
 536 722 l 1,24,-1
 536 253 l 2,25,26
 536 204 536 204 531 169 c 128,-1,27
 526 134 526 134 507 100 c 0,28,29
 477 45 477 45 422 16 c 128,-1,30
 367 -13 367 -13 301 -13 c 0,31,32
 236 -13 236 -13 180.5 16 c 128,-1,33
 125 45 125 45 96 99 c 0,34,35
 78 133 78 133 73 167 c 128,-1,36
 68 201 68 201 68 249 c 2,37,-1
 68 722 l 1,4,-1
EndSplineSet
EndChar

StartChar: Uacute
Encoding: 218 218 156
Width: 600
GlyphClass: 2
Flags: W
LayerCount: 2
Fore
SplineSet
387 917 m 1,0,-1
 433 836 l 1,1,-1
 237 765 l 1,2,-1
 210 813 l 1,3,-1
 387 917 l 1,0,-1
68 722 m 1,4,-1
 159 722 l 2,5,6
 160 719 160 719 160 716 c 0,7,8
 160 711 160 711 153 700 c 0,9,10
 148 694 148 694 148 685 c 2,11,-1
 148 248 l 2,12,13
 148 179 148 179 165 142 c 0,14,15
 184 101 184 101 221.5 78.5 c 128,-1,16
 259 56 259 56 303 56 c 256,17,18
 347 56 347 56 384 78 c 128,-1,19
 421 100 421 100 440 141 c 0,20,21
 459 179 459 179 459 251 c 2,22,-1
 459 722 l 1,23,-1
 536 722 l 1,24,-1
 536 253 l 2,25,26
 536 204 536 204 531 169 c 128,-1,27
 526 134 526 134 507 100 c 0,28,29
 477 45 477 45 422 16 c 128,-1,30
 367 -13 367 -13 301 -13 c 0,31,32
 236 -13 236 -13 180.5 16 c 128,-1,33
 125 45 125 45 96 99 c 0,34,35
 78 133 78 133 73 167 c 128,-1,36
 68 201 68 201 68 249 c 2,37,-1
 68 722 l 1,4,-1
EndSplineSet
EndChar

StartChar: Ucircumflex
Encoding: 219 219 157
Width: 600
GlyphClass: 2
Flags: W
LayerCount: 2
Fore
SplineSet
141 802 m 1,0,-1
 293 917 l 1,1,-1
 318 917 l 1,2,-1
 461 804 l 1,3,-1
 423 760 l 1,4,-1
 303 842 l 1,5,-1
 174 763 l 1,6,-1
 141 802 l 1,0,-1
68 722 m 1,7,-1
 159 722 l 2,8,9
 160 719 160 719 160 716 c 0,10,11
 160 711 160 711 153 700 c 0,12,13
 148 694 148 694 148 685 c 2,14,-1
 148 248 l 2,15,16
 148 179 148 179 165 142 c 0,17,18
 184 101 184 101 221.5 78.5 c 128,-1,19
 259 56 259 56 303 56 c 256,20,21
 347 56 347 56 384 78 c 128,-1,22
 421 100 421 100 440 141 c 0,23,24
 459 179 459 179 459 251 c 2,25,-1
 459 722 l 1,26,-1
 536 722 l 1,27,-1
 536 253 l 2,28,29
 536 204 536 204 531 169 c 128,-1,30
 526 134 526 134 507 100 c 0,31,32
 477 45 477 45 422 16 c 128,-1,33
 367 -13 367 -13 301 -13 c 0,34,35
 236 -13 236 -13 180.5 16 c 128,-1,36
 125 45 125 45 96 99 c 0,37,38
 78 133 78 133 73 167 c 128,-1,39
 68 201 68 201 68 249 c 2,40,-1
 68 722 l 1,7,-1
EndSplineSet
EndChar

StartChar: Udieresis
Encoding: 220 220 158
Width: 600
GlyphClass: 2
Flags: W
LayerCount: 2
Fore
SplineSet
262 855.5 m 128,-1,1
 262 831 262 831 245 814 c 128,-1,2
 228 797 228 797 203.5 797 c 128,-1,3
 179 797 179 797 162 814 c 128,-1,4
 145 831 145 831 145 855.5 c 128,-1,5
 145 880 145 880 162 897 c 128,-1,6
 179 914 179 914 203.5 914 c 128,-1,7
 228 914 228 914 245 897 c 128,-1,0
 262 880 262 880 262 855.5 c 128,-1,1
468 855.5 m 128,-1,9
 468 831 468 831 451 814 c 128,-1,10
 434 797 434 797 410 797 c 128,-1,11
 386 797 386 797 369 814 c 128,-1,12
 352 831 352 831 352 855.5 c 128,-1,13
 352 880 352 880 369 897 c 128,-1,14
 386 914 386 914 410 914 c 128,-1,15
 434 914 434 914 451 897 c 128,-1,8
 468 880 468 880 468 855.5 c 128,-1,9
68 722 m 1,16,-1
 159 722 l 2,17,18
 160 719 160 719 160 716 c 0,19,20
 160 711 160 711 153 700 c 0,21,22
 148 694 148 694 148 685 c 2,23,-1
 148 248 l 2,24,25
 148 179 148 179 165 142 c 0,26,27
 184 101 184 101 221.5 78.5 c 128,-1,28
 259 56 259 56 303 56 c 256,29,30
 347 56 347 56 384 78 c 128,-1,31
 421 100 421 100 440 141 c 0,32,33
 459 179 459 179 459 251 c 2,34,-1
 459 722 l 1,35,-1
 536 722 l 1,36,-1
 536 253 l 2,37,38
 536 204 536 204 531 169 c 128,-1,39
 526 134 526 134 507 100 c 0,40,41
 477 45 477 45 422 16 c 128,-1,42
 367 -13 367 -13 301 -13 c 0,43,44
 236 -13 236 -13 180.5 16 c 128,-1,45
 125 45 125 45 96 99 c 0,46,47
 78 133 78 133 73 167 c 128,-1,48
 68 201 68 201 68 249 c 2,49,-1
 68 722 l 1,16,-1
EndSplineSet
EndChar

StartChar: Yacute
Encoding: 221 221 159
Width: 600
GlyphClass: 2
Flags: W
LayerCount: 2
Fore
SplineSet
387 917 m 1,0,-1
 433 836 l 1,1,-1
 237 765 l 1,2,-1
 210 813 l 1,3,-1
 387 917 l 1,0,-1
43 723 m 1,4,-1
 135 723 l 1,5,-1
 312 372 l 1,6,-1
 472 722 l 1,7,-1
 558 722 l 1,8,-1
 353 285 l 1,9,-1
 353 0 l 1,10,-1
 265 0 l 1,11,-1
 265 285 l 1,12,-1
 43 723 l 1,4,-1
EndSplineSet
EndChar

StartChar: Thorn
Encoding: 222 222 160
Width: 600
GlyphClass: 2
Flags: W
LayerCount: 2
Fore
SplineSet
78 722 m 1,0,-1
 169 722 l 2,1,2
 170 720 170 720 170 717 c 0,3,4
 170 713 170 713 163 702 c 0,5,6
 160 697 160 697 160 690 c 2,7,-1
 160 586 l 1,8,-1
 298 586 l 2,9,10
 327 586 327 586 345 585 c 128,-1,11
 363 584 363 584 388 578 c 128,-1,12
 413 572 413 572 435 561 c 0,13,14
 484 536 484 536 511 487.5 c 128,-1,15
 538 439 538 439 538 382.5 c 128,-1,16
 538 326 538 326 511.5 278.5 c 128,-1,17
 485 231 485 231 436 206 c 0,18,19
 390 183 390 183 304 183 c 2,20,-1
 160 183 l 1,21,-1
 160 0 l 1,22,-1
 78 0 l 1,23,-1
 78 722 l 1,0,-1
160 510 m 1,24,-1
 160 254 l 1,25,-1
 307 254 l 2,26,27
 362 254 362 254 391 269 c 0,28,29
 422 284 422 284 438.5 314 c 128,-1,30
 455 344 455 344 455 379 c 0,31,32
 455 415 455 415 437 446.5 c 128,-1,33
 419 478 419 478 387 494 c 0,34,35
 356 510 356 510 298 510 c 2,36,-1
 160 510 l 1,24,-1
EndSplineSet
EndChar

StartChar: germandbls
Encoding: 223 223 161
Width: 600
GlyphClass: 2
Flags: W
LayerCount: 2
Fore
SplineSet
74 0 m 1,0,-1
 74 490 l 2,1,2
 74 524 74 524 75 544.5 c 128,-1,3
 76 565 76 565 81.5 595 c 128,-1,4
 87 625 87 625 98 650 c 0,5,6
 124 709 124 709 175.5 742 c 128,-1,7
 227 775 227 775 287 775 c 0,8,9
 374 775 374 775 435.5 714.5 c 128,-1,10
 497 654 497 654 497 571 c 0,11,12
 497 521 497 521 472.5 479.5 c 128,-1,13
 448 438 448 438 405 416 c 1,14,15
 470 396 470 396 509 339 c 128,-1,16
 548 282 548 282 548 209 c 0,17,18
 548 115 548 115 486.5 51.5 c 128,-1,19
 425 -12 425 -12 335 -12 c 0,20,21
 270 -12 270 -12 215 24 c 1,22,-1
 256 89 l 1,23,24
 290 62 290 62 334 62 c 0,25,26
 390 62 390 62 430.5 104.5 c 128,-1,27
 471 147 471 147 471 209 c 0,28,29
 471 254 471 254 450 292 c 128,-1,30
 429 330 429 330 395 351 c 0,31,32
 358 374 358 374 293 374 c 2,33,-1
 258 374 l 1,34,-1
 258 440 l 1,35,-1
 291 440 l 2,36,37
 324 440 324 440 344 449 c 0,38,39
 377 464 377 464 397.5 498 c 128,-1,40
 418 532 418 532 418 573 c 0,41,42
 418 630 418 630 381 669 c 128,-1,43
 344 708 344 708 292 708 c 0,44,45
 227 708 227 708 187 650 c 0,46,47
 171 628 171 628 163.5 598 c 128,-1,48
 156 568 156 568 154.5 547 c 128,-1,49
 153 526 153 526 153 492 c 2,50,-1
 153 0 l 1,51,-1
 74 0 l 1,0,-1
EndSplineSet
EndChar

StartChar: agrave
Encoding: 224 224 162
Width: 600
GlyphClass: 2
Flags: W
LayerCount: 2
Fore
SplineSet
292 810 m 1,0,-1
 219 761 l 1,1,-1
 336 605 l 1,2,-1
 394 640 l 1,3,-1
 292 810 l 1,0,-1
115 467 m 1,4,5
 187 541 187 541 304 541 c 0,6,7
 366 541 366 541 414 518.5 c 128,-1,8
 462 496 462 496 488 453 c 0,9,10
 505 426 505 426 509.5 397 c 128,-1,11
 514 368 514 368 514 328 c 2,12,-1
 514 0 l 1,13,-1
 435 0 l 1,14,-1
 435 58 l 1,15,16
 348 -13 348 -13 245 -13 c 0,17,18
 165 -13 165 -13 116 31.5 c 128,-1,19
 67 76 67 76 67 137 c 0,20,21
 67 184 67 184 97.5 225 c 128,-1,22
 128 266 128 266 188 288 c 0,23,24
 219 300 219 300 263.5 305.5 c 128,-1,25
 308 311 308 311 334.5 311.5 c 128,-1,26
 361 312 361 312 417 312 c 2,27,-1
 434 312 l 1,28,-1
 434 331 l 2,29,30
 434 394 434 394 417 422 c 0,31,32
 386 473 386 473 308 473 c 0,33,34
 212 473 212 473 156 414 c 1,35,-1
 115 467 l 1,4,5
437 248 m 1,36,-1
 418 248 l 2,37,38
 382 249 382 249 328.5 248 c 128,-1,39
 275 247 275 247 244 240 c 0,40,41
 197 229 197 229 174 201.5 c 128,-1,42
 151 174 151 174 151 142 c 0,43,44
 151 105 151 105 181 78 c 128,-1,45
 211 51 211 51 262 51 c 0,46,47
 307 51 307 51 343.5 71 c 128,-1,48
 380 91 380 91 401 113 c 0,49,50
 418 131 418 131 426.5 151 c 128,-1,51
 435 171 435 171 436 182.5 c 128,-1,52
 437 194 437 194 437 213 c 2,53,-1
 437 248 l 1,36,-1
EndSplineSet
EndChar

StartChar: aacute
Encoding: 225 225 163
Width: 600
GlyphClass: 2
Flags: W
LayerCount: 2
Fore
SplineSet
348 810 m 1,0,-1
 421 761 l 1,1,-1
 304 605 l 1,2,-1
 246 640 l 1,3,-1
 348 810 l 1,0,-1
115 467 m 1,4,5
 187 541 187 541 304 541 c 0,6,7
 366 541 366 541 414 518.5 c 128,-1,8
 462 496 462 496 488 453 c 0,9,10
 505 426 505 426 509.5 397 c 128,-1,11
 514 368 514 368 514 328 c 2,12,-1
 514 0 l 1,13,-1
 435 0 l 1,14,-1
 435 58 l 1,15,16
 348 -13 348 -13 245 -13 c 0,17,18
 165 -13 165 -13 116 31.5 c 128,-1,19
 67 76 67 76 67 137 c 0,20,21
 67 184 67 184 97.5 225 c 128,-1,22
 128 266 128 266 188 288 c 0,23,24
 219 300 219 300 263.5 305.5 c 128,-1,25
 308 311 308 311 334.5 311.5 c 128,-1,26
 361 312 361 312 417 312 c 2,27,-1
 434 312 l 1,28,-1
 434 331 l 2,29,30
 434 394 434 394 417 422 c 0,31,32
 386 473 386 473 308 473 c 0,33,34
 212 473 212 473 156 414 c 1,35,-1
 115 467 l 1,4,5
437 248 m 1,36,-1
 418 248 l 2,37,38
 382 249 382 249 328.5 248 c 128,-1,39
 275 247 275 247 244 240 c 0,40,41
 197 229 197 229 174 201.5 c 128,-1,42
 151 174 151 174 151 142 c 0,43,44
 151 105 151 105 181 78 c 128,-1,45
 211 51 211 51 262 51 c 0,46,47
 307 51 307 51 343.5 71 c 128,-1,48
 380 91 380 91 401 113 c 0,49,50
 418 131 418 131 426.5 151 c 128,-1,51
 435 171 435 171 436 182.5 c 128,-1,52
 437 194 437 194 437 213 c 2,53,-1
 437 248 l 1,36,-1
EndSplineSet
EndChar

StartChar: acircumflex
Encoding: 226 226 164
Width: 600
GlyphClass: 2
Flags: W
LayerCount: 2
Fore
SplineSet
173 631 m 1,0,-1
 302 794 l 1,1,-1
 327 794 l 1,2,-1
 455 630 l 1,3,-1
 401 590 l 1,4,-1
 311 709 l 1,5,-1
 217 591 l 1,6,-1
 173 631 l 1,0,-1
115 467 m 1,7,8
 187 541 187 541 304 541 c 0,9,10
 366 541 366 541 414 518.5 c 128,-1,11
 462 496 462 496 488 453 c 0,12,13
 505 426 505 426 509.5 397 c 128,-1,14
 514 368 514 368 514 328 c 2,15,-1
 514 0 l 1,16,-1
 435 0 l 1,17,-1
 435 58 l 1,18,19
 348 -13 348 -13 245 -13 c 0,20,21
 165 -13 165 -13 116 31.5 c 128,-1,22
 67 76 67 76 67 137 c 0,23,24
 67 184 67 184 97.5 225 c 128,-1,25
 128 266 128 266 188 288 c 0,26,27
 219 300 219 300 263.5 305.5 c 128,-1,28
 308 311 308 311 334.5 311.5 c 128,-1,29
 361 312 361 312 417 312 c 2,30,-1
 434 312 l 1,31,-1
 434 331 l 2,32,33
 434 394 434 394 417 422 c 0,34,35
 386 473 386 473 308 473 c 0,36,37
 212 473 212 473 156 414 c 1,38,-1
 115 467 l 1,7,8
437 248 m 1,39,-1
 418 248 l 2,40,41
 382 249 382 249 328.5 248 c 128,-1,42
 275 247 275 247 244 240 c 0,43,44
 197 229 197 229 174 201.5 c 128,-1,45
 151 174 151 174 151 142 c 0,46,47
 151 105 151 105 181 78 c 128,-1,48
 211 51 211 51 262 51 c 0,49,50
 307 51 307 51 343.5 71 c 128,-1,51
 380 91 380 91 401 113 c 0,52,53
 418 131 418 131 426.5 151 c 128,-1,54
 435 171 435 171 436 182.5 c 128,-1,55
 437 194 437 194 437 213 c 2,56,-1
 437 248 l 1,39,-1
EndSplineSet
EndChar

StartChar: atilde
Encoding: 227 227 165
Width: 600
GlyphClass: 2
Flags: W
LayerCount: 2
Fore
SplineSet
178 646 m 1,0,-1
 126 683 l 1,1,2
 189 783 189 783 257 783 c 0,3,4
 278 783 278 783 299 772.5 c 128,-1,5
 320 762 320 762 328.5 754.5 c 128,-1,6
 337 747 337 747 350 734 c 0,7,8
 385 697 385 697 408 697 c 0,9,10
 421 697 421 697 432 705 c 128,-1,11
 443 713 443 713 452.5 727 c 128,-1,12
 462 741 462 741 475 758 c 1,13,-1
 518 712 l 1,14,15
 484 669 484 669 458.5 649.5 c 128,-1,16
 433 630 433 630 404 630 c 0,17,18
 381 630 381 630 359 643.5 c 128,-1,19
 337 657 337 657 322.5 673.5 c 128,-1,20
 308 690 308 690 289.5 703.5 c 128,-1,21
 271 717 271 717 254 717 c 0,22,23
 233 717 233 717 218 701.5 c 128,-1,24
 203 686 203 686 178 646 c 1,0,-1
115 467 m 1,25,26
 187 541 187 541 304 541 c 0,27,28
 366 541 366 541 414 518.5 c 128,-1,29
 462 496 462 496 488 453 c 0,30,31
 505 426 505 426 509.5 397 c 128,-1,32
 514 368 514 368 514 328 c 2,33,-1
 514 0 l 1,34,-1
 435 0 l 1,35,-1
 435 58 l 1,36,37
 348 -13 348 -13 245 -13 c 0,38,39
 165 -13 165 -13 116 31.5 c 128,-1,40
 67 76 67 76 67 137 c 0,41,42
 67 184 67 184 97.5 225 c 128,-1,43
 128 266 128 266 188 288 c 0,44,45
 219 300 219 300 263.5 305.5 c 128,-1,46
 308 311 308 311 334.5 311.5 c 128,-1,47
 361 312 361 312 417 312 c 2,48,-1
 434 312 l 1,49,-1
 434 331 l 2,50,51
 434 394 434 394 417 422 c 0,52,53
 386 473 386 473 308 473 c 0,54,55
 212 473 212 473 156 414 c 1,56,-1
 115 467 l 1,25,26
437 248 m 1,57,-1
 418 248 l 2,58,59
 382 249 382 249 328.5 248 c 128,-1,60
 275 247 275 247 244 240 c 0,61,62
 197 229 197 229 174 201.5 c 128,-1,63
 151 174 151 174 151 142 c 0,64,65
 151 105 151 105 181 78 c 128,-1,66
 211 51 211 51 262 51 c 0,67,68
 307 51 307 51 343.5 71 c 128,-1,69
 380 91 380 91 401 113 c 0,70,71
 418 131 418 131 426.5 151 c 128,-1,72
 435 171 435 171 436 182.5 c 128,-1,73
 437 194 437 194 437 213 c 2,74,-1
 437 248 l 1,57,-1
EndSplineSet
EndChar

StartChar: adieresis
Encoding: 228 228 166
Width: 600
GlyphClass: 2
Flags: W
LayerCount: 2
Fore
SplineSet
272 711.5 m 128,-1,1
 272 687 272 687 255 670 c 128,-1,2
 238 653 238 653 213.5 653 c 128,-1,3
 189 653 189 653 172 670 c 128,-1,4
 155 687 155 687 155 711.5 c 128,-1,5
 155 736 155 736 172 753 c 128,-1,6
 189 770 189 770 213.5 770 c 128,-1,7
 238 770 238 770 255 753 c 128,-1,0
 272 736 272 736 272 711.5 c 128,-1,1
478 711.5 m 128,-1,9
 478 687 478 687 461 670 c 128,-1,10
 444 653 444 653 420 653 c 128,-1,11
 396 653 396 653 379 670 c 128,-1,12
 362 687 362 687 362 711.5 c 128,-1,13
 362 736 362 736 379 753 c 128,-1,14
 396 770 396 770 420 770 c 128,-1,15
 444 770 444 770 461 753 c 128,-1,8
 478 736 478 736 478 711.5 c 128,-1,9
115 467 m 1,16,17
 187 541 187 541 304 541 c 0,18,19
 366 541 366 541 414 518.5 c 128,-1,20
 462 496 462 496 488 453 c 0,21,22
 505 426 505 426 509.5 397 c 128,-1,23
 514 368 514 368 514 328 c 2,24,-1
 514 0 l 1,25,-1
 435 0 l 1,26,-1
 435 58 l 1,27,28
 348 -13 348 -13 245 -13 c 0,29,30
 165 -13 165 -13 116 31.5 c 128,-1,31
 67 76 67 76 67 137 c 0,32,33
 67 184 67 184 97.5 225 c 128,-1,34
 128 266 128 266 188 288 c 0,35,36
 219 300 219 300 263.5 305.5 c 128,-1,37
 308 311 308 311 334.5 311.5 c 128,-1,38
 361 312 361 312 417 312 c 2,39,-1
 434 312 l 1,40,-1
 434 331 l 2,41,42
 434 394 434 394 417 422 c 0,43,44
 386 473 386 473 308 473 c 0,45,46
 212 473 212 473 156 414 c 1,47,-1
 115 467 l 1,16,17
437 248 m 1,48,-1
 418 248 l 2,49,50
 382 249 382 249 328.5 248 c 128,-1,51
 275 247 275 247 244 240 c 0,52,53
 197 229 197 229 174 201.5 c 128,-1,54
 151 174 151 174 151 142 c 0,55,56
 151 105 151 105 181 78 c 128,-1,57
 211 51 211 51 262 51 c 0,58,59
 307 51 307 51 343.5 71 c 128,-1,60
 380 91 380 91 401 113 c 0,61,62
 418 131 418 131 426.5 151 c 128,-1,63
 435 171 435 171 436 182.5 c 128,-1,64
 437 194 437 194 437 213 c 2,65,-1
 437 248 l 1,48,-1
EndSplineSet
EndChar

StartChar: aring
Encoding: 229 229 167
Width: 600
GlyphClass: 2
Flags: W
LayerCount: 2
Fore
SplineSet
413 701 m 128,-1,1
 413 659 413 659 382 629 c 128,-1,2
 351 599 351 599 307 599 c 128,-1,3
 263 599 263 599 232 629 c 128,-1,4
 201 659 201 659 201 701 c 128,-1,5
 201 743 201 743 232 773 c 128,-1,6
 263 803 263 803 307 803 c 128,-1,7
 351 803 351 803 382 773 c 128,-1,0
 413 743 413 743 413 701 c 128,-1,1
260 702 m 256,8,9
 260 680 260 680 274 664.5 c 128,-1,10
 288 649 288 649 308 649 c 128,-1,11
 328 649 328 649 342 664.5 c 128,-1,12
 356 680 356 680 356 702 c 256,13,14
 356 724 356 724 342 739.5 c 128,-1,15
 328 755 328 755 308 755 c 128,-1,16
 288 755 288 755 274 739.5 c 128,-1,17
 260 724 260 724 260 702 c 256,8,9
115 467 m 1,18,19
 187 541 187 541 304 541 c 0,20,21
 366 541 366 541 414 518.5 c 128,-1,22
 462 496 462 496 488 453 c 0,23,24
 505 426 505 426 509.5 397 c 128,-1,25
 514 368 514 368 514 328 c 2,26,-1
 514 0 l 1,27,-1
 435 0 l 1,28,-1
 435 58 l 1,29,30
 348 -13 348 -13 245 -13 c 0,31,32
 165 -13 165 -13 116 31.5 c 128,-1,33
 67 76 67 76 67 137 c 0,34,35
 67 184 67 184 97.5 225 c 128,-1,36
 128 266 128 266 188 288 c 0,37,38
 219 300 219 300 263.5 305.5 c 128,-1,39
 308 311 308 311 334.5 311.5 c 128,-1,40
 361 312 361 312 417 312 c 2,41,-1
 434 312 l 1,42,-1
 434 331 l 2,43,44
 434 394 434 394 417 422 c 0,45,46
 386 473 386 473 308 473 c 0,47,48
 212 473 212 473 156 414 c 1,49,-1
 115 467 l 1,18,19
437 248 m 1,50,-1
 418 248 l 2,51,52
 382 249 382 249 328.5 248 c 128,-1,53
 275 247 275 247 244 240 c 0,54,55
 197 229 197 229 174 201.5 c 128,-1,56
 151 174 151 174 151 142 c 0,57,58
 151 105 151 105 181 78 c 128,-1,59
 211 51 211 51 262 51 c 0,60,61
 307 51 307 51 343.5 71 c 128,-1,62
 380 91 380 91 401 113 c 0,63,64
 418 131 418 131 426.5 151 c 128,-1,65
 435 171 435 171 436 182.5 c 128,-1,66
 437 194 437 194 437 213 c 2,67,-1
 437 248 l 1,50,-1
EndSplineSet
EndChar

StartChar: ae
Encoding: 230 230 168
Width: 600
GlyphClass: 2
Flags: W
LayerCount: 2
Fore
SplineSet
46 477 m 1,0,1
 70 508 70 508 105.5 524.5 c 128,-1,2
 141 541 141 541 180 541 c 0,3,4
 222 541 222 541 256 521.5 c 128,-1,5
 290 502 290 502 309 469 c 1,6,7
 328 502 328 502 361 521.5 c 128,-1,8
 394 541 394 541 431 541 c 0,9,10
 464 541 464 541 495.5 524 c 128,-1,11
 527 507 527 507 547 473 c 0,12,13
 562 450 562 450 569 418.5 c 128,-1,14
 576 387 576 387 577 367 c 128,-1,15
 578 347 578 347 578 311 c 2,16,-1
 578 267 l 1,17,-1
 337 257 l 1,18,-1
 337 203 l 2,19,20
 337 154 337 154 349 127 c 0,21,22
 364 94 364 94 393 74.5 c 128,-1,23
 422 55 422 55 457 55 c 0,24,25
 511 55 511 55 542 97 c 1,26,-1
 583 49 l 1,27,28
 531 -13 531 -13 451 -13 c 0,29,30
 406 -13 406 -13 367.5 8.5 c 128,-1,31
 329 30 329 30 305 67 c 1,32,33
 286 30 286 30 251 8.5 c 128,-1,34
 216 -13 216 -13 174 -13 c 0,35,36
 111 -13 111 -13 66.5 32.5 c 128,-1,37
 22 78 22 78 22 143 c 0,38,39
 22 191 22 191 49 233.5 c 128,-1,40
 76 276 76 276 128 300 c 0,41,42
 171 319 171 319 240 322 c 2,43,-1
 266 323 l 1,44,-1
 266 353 l 2,45,46
 266 391 266 391 258 413 c 0,47,48
 248 442 248 442 225 459 c 128,-1,49
 202 476 202 476 174 476 c 0,50,51
 150 476 150 476 126.5 462.5 c 128,-1,52
 103 449 103 449 87 426 c 1,53,-1
 46 477 l 1,0,1
266 254 m 1,54,-1
 241 253 l 2,55,56
 180 251 180 251 151 236 c 0,57,58
 124 222 124 222 110 198 c 128,-1,59
 96 174 96 174 96 148 c 0,60,61
 96 110 96 110 121.5 84 c 128,-1,62
 147 58 147 58 182 58 c 0,63,64
 207 58 207 58 228 72 c 128,-1,65
 249 86 249 86 259 112 c 0,66,67
 265 130 265 130 266 156.5 c 128,-1,68
 267 183 267 183 266 210 c 2,69,-1
 266 254 l 1,54,-1
337 323 m 1,70,-1
 511 330 l 1,71,-1
 511 353 l 2,72,73
 511 400 511 400 500 425 c 0,74,75
 490 449 490 449 471 462.5 c 128,-1,76
 452 476 452 476 430 476 c 0,77,78
 388 476 388 476 359 433 c 0,79,80
 337 400 337 400 337 343 c 2,81,-1
 337 323 l 1,70,-1
EndSplineSet
EndChar

StartChar: ccedilla
Encoding: 231 231 169
Width: 600
GlyphClass: 2
Flags: W
LayerCount: 2
Fore
SplineSet
313 0 m 1,0,-1
 363 0 l 1,1,-1
 357 -55 l 1,2,-1
 376 -56 l 2,3,4
 406 -58 406 -58 421 -65 c 0,5,6
 455 -82 455 -82 455 -119 c 0,7,8
 455 -153 455 -153 422 -179 c 128,-1,9
 389 -205 389 -205 329 -205 c 0,10,11
 253 -205 253 -205 192 -162 c 1,12,-1
 221 -114 l 1,13,14
 272 -155 272 -155 336 -155 c 0,15,16
 366 -155 366 -155 377.5 -146 c 128,-1,17
 389 -137 389 -137 389 -127 c 0,18,19
 389 -114 389 -114 376 -107 c 0,20,21
 364 -99 364 -99 334 -99 c 2,22,-1
 300 -99 l 1,23,-1
 313 0 l 1,0,-1
539 442 m 1,24,-1
 480 373 l 1,25,26
 475 377 475 377 474.5 387 c 128,-1,27
 474 397 474 397 473 400 c 0,28,29
 470 404 470 404 462 413.5 c 128,-1,30
 454 423 454 423 437.5 436.5 c 128,-1,31
 421 450 421 450 394 459.5 c 128,-1,32
 367 469 367 469 336 469 c 0,33,34
 261 469 261 469 211 415.5 c 128,-1,35
 161 362 161 362 161 273 c 0,36,37
 161 181 161 181 213 122 c 128,-1,38
 265 63 265 63 343 63 c 0,39,40
 427 63 427 63 483 127 c 1,41,-1
 531 71 l 1,42,43
 493 30 493 30 442.5 8.5 c 128,-1,44
 392 -13 392 -13 336 -13 c 0,45,46
 223 -13 223 -13 149 66 c 128,-1,47
 75 145 75 145 75 264.5 c 128,-1,48
 75 384 75 384 150 462 c 128,-1,49
 225 540 225 540 341 540 c 0,50,51
 404 540 404 540 455.5 514 c 128,-1,52
 507 488 507 488 539 442 c 1,24,-1
EndSplineSet
EndChar

StartChar: egrave
Encoding: 232 232 170
Width: 600
GlyphClass: 2
Flags: W
LayerCount: 2
Fore
SplineSet
292 810 m 1,0,-1
 219 761 l 1,1,-1
 336 605 l 1,2,-1
 394 640 l 1,3,-1
 292 810 l 1,0,-1
310 542 m 0,4,5
 344 542 344 542 376 532.5 c 128,-1,6
 408 523 408 523 437.5 502 c 128,-1,7
 467 481 467 481 489 443 c 128,-1,8
 511 405 511 405 519 354 c 0,9,10
 528 305 528 305 523 253 c 1,11,-1
 147 253 l 1,12,13
 150 197 150 197 168 156 c 128,-1,14
 186 115 186 115 213.5 94.5 c 128,-1,15
 241 74 241 74 269 64.5 c 128,-1,16
 297 55 297 55 327 55 c 0,17,18
 411 55 411 55 464 115 c 1,19,-1
 510 70 l 1,20,21
 442 -12 442 -12 320 -12 c 0,22,23
 209 -12 209 -12 137.5 59 c 128,-1,24
 66 130 66 130 66 259 c 0,25,26
 66 329 66 329 86 384 c 128,-1,27
 106 439 106 439 140.5 473 c 128,-1,28
 175 507 175 507 218 524.5 c 128,-1,29
 261 542 261 542 310 542 c 0,4,5
150 317 m 1,30,-1
 441 317 l 1,31,32
 449 382 449 382 408.5 430 c 128,-1,33
 368 478 368 478 304 478 c 0,34,35
 281 478 281 478 258 470 c 128,-1,36
 235 462 235 462 212 444.5 c 128,-1,37
 189 427 189 427 172.5 394 c 128,-1,38
 156 361 156 361 150 317 c 1,30,-1
EndSplineSet
EndChar

StartChar: eacute
Encoding: 233 233 171
Width: 600
GlyphClass: 2
Flags: W
LayerCount: 2
Fore
SplineSet
348 810 m 1,0,-1
 421 761 l 1,1,-1
 304 605 l 1,2,-1
 246 640 l 1,3,-1
 348 810 l 1,0,-1
310 542 m 0,4,5
 344 542 344 542 376 532.5 c 128,-1,6
 408 523 408 523 437.5 502 c 128,-1,7
 467 481 467 481 489 443 c 128,-1,8
 511 405 511 405 519 354 c 0,9,10
 528 305 528 305 523 253 c 1,11,-1
 147 253 l 1,12,13
 150 197 150 197 168 156 c 128,-1,14
 186 115 186 115 213.5 94.5 c 128,-1,15
 241 74 241 74 269 64.5 c 128,-1,16
 297 55 297 55 327 55 c 0,17,18
 411 55 411 55 464 115 c 1,19,-1
 510 70 l 1,20,21
 442 -12 442 -12 320 -12 c 0,22,23
 209 -12 209 -12 137.5 59 c 128,-1,24
 66 130 66 130 66 259 c 0,25,26
 66 329 66 329 86 384 c 128,-1,27
 106 439 106 439 140.5 473 c 128,-1,28
 175 507 175 507 218 524.5 c 128,-1,29
 261 542 261 542 310 542 c 0,4,5
150 317 m 1,30,-1
 441 317 l 1,31,32
 449 382 449 382 408.5 430 c 128,-1,33
 368 478 368 478 304 478 c 0,34,35
 281 478 281 478 258 470 c 128,-1,36
 235 462 235 462 212 444.5 c 128,-1,37
 189 427 189 427 172.5 394 c 128,-1,38
 156 361 156 361 150 317 c 1,30,-1
EndSplineSet
EndChar

StartChar: ecircumflex
Encoding: 234 234 172
Width: 600
GlyphClass: 2
Flags: W
LayerCount: 2
Fore
SplineSet
165 631 m 1,0,-1
 294 794 l 1,1,-1
 319 794 l 1,2,-1
 447 630 l 1,3,-1
 393 590 l 1,4,-1
 303 709 l 1,5,-1
 209 591 l 1,6,-1
 165 631 l 1,0,-1
310 542 m 0,7,8
 344 542 344 542 376 532.5 c 128,-1,9
 408 523 408 523 437.5 502 c 128,-1,10
 467 481 467 481 489 443 c 128,-1,11
 511 405 511 405 519 354 c 0,12,13
 528 305 528 305 523 253 c 1,14,-1
 147 253 l 1,15,16
 150 197 150 197 168 156 c 128,-1,17
 186 115 186 115 213.5 94.5 c 128,-1,18
 241 74 241 74 269 64.5 c 128,-1,19
 297 55 297 55 327 55 c 0,20,21
 411 55 411 55 464 115 c 1,22,-1
 510 70 l 1,23,24
 442 -12 442 -12 320 -12 c 0,25,26
 209 -12 209 -12 137.5 59 c 128,-1,27
 66 130 66 130 66 259 c 0,28,29
 66 329 66 329 86 384 c 128,-1,30
 106 439 106 439 140.5 473 c 128,-1,31
 175 507 175 507 218 524.5 c 128,-1,32
 261 542 261 542 310 542 c 0,7,8
150 317 m 1,33,-1
 441 317 l 1,34,35
 449 382 449 382 408.5 430 c 128,-1,36
 368 478 368 478 304 478 c 0,37,38
 281 478 281 478 258 470 c 128,-1,39
 235 462 235 462 212 444.5 c 128,-1,40
 189 427 189 427 172.5 394 c 128,-1,41
 156 361 156 361 150 317 c 1,33,-1
EndSplineSet
EndChar

StartChar: edieresis
Encoding: 235 235 173
Width: 600
GlyphClass: 2
Flags: W
LayerCount: 2
Fore
SplineSet
259 711.5 m 128,-1,1
 259 687 259 687 242 670 c 128,-1,2
 225 653 225 653 200.5 653 c 128,-1,3
 176 653 176 653 159 670 c 128,-1,4
 142 687 142 687 142 711.5 c 128,-1,5
 142 736 142 736 159 753 c 128,-1,6
 176 770 176 770 200.5 770 c 128,-1,7
 225 770 225 770 242 753 c 128,-1,0
 259 736 259 736 259 711.5 c 128,-1,1
465 711.5 m 128,-1,9
 465 687 465 687 448 670 c 128,-1,10
 431 653 431 653 407 653 c 128,-1,11
 383 653 383 653 366 670 c 128,-1,12
 349 687 349 687 349 711.5 c 128,-1,13
 349 736 349 736 366 753 c 128,-1,14
 383 770 383 770 407 770 c 128,-1,15
 431 770 431 770 448 753 c 128,-1,8
 465 736 465 736 465 711.5 c 128,-1,9
310 542 m 0,16,17
 344 542 344 542 376 532.5 c 128,-1,18
 408 523 408 523 437.5 502 c 128,-1,19
 467 481 467 481 489 443 c 128,-1,20
 511 405 511 405 519 354 c 0,21,22
 528 305 528 305 523 253 c 1,23,-1
 147 253 l 1,24,25
 150 197 150 197 168 156 c 128,-1,26
 186 115 186 115 213.5 94.5 c 128,-1,27
 241 74 241 74 269 64.5 c 128,-1,28
 297 55 297 55 327 55 c 0,29,30
 411 55 411 55 464 115 c 1,31,-1
 510 70 l 1,32,33
 442 -12 442 -12 320 -12 c 0,34,35
 209 -12 209 -12 137.5 59 c 128,-1,36
 66 130 66 130 66 259 c 0,37,38
 66 329 66 329 86 384 c 128,-1,39
 106 439 106 439 140.5 473 c 128,-1,40
 175 507 175 507 218 524.5 c 128,-1,41
 261 542 261 542 310 542 c 0,16,17
150 317 m 1,42,-1
 441 317 l 1,43,44
 449 382 449 382 408.5 430 c 128,-1,45
 368 478 368 478 304 478 c 0,46,47
 281 478 281 478 258 470 c 128,-1,48
 235 462 235 462 212 444.5 c 128,-1,49
 189 427 189 427 172.5 394 c 128,-1,50
 156 361 156 361 150 317 c 1,42,-1
EndSplineSet
EndChar

StartChar: igrave
Encoding: 236 236 174
Width: 600
GlyphClass: 2
Flags: W
LayerCount: 2
Fore
SplineSet
242 810 m 1,0,-1
 169 761 l 1,1,-1
 286 605 l 1,2,-1
 344 640 l 1,3,-1
 242 810 l 1,0,-1
133 530 m 1,4,-1
 345 530 l 1,5,-1
 345 67 l 1,6,-1
 469 67 l 1,7,-1
 469 0 l 1,8,-1
 126 0 l 1,9,-1
 126 67 l 1,10,-1
 261 67 l 1,11,-1
 261 462 l 1,12,-1
 133 462 l 1,13,-1
 133 530 l 1,4,-1
EndSplineSet
EndChar

StartChar: iacute
Encoding: 237 237 175
Width: 600
GlyphClass: 2
Flags: W
LayerCount: 2
Fore
SplineSet
348 810 m 1,0,-1
 421 761 l 1,1,-1
 304 605 l 1,2,-1
 246 640 l 1,3,-1
 348 810 l 1,0,-1
133 530 m 1,4,-1
 345 530 l 1,5,-1
 345 67 l 1,6,-1
 469 67 l 1,7,-1
 469 0 l 1,8,-1
 126 0 l 1,9,-1
 126 67 l 1,10,-1
 261 67 l 1,11,-1
 261 462 l 1,12,-1
 133 462 l 1,13,-1
 133 530 l 1,4,-1
EndSplineSet
EndChar

StartChar: icircumflex
Encoding: 238 238 176
Width: 600
GlyphClass: 2
Flags: W
LayerCount: 2
Fore
SplineSet
151 631 m 1,0,-1
 280 794 l 1,1,-1
 305 794 l 1,2,-1
 433 630 l 1,3,-1
 379 590 l 1,4,-1
 289 709 l 1,5,-1
 195 591 l 1,6,-1
 151 631 l 1,0,-1
133 530 m 1,7,-1
 345 530 l 1,8,-1
 345 67 l 1,9,-1
 469 67 l 1,10,-1
 469 0 l 1,11,-1
 126 0 l 1,12,-1
 126 67 l 1,13,-1
 261 67 l 1,14,-1
 261 462 l 1,15,-1
 133 462 l 1,16,-1
 133 530 l 1,7,-1
EndSplineSet
EndChar

StartChar: idieresis
Encoding: 239 239 177
Width: 600
GlyphClass: 2
Flags: W
LayerCount: 2
Fore
SplineSet
255 711.5 m 128,-1,1
 255 687 255 687 238 670 c 128,-1,2
 221 653 221 653 196.5 653 c 128,-1,3
 172 653 172 653 155 670 c 128,-1,4
 138 687 138 687 138 711.5 c 128,-1,5
 138 736 138 736 155 753 c 128,-1,6
 172 770 172 770 196.5 770 c 128,-1,7
 221 770 221 770 238 753 c 128,-1,0
 255 736 255 736 255 711.5 c 128,-1,1
461 711.5 m 128,-1,9
 461 687 461 687 444 670 c 128,-1,10
 427 653 427 653 403 653 c 128,-1,11
 379 653 379 653 362 670 c 128,-1,12
 345 687 345 687 345 711.5 c 128,-1,13
 345 736 345 736 362 753 c 128,-1,14
 379 770 379 770 403 770 c 128,-1,15
 427 770 427 770 444 753 c 128,-1,8
 461 736 461 736 461 711.5 c 128,-1,9
133 530 m 1,16,-1
 345 530 l 1,17,-1
 345 67 l 1,18,-1
 469 67 l 1,19,-1
 469 0 l 1,20,-1
 126 0 l 1,21,-1
 126 67 l 1,22,-1
 261 67 l 1,23,-1
 261 462 l 1,24,-1
 133 462 l 1,25,-1
 133 530 l 1,16,-1
EndSplineSet
EndChar

StartChar: eth
Encoding: 240 240 178
Width: 600
GlyphClass: 2
Flags: W
LayerCount: 2
Fore
SplineSet
305 470 m 0,0,1
 241 470 241 470 193 417.5 c 128,-1,2
 145 365 145 365 145 269 c 0,3,4
 145 172 145 172 192.5 115 c 128,-1,5
 240 58 240 58 306 58 c 0,6,7
 333 58 333 58 358 69 c 128,-1,8
 383 80 383 80 406.5 102.5 c 128,-1,9
 430 125 430 125 444.5 168 c 128,-1,10
 459 211 459 211 459 269 c 0,11,12
 459 326 459 326 444 367.5 c 128,-1,13
 429 409 429 409 404.5 430 c 128,-1,14
 380 451 380 451 355 460.5 c 128,-1,15
 330 470 330 470 305 470 c 0,0,1
412 661 m 1,16,17
 543 512 543 512 543 293 c 0,18,19
 543 169 543 169 498 95 c 0,20,21
 467 42 467 42 416 14 c 128,-1,22
 365 -14 365 -14 307 -14 c 0,23,24
 204 -14 204 -14 130.5 63.5 c 128,-1,25
 57 141 57 141 57 258 c 0,26,27
 57 376 57 376 128.5 458.5 c 128,-1,28
 200 541 200 541 298 541 c 0,29,30
 381 541 381 541 437 481 c 1,31,32
 402 570 402 570 338 640 c 1,33,-1
 190 598 l 1,34,-1
 169 653 l 1,35,-1
 289 686 l 1,36,37
 235 731 235 731 171 760 c 1,38,-1
 265 779 l 1,39,40
 320 748 320 748 366 707 c 1,41,-1
 491 741 l 1,42,-1
 511 689 l 1,43,-1
 412 661 l 1,16,17
EndSplineSet
EndChar

StartChar: ntilde
Encoding: 241 241 179
Width: 600
GlyphClass: 2
Flags: W
LayerCount: 2
Fore
SplineSet
161 646 m 1,0,-1
 109 683 l 1,1,2
 172 783 172 783 240 783 c 0,3,4
 261 783 261 783 282 772.5 c 128,-1,5
 303 762 303 762 311.5 754.5 c 128,-1,6
 320 747 320 747 333 734 c 0,7,8
 368 697 368 697 391 697 c 0,9,10
 404 697 404 697 415 705 c 128,-1,11
 426 713 426 713 435.5 727 c 128,-1,12
 445 741 445 741 458 758 c 1,13,-1
 501 712 l 1,14,15
 467 669 467 669 441.5 649.5 c 128,-1,16
 416 630 416 630 387 630 c 0,17,18
 364 630 364 630 342 643.5 c 128,-1,19
 320 657 320 657 305.5 673.5 c 128,-1,20
 291 690 291 690 272.5 703.5 c 128,-1,21
 254 717 254 717 237 717 c 0,22,23
 216 717 216 717 201 701.5 c 128,-1,24
 186 686 186 686 161 646 c 1,0,-1
89 0 m 1,25,-1
 89 529 l 1,26,-1
 174 529 l 1,27,-1
 174 436 l 1,28,29
 205 483 205 483 251.5 512.5 c 128,-1,30
 298 542 298 542 350 542 c 0,31,32
 396 542 396 542 433.5 517.5 c 128,-1,33
 471 493 471 493 491 449 c 0,34,35
 510 405 510 405 510 321 c 2,36,-1
 510 0 l 1,37,-1
 428 0 l 1,38,-1
 428 319 l 2,39,40
 428 344 428 344 427 359.5 c 128,-1,41
 426 375 426 375 419 397.5 c 128,-1,42
 412 420 412 420 399 436 c 0,43,44
 371 470 371 470 327 470 c 0,45,46
 290 470 290 470 255 446 c 128,-1,47
 220 422 220 422 200 396 c 0,48,49
 174 361 174 361 174 305 c 2,50,-1
 174 0 l 1,51,-1
 89 0 l 1,25,-1
EndSplineSet
EndChar

StartChar: ograve
Encoding: 242 242 180
Width: 600
GlyphClass: 2
Flags: W
LayerCount: 2
Fore
SplineSet
292 810 m 1,0,-1
 219 761 l 1,1,-1
 336 605 l 1,2,-1
 394 640 l 1,3,-1
 292 810 l 1,0,-1
543 262 m 0,4,5
 543 136 543 136 473.5 61 c 128,-1,6
 404 -14 404 -14 305 -14 c 0,7,8
 203 -14 203 -14 130 64 c 128,-1,9
 57 142 57 142 57 261 c 0,10,11
 57 381 57 381 130.5 461 c 128,-1,12
 204 541 204 541 307 541 c 0,13,14
 353 541 353 541 395 523 c 128,-1,15
 437 505 437 505 470.5 471 c 128,-1,16
 504 437 504 437 523.5 383 c 128,-1,17
 543 329 543 329 543 262 c 0,4,5
302 470 m 0,18,19
 237 470 237 470 191 415.5 c 128,-1,20
 145 361 145 361 145 268 c 0,21,22
 145 173 145 173 192.5 115.5 c 128,-1,23
 240 58 240 58 306 58 c 0,24,25
 368 58 368 58 413.5 111 c 128,-1,26
 459 164 459 164 459 259 c 0,27,28
 459 361 459 361 412 415.5 c 128,-1,29
 365 470 365 470 302 470 c 0,18,19
EndSplineSet
EndChar

StartChar: oacute
Encoding: 243 243 181
Width: 600
GlyphClass: 2
Flags: W
LayerCount: 2
Fore
SplineSet
348 810 m 1,0,-1
 421 761 l 1,1,-1
 304 605 l 1,2,-1
 246 640 l 1,3,-1
 348 810 l 1,0,-1
543 262 m 0,4,5
 543 136 543 136 473.5 61 c 128,-1,6
 404 -14 404 -14 305 -14 c 0,7,8
 203 -14 203 -14 130 64 c 128,-1,9
 57 142 57 142 57 261 c 0,10,11
 57 381 57 381 130.5 461 c 128,-1,12
 204 541 204 541 307 541 c 0,13,14
 353 541 353 541 395 523 c 128,-1,15
 437 505 437 505 470.5 471 c 128,-1,16
 504 437 504 437 523.5 383 c 128,-1,17
 543 329 543 329 543 262 c 0,4,5
302 470 m 0,18,19
 237 470 237 470 191 415.5 c 128,-1,20
 145 361 145 361 145 268 c 0,21,22
 145 173 145 173 192.5 115.5 c 128,-1,23
 240 58 240 58 306 58 c 0,24,25
 368 58 368 58 413.5 111 c 128,-1,26
 459 164 459 164 459 259 c 0,27,28
 459 361 459 361 412 415.5 c 128,-1,29
 365 470 365 470 302 470 c 0,18,19
EndSplineSet
EndChar

StartChar: ocircumflex
Encoding: 244 244 182
Width: 600
GlyphClass: 2
Flags: W
LayerCount: 2
Fore
SplineSet
165 631 m 1,0,-1
 294 794 l 1,1,-1
 319 794 l 1,2,-1
 447 630 l 1,3,-1
 393 590 l 1,4,-1
 303 709 l 1,5,-1
 209 591 l 1,6,-1
 165 631 l 1,0,-1
543 262 m 0,7,8
 543 136 543 136 473.5 61 c 128,-1,9
 404 -14 404 -14 305 -14 c 0,10,11
 203 -14 203 -14 130 64 c 128,-1,12
 57 142 57 142 57 261 c 0,13,14
 57 381 57 381 130.5 461 c 128,-1,15
 204 541 204 541 307 541 c 0,16,17
 353 541 353 541 395 523 c 128,-1,18
 437 505 437 505 470.5 471 c 128,-1,19
 504 437 504 437 523.5 383 c 128,-1,20
 543 329 543 329 543 262 c 0,7,8
302 470 m 0,21,22
 237 470 237 470 191 415.5 c 128,-1,23
 145 361 145 361 145 268 c 0,24,25
 145 173 145 173 192.5 115.5 c 128,-1,26
 240 58 240 58 306 58 c 0,27,28
 368 58 368 58 413.5 111 c 128,-1,29
 459 164 459 164 459 259 c 0,30,31
 459 361 459 361 412 415.5 c 128,-1,32
 365 470 365 470 302 470 c 0,21,22
EndSplineSet
EndChar

StartChar: otilde
Encoding: 245 245 183
Width: 600
GlyphClass: 2
Flags: W
LayerCount: 2
Fore
SplineSet
167 646 m 1,0,-1
 115 683 l 1,1,2
 178 783 178 783 246 783 c 0,3,4
 267 783 267 783 288 772.5 c 128,-1,5
 309 762 309 762 317.5 754.5 c 128,-1,6
 326 747 326 747 339 734 c 0,7,8
 374 697 374 697 397 697 c 0,9,10
 410 697 410 697 421 705 c 128,-1,11
 432 713 432 713 441.5 727 c 128,-1,12
 451 741 451 741 464 758 c 1,13,-1
 507 712 l 1,14,15
 473 669 473 669 447.5 649.5 c 128,-1,16
 422 630 422 630 393 630 c 0,17,18
 370 630 370 630 348 643.5 c 128,-1,19
 326 657 326 657 311.5 673.5 c 128,-1,20
 297 690 297 690 278.5 703.5 c 128,-1,21
 260 717 260 717 243 717 c 0,22,23
 222 717 222 717 207 701.5 c 128,-1,24
 192 686 192 686 167 646 c 1,0,-1
543 262 m 0,25,26
 543 136 543 136 473.5 61 c 128,-1,27
 404 -14 404 -14 305 -14 c 0,28,29
 203 -14 203 -14 130 64 c 128,-1,30
 57 142 57 142 57 261 c 0,31,32
 57 381 57 381 130.5 461 c 128,-1,33
 204 541 204 541 307 541 c 0,34,35
 353 541 353 541 395 523 c 128,-1,36
 437 505 437 505 470.5 471 c 128,-1,37
 504 437 504 437 523.5 383 c 128,-1,38
 543 329 543 329 543 262 c 0,25,26
302 470 m 0,39,40
 237 470 237 470 191 415.5 c 128,-1,41
 145 361 145 361 145 268 c 0,42,43
 145 173 145 173 192.5 115.5 c 128,-1,44
 240 58 240 58 306 58 c 0,45,46
 368 58 368 58 413.5 111 c 128,-1,47
 459 164 459 164 459 259 c 0,48,49
 459 361 459 361 412 415.5 c 128,-1,50
 365 470 365 470 302 470 c 0,39,40
EndSplineSet
EndChar

StartChar: odieresis
Encoding: 246 246 184
Width: 600
GlyphClass: 2
Flags: W
LayerCount: 2
Fore
SplineSet
257 711.5 m 128,-1,1
 257 687 257 687 240 670 c 128,-1,2
 223 653 223 653 198.5 653 c 128,-1,3
 174 653 174 653 157 670 c 128,-1,4
 140 687 140 687 140 711.5 c 128,-1,5
 140 736 140 736 157 753 c 128,-1,6
 174 770 174 770 198.5 770 c 128,-1,7
 223 770 223 770 240 753 c 128,-1,0
 257 736 257 736 257 711.5 c 128,-1,1
463 711.5 m 128,-1,9
 463 687 463 687 446 670 c 128,-1,10
 429 653 429 653 405 653 c 128,-1,11
 381 653 381 653 364 670 c 128,-1,12
 347 687 347 687 347 711.5 c 128,-1,13
 347 736 347 736 364 753 c 128,-1,14
 381 770 381 770 405 770 c 128,-1,15
 429 770 429 770 446 753 c 128,-1,8
 463 736 463 736 463 711.5 c 128,-1,9
543 262 m 0,16,17
 543 136 543 136 473.5 61 c 128,-1,18
 404 -14 404 -14 305 -14 c 0,19,20
 203 -14 203 -14 130 64 c 128,-1,21
 57 142 57 142 57 261 c 0,22,23
 57 381 57 381 130.5 461 c 128,-1,24
 204 541 204 541 307 541 c 0,25,26
 353 541 353 541 395 523 c 128,-1,27
 437 505 437 505 470.5 471 c 128,-1,28
 504 437 504 437 523.5 383 c 128,-1,29
 543 329 543 329 543 262 c 0,16,17
302 470 m 0,30,31
 237 470 237 470 191 415.5 c 128,-1,32
 145 361 145 361 145 268 c 0,33,34
 145 173 145 173 192.5 115.5 c 128,-1,35
 240 58 240 58 306 58 c 0,36,37
 368 58 368 58 413.5 111 c 128,-1,38
 459 164 459 164 459 259 c 0,39,40
 459 361 459 361 412 415.5 c 128,-1,41
 365 470 365 470 302 470 c 0,30,31
EndSplineSet
EndChar

StartChar: divide
Encoding: 247 247 185
Width: 600
GlyphClass: 2
Flags: W
LayerCount: 2
Fore
SplineSet
92 403 m 1,0,-1
 509 403 l 1,1,-1
 509 326 l 1,2,-1
 92 326 l 1,3,-1
 92 403 l 1,0,-1
358 541 m 128,-1,5
 358 519 358 519 343 504 c 128,-1,6
 328 489 328 489 306 489 c 128,-1,7
 284 489 284 489 269 504 c 128,-1,8
 254 519 254 519 254 541 c 128,-1,9
 254 563 254 563 269 578 c 128,-1,10
 284 593 284 593 306 593 c 128,-1,11
 328 593 328 593 343 578 c 128,-1,4
 358 563 358 563 358 541 c 128,-1,5
358 184 m 128,-1,13
 358 162 358 162 343 147 c 128,-1,14
 328 132 328 132 306 132 c 128,-1,15
 284 132 284 132 269 147 c 128,-1,16
 254 162 254 162 254 184 c 128,-1,17
 254 206 254 206 269 221 c 128,-1,18
 284 236 284 236 306 236 c 128,-1,19
 328 236 328 236 343 221 c 128,-1,12
 358 206 358 206 358 184 c 128,-1,13
EndSplineSet
EndChar

StartChar: oslash
Encoding: 248 248 186
Width: 600
GlyphClass: 2
Flags: W
LayerCount: 2
Fore
SplineSet
302 470 m 0,0,1
 237 470 237 470 191 415.5 c 128,-1,2
 145 361 145 361 145 268 c 0,3,4
 145 185 145 185 184 127 c 1,5,-1
 362 456 l 1,6,7
 333 470 333 470 302 470 c 0,0,1
543 262 m 0,8,9
 543 136 543 136 473.5 61 c 128,-1,10
 404 -14 404 -14 305 -14 c 0,11,12
 249 -14 249 -14 198 12 c 1,13,-1
 151 -74 l 1,14,-1
 91 -43 l 1,15,-1
 142 51 l 1,16,17
 57 132 57 132 57 261 c 0,18,19
 57 381 57 381 130.5 461 c 128,-1,20
 204 541 204 541 307 541 c 0,21,22
 355 541 355 541 398 522 c 1,23,-1
 441 601 l 1,24,-1
 503 568 l 1,25,-1
 457 484 l 1,26,27
 543 406 543 406 543 262 c 0,8,9
416 410 m 1,28,-1
 234 78 l 1,29,30
 268 58 268 58 306 58 c 0,31,32
 368 58 368 58 413.5 111 c 128,-1,33
 459 164 459 164 459 259 c 0,34,35
 459 353 459 353 416 410 c 1,28,-1
EndSplineSet
EndChar

StartChar: ugrave
Encoding: 249 249 187
Width: 600
GlyphClass: 2
Flags: W
LayerCount: 2
Fore
SplineSet
292 810 m 1,0,-1
 219 761 l 1,1,-1
 336 605 l 1,2,-1
 394 640 l 1,3,-1
 292 810 l 1,0,-1
83 529 m 1,4,-1
 167 529 l 1,5,-1
 167 234 l 2,6,7
 167 157 167 157 186 120 c 0,8,9
 201 89 201 89 228 72 c 128,-1,10
 255 55 255 55 287 55 c 0,11,12
 324 55 324 55 357 77 c 128,-1,13
 390 99 390 99 409 133 c 0,14,15
 430 172 430 172 430 238 c 2,16,-1
 430 529 l 1,17,-1
 514 529 l 1,18,-1
 514 48 l 2,19,20
 514 19 514 19 520 0 c 1,21,-1
 432 0 l 1,22,23
 429 16 429 16 430 41 c 2,24,-1
 431 81 l 1,25,26
 405 37 405 37 361 12 c 128,-1,27
 317 -13 317 -13 268 -13 c 0,28,29
 215 -13 215 -13 170.5 15.5 c 128,-1,30
 126 44 126 44 103 95 c 0,31,32
 82 143 82 143 82 234 c 2,33,-1
 83 529 l 1,4,-1
EndSplineSet
EndChar

StartChar: uacute
Encoding: 250 250 188
Width: 600
GlyphClass: 2
Flags: W
LayerCount: 2
Fore
SplineSet
348 810 m 1,0,-1
 421 761 l 1,1,-1
 304 605 l 1,2,-1
 246 640 l 1,3,-1
 348 810 l 1,0,-1
83 529 m 1,4,-1
 167 529 l 1,5,-1
 167 234 l 2,6,7
 167 157 167 157 186 120 c 0,8,9
 201 89 201 89 228 72 c 128,-1,10
 255 55 255 55 287 55 c 0,11,12
 324 55 324 55 357 77 c 128,-1,13
 390 99 390 99 409 133 c 0,14,15
 430 172 430 172 430 238 c 2,16,-1
 430 529 l 1,17,-1
 514 529 l 1,18,-1
 514 48 l 2,19,20
 514 19 514 19 520 0 c 1,21,-1
 432 0 l 1,22,23
 429 16 429 16 430 41 c 2,24,-1
 431 81 l 1,25,26
 405 37 405 37 361 12 c 128,-1,27
 317 -13 317 -13 268 -13 c 0,28,29
 215 -13 215 -13 170.5 15.5 c 128,-1,30
 126 44 126 44 103 95 c 0,31,32
 82 143 82 143 82 234 c 2,33,-1
 83 529 l 1,4,-1
EndSplineSet
EndChar

StartChar: ucircumflex
Encoding: 251 251 189
Width: 600
GlyphClass: 2
Flags: W
LayerCount: 2
Fore
SplineSet
165 631 m 1,0,-1
 294 794 l 1,1,-1
 319 794 l 1,2,-1
 447 630 l 1,3,-1
 393 590 l 1,4,-1
 303 709 l 1,5,-1
 209 591 l 1,6,-1
 165 631 l 1,0,-1
83 529 m 1,7,-1
 167 529 l 1,8,-1
 167 234 l 2,9,10
 167 157 167 157 186 120 c 0,11,12
 201 89 201 89 228 72 c 128,-1,13
 255 55 255 55 287 55 c 0,14,15
 324 55 324 55 357 77 c 128,-1,16
 390 99 390 99 409 133 c 0,17,18
 430 172 430 172 430 238 c 2,19,-1
 430 529 l 1,20,-1
 514 529 l 1,21,-1
 514 48 l 2,22,23
 514 19 514 19 520 0 c 1,24,-1
 432 0 l 1,25,26
 429 16 429 16 430 41 c 2,27,-1
 431 81 l 1,28,29
 405 37 405 37 361 12 c 128,-1,30
 317 -13 317 -13 268 -13 c 0,31,32
 215 -13 215 -13 170.5 15.5 c 128,-1,33
 126 44 126 44 103 95 c 0,34,35
 82 143 82 143 82 234 c 2,36,-1
 83 529 l 1,7,-1
EndSplineSet
EndChar

StartChar: udieresis
Encoding: 252 252 190
Width: 600
GlyphClass: 2
Flags: W
LayerCount: 2
Fore
SplineSet
257 711.5 m 128,-1,1
 257 687 257 687 240 670 c 128,-1,2
 223 653 223 653 198.5 653 c 128,-1,3
 174 653 174 653 157 670 c 128,-1,4
 140 687 140 687 140 711.5 c 128,-1,5
 140 736 140 736 157 753 c 128,-1,6
 174 770 174 770 198.5 770 c 128,-1,7
 223 770 223 770 240 753 c 128,-1,0
 257 736 257 736 257 711.5 c 128,-1,1
463 711.5 m 128,-1,9
 463 687 463 687 446 670 c 128,-1,10
 429 653 429 653 405 653 c 128,-1,11
 381 653 381 653 364 670 c 128,-1,12
 347 687 347 687 347 711.5 c 128,-1,13
 347 736 347 736 364 753 c 128,-1,14
 381 770 381 770 405 770 c 128,-1,15
 429 770 429 770 446 753 c 128,-1,8
 463 736 463 736 463 711.5 c 128,-1,9
83 529 m 1,16,-1
 167 529 l 1,17,-1
 167 234 l 2,18,19
 167 157 167 157 186 120 c 0,20,21
 201 89 201 89 228 72 c 128,-1,22
 255 55 255 55 287 55 c 0,23,24
 324 55 324 55 357 77 c 128,-1,25
 390 99 390 99 409 133 c 0,26,27
 430 172 430 172 430 238 c 2,28,-1
 430 529 l 1,29,-1
 514 529 l 1,30,-1
 514 48 l 2,31,32
 514 19 514 19 520 0 c 1,33,-1
 432 0 l 1,34,35
 429 16 429 16 430 41 c 2,36,-1
 431 81 l 1,37,38
 405 37 405 37 361 12 c 128,-1,39
 317 -13 317 -13 268 -13 c 0,40,41
 215 -13 215 -13 170.5 15.5 c 128,-1,42
 126 44 126 44 103 95 c 0,43,44
 82 143 82 143 82 234 c 2,45,-1
 83 529 l 1,16,-1
EndSplineSet
EndChar

StartChar: yacute
Encoding: 253 253 191
Width: 600
GlyphClass: 2
Flags: W
LayerCount: 2
Fore
SplineSet
348 810 m 1,0,-1
 421 761 l 1,1,-1
 304 605 l 1,2,-1
 246 640 l 1,3,-1
 348 810 l 1,0,-1
63 529 m 1,4,-1
 167 529 l 1,5,6
 167 523 167 523 164.5 515.5 c 128,-1,7
 162 508 162 508 162 504 c 128,-1,8
 162 500 162 500 164 495 c 2,9,-1
 319 105 l 1,10,-1
 420 389 l 2,11,12
 450 472 450 472 460 530 c 1,13,-1
 547 530 l 1,14,15
 528 468 528 468 494 377 c 2,16,-1
 329 -60 l 2,17,18
 308 -117 308 -117 283 -144 c 0,19,20
 232 -201 232 -201 151 -201 c 0,21,22
 82 -201 82 -201 36 -157 c 1,23,-1
 79 -82 l 1,24,25
 83 -85 83 -85 85.5 -92.5 c 128,-1,26
 88 -100 88 -100 88 -101 c 0,27,28
 91 -105 91 -105 97 -111.5 c 128,-1,29
 103 -118 103 -118 118 -125.5 c 128,-1,30
 133 -133 133 -133 150 -133 c 0,31,32
 192 -133 192 -133 224 -98 c 0,33,34
 243 -79 243 -79 261 -37 c 2,35,-1
 278 2 l 1,36,-1
 63 529 l 1,4,-1
EndSplineSet
EndChar

StartChar: thorn
Encoding: 254 254 192
Width: 600
GlyphClass: 2
Flags: W
LayerCount: 2
Fore
SplineSet
80 770 m 1,0,-1
 172 770 l 1,1,2
 172 762 172 762 168 751.5 c 128,-1,3
 164 741 164 741 164 732 c 2,4,-1
 164 448 l 1,5,6
 191 491 191 491 235.5 516 c 128,-1,7
 280 541 280 541 331 541 c 0,8,9
 372 541 372 541 409 524.5 c 128,-1,10
 446 508 446 508 477.5 476.5 c 128,-1,11
 509 445 509 445 527.5 391.5 c 128,-1,12
 546 338 546 338 546 271 c 0,13,14
 546 201 546 201 526.5 145 c 128,-1,15
 507 89 507 89 475 55 c 128,-1,16
 443 21 443 21 404.5 3.5 c 128,-1,17
 366 -14 366 -14 324 -14 c 0,18,19
 276 -14 276 -14 234 8.5 c 128,-1,20
 192 31 192 31 165 70 c 1,21,-1
 165 -193 l 1,22,-1
 80 -193 l 1,23,-1
 80 770 l 1,0,-1
301 470 m 0,24,25
 260 470 260 470 226.5 449 c 128,-1,26
 193 428 193 428 178 393 c 0,27,28
 164 360 164 360 164 289 c 0,29,30
 164 240 164 240 164.5 219.5 c 128,-1,31
 165 199 165 199 168.5 174.5 c 128,-1,32
 172 150 172 150 179 133 c 0,33,34
 194 98 194 98 227.5 79 c 128,-1,35
 261 60 261 60 300 60 c 0,36,37
 318 60 318 60 336 64 c 128,-1,38
 354 68 354 68 377 80.5 c 128,-1,39
 400 93 400 93 417.5 113 c 128,-1,40
 435 133 435 133 447 169.5 c 128,-1,41
 459 206 459 206 459 253 c 0,42,43
 459 308 459 308 447 349.5 c 128,-1,44
 435 391 435 391 417.5 413 c 128,-1,45
 400 435 400 435 376.5 448.5 c 128,-1,46
 353 462 353 462 335.5 466 c 128,-1,47
 318 470 318 470 301 470 c 0,24,25
EndSplineSet
EndChar

StartChar: ydieresis
Encoding: 255 255 193
Width: 600
GlyphClass: 2
Flags: W
LayerCount: 2
Fore
SplineSet
257 711.5 m 128,-1,1
 257 687 257 687 240 670 c 128,-1,2
 223 653 223 653 198.5 653 c 128,-1,3
 174 653 174 653 157 670 c 128,-1,4
 140 687 140 687 140 711.5 c 128,-1,5
 140 736 140 736 157 753 c 128,-1,6
 174 770 174 770 198.5 770 c 128,-1,7
 223 770 223 770 240 753 c 128,-1,0
 257 736 257 736 257 711.5 c 128,-1,1
463 711.5 m 128,-1,9
 463 687 463 687 446 670 c 128,-1,10
 429 653 429 653 405 653 c 128,-1,11
 381 653 381 653 364 670 c 128,-1,12
 347 687 347 687 347 711.5 c 128,-1,13
 347 736 347 736 364 753 c 128,-1,14
 381 770 381 770 405 770 c 128,-1,15
 429 770 429 770 446 753 c 128,-1,8
 463 736 463 736 463 711.5 c 128,-1,9
63 529 m 1,16,-1
 167 529 l 1,17,18
 167 523 167 523 164.5 515.5 c 128,-1,19
 162 508 162 508 162 504 c 128,-1,20
 162 500 162 500 164 495 c 2,21,-1
 319 105 l 1,22,-1
 420 389 l 2,23,24
 450 472 450 472 460 530 c 1,25,-1
 547 530 l 1,26,27
 528 468 528 468 494 377 c 2,28,-1
 329 -60 l 2,29,30
 308 -117 308 -117 283 -144 c 0,31,32
 232 -201 232 -201 151 -201 c 0,33,34
 82 -201 82 -201 36 -157 c 1,35,-1
 79 -82 l 1,36,37
 83 -85 83 -85 85.5 -92.5 c 128,-1,38
 88 -100 88 -100 88 -101 c 0,39,40
 91 -105 91 -105 97 -111.5 c 128,-1,41
 103 -118 103 -118 118 -125.5 c 128,-1,42
 133 -133 133 -133 150 -133 c 0,43,44
 192 -133 192 -133 224 -98 c 0,45,46
 243 -79 243 -79 261 -37 c 2,47,-1
 278 2 l 1,48,-1
 63 529 l 1,16,-1
EndSplineSet
EndChar

StartChar: Abreve
Encoding: 258 258 194
Width: 600
GlyphClass: 2
Flags: W
LayerCount: 2
Fore
SplineSet
158 909 m 1,0,1
 180 874 180 874 214 850.5 c 128,-1,2
 248 827 248 827 288 827 c 0,3,4
 363 827 363 827 426 908 c 1,5,-1
 459 860 l 1,6,7
 428 818 428 818 383.5 792.5 c 128,-1,8
 339 767 339 767 288 767 c 0,9,10
 241 767 241 767 196 790.5 c 128,-1,11
 151 814 151 814 116 856 c 1,12,-1
 158 909 l 1,0,1
27 -1 m 1,13,-1
 282 735 l 1,14,-1
 291 735 l 1,15,-1
 570 0 l 1,16,-1
 486 0 l 1,17,-1
 406 211 l 1,18,-1
 177 211 l 1,19,-1
 107 -1 l 1,20,-1
 27 -1 l 1,13,-1
388 274 m 1,21,-1
 286 549 l 1,22,-1
 193 274 l 1,23,-1
 388 274 l 1,21,-1
EndSplineSet
EndChar

StartChar: abreve
Encoding: 259 259 195
Width: 600
GlyphClass: 2
Flags: W
LayerCount: 2
Fore
SplineSet
179 749 m 1,0,1
 201 714 201 714 235 690.5 c 128,-1,2
 269 667 269 667 309 667 c 0,3,4
 384 667 384 667 447 748 c 1,5,-1
 480 700 l 1,6,7
 449 658 449 658 404.5 632.5 c 128,-1,8
 360 607 360 607 309 607 c 0,9,10
 262 607 262 607 217 630.5 c 128,-1,11
 172 654 172 654 137 696 c 1,12,-1
 179 749 l 1,0,1
115 467 m 1,13,14
 187 541 187 541 304 541 c 0,15,16
 366 541 366 541 414 518.5 c 128,-1,17
 462 496 462 496 488 453 c 0,18,19
 505 426 505 426 509.5 397 c 128,-1,20
 514 368 514 368 514 328 c 2,21,-1
 514 0 l 1,22,-1
 435 0 l 1,23,-1
 435 58 l 1,24,25
 348 -13 348 -13 245 -13 c 0,26,27
 165 -13 165 -13 116 31.5 c 128,-1,28
 67 76 67 76 67 137 c 0,29,30
 67 184 67 184 97.5 225 c 128,-1,31
 128 266 128 266 188 288 c 0,32,33
 219 300 219 300 263.5 305.5 c 128,-1,34
 308 311 308 311 334.5 311.5 c 128,-1,35
 361 312 361 312 417 312 c 2,36,-1
 434 312 l 1,37,-1
 434 331 l 2,38,39
 434 394 434 394 417 422 c 0,40,41
 386 473 386 473 308 473 c 0,42,43
 212 473 212 473 156 414 c 1,44,-1
 115 467 l 1,13,14
437 248 m 1,45,-1
 418 248 l 2,46,47
 382 249 382 249 328.5 248 c 128,-1,48
 275 247 275 247 244 240 c 0,49,50
 197 229 197 229 174 201.5 c 128,-1,51
 151 174 151 174 151 142 c 0,52,53
 151 105 151 105 181 78 c 128,-1,54
 211 51 211 51 262 51 c 0,55,56
 307 51 307 51 343.5 71 c 128,-1,57
 380 91 380 91 401 113 c 0,58,59
 418 131 418 131 426.5 151 c 128,-1,60
 435 171 435 171 436 182.5 c 128,-1,61
 437 194 437 194 437 213 c 2,62,-1
 437 248 l 1,45,-1
EndSplineSet
EndChar

StartChar: Aogonek
Encoding: 260 260 196
Width: 600
GlyphClass: 2
Flags: W
LayerCount: 2
Fore
SplineSet
494 0 m 1,0,-1
 571 0 l 1,1,2
 528 -38 528 -38 494 -78 c 0,3,4
 474 -100 474 -100 474 -118 c 0,5,6
 474 -132 474 -132 483.5 -141.5 c 128,-1,7
 493 -151 493 -151 508 -151 c 0,8,9
 519 -151 519 -151 536 -145 c 0,10,11
 558 -137 558 -137 573 -124 c 1,12,-1
 573 -177 l 1,13,14
 542 -204 542 -204 493 -204 c 0,15,16
 450 -204 450 -204 426 -184 c 128,-1,17
 402 -164 402 -164 402 -133 c 0,18,19
 402 -76 402 -76 494 0 c 1,0,-1
27 -1 m 1,20,-1
 282 735 l 1,21,-1
 291 735 l 1,22,-1
 570 0 l 1,23,-1
 486 0 l 1,24,-1
 406 211 l 1,25,-1
 177 211 l 1,26,-1
 107 -1 l 1,27,-1
 27 -1 l 1,20,-1
388 274 m 1,28,-1
 286 549 l 1,29,-1
 193 274 l 1,30,-1
 388 274 l 1,28,-1
EndSplineSet
EndChar

StartChar: aogonek
Encoding: 261 261 197
Width: 600
GlyphClass: 2
Flags: W
LayerCount: 2
Fore
SplineSet
436 0 m 1,0,-1
 513 0 l 1,1,2
 470 -38 470 -38 436 -78 c 0,3,4
 416 -100 416 -100 416 -118 c 0,5,6
 416 -132 416 -132 425.5 -141.5 c 128,-1,7
 435 -151 435 -151 450 -151 c 0,8,9
 461 -151 461 -151 478 -145 c 0,10,11
 500 -137 500 -137 515 -124 c 1,12,-1
 515 -177 l 1,13,14
 484 -204 484 -204 435 -204 c 0,15,16
 392 -204 392 -204 368 -184 c 128,-1,17
 344 -164 344 -164 344 -133 c 0,18,19
 344 -76 344 -76 436 0 c 1,0,-1
115 467 m 1,20,21
 187 541 187 541 304 541 c 0,22,23
 366 541 366 541 414 518.5 c 128,-1,24
 462 496 462 496 488 453 c 0,25,26
 505 426 505 426 509.5 397 c 128,-1,27
 514 368 514 368 514 328 c 2,28,-1
 514 0 l 1,29,-1
 435 0 l 1,30,-1
 435 58 l 1,31,32
 348 -13 348 -13 245 -13 c 0,33,34
 165 -13 165 -13 116 31.5 c 128,-1,35
 67 76 67 76 67 137 c 0,36,37
 67 184 67 184 97.5 225 c 128,-1,38
 128 266 128 266 188 288 c 0,39,40
 219 300 219 300 263.5 305.5 c 128,-1,41
 308 311 308 311 334.5 311.5 c 128,-1,42
 361 312 361 312 417 312 c 2,43,-1
 434 312 l 1,44,-1
 434 331 l 2,45,46
 434 394 434 394 417 422 c 0,47,48
 386 473 386 473 308 473 c 0,49,50
 212 473 212 473 156 414 c 1,51,-1
 115 467 l 1,20,21
437 248 m 1,52,-1
 418 248 l 2,53,54
 382 249 382 249 328.5 248 c 128,-1,55
 275 247 275 247 244 240 c 0,56,57
 197 229 197 229 174 201.5 c 128,-1,58
 151 174 151 174 151 142 c 0,59,60
 151 105 151 105 181 78 c 128,-1,61
 211 51 211 51 262 51 c 0,62,63
 307 51 307 51 343.5 71 c 128,-1,64
 380 91 380 91 401 113 c 0,65,66
 418 131 418 131 426.5 151 c 128,-1,67
 435 171 435 171 436 182.5 c 128,-1,68
 437 194 437 194 437 213 c 2,69,-1
 437 248 l 1,52,-1
EndSplineSet
EndChar

StartChar: Cacute
Encoding: 262 262 198
Width: 600
GlyphClass: 2
Flags: W
LayerCount: 2
Fore
SplineSet
367 917 m 1,0,-1
 413 836 l 1,1,-1
 217 765 l 1,2,-1
 190 813 l 1,3,-1
 367 917 l 1,0,-1
332 728 m 0,4,5
 404 728 404 728 464 689 c 128,-1,6
 524 650 524 650 553 585 c 1,7,-1
 476 547 l 1,8,9
 471 551 471 551 471 558 c 0,10,11
 471 560 471 560 471 563 c 128,-1,12
 471 566 471 566 471 567 c 0,13,14
 471 572 471 572 467 579 c 0,15,16
 445 618 445 618 408 640.5 c 128,-1,17
 371 663 371 663 329 663 c 0,18,19
 248 663 248 663 192 582.5 c 128,-1,20
 136 502 136 502 136 364 c 0,21,22
 136 223 136 223 194 140.5 c 128,-1,23
 252 58 252 58 336 58 c 0,24,25
 379 58 379 58 418.5 81.5 c 128,-1,26
 458 105 458 105 483 146 c 1,27,-1
 543 107 l 1,28,29
 509 52 509 52 452.5 20 c 128,-1,30
 396 -12 396 -12 331 -12 c 0,31,32
 293 -12 293 -12 256.5 -1 c 128,-1,33
 220 10 220 10 183.5 37.5 c 128,-1,34
 147 65 147 65 119 106 c 128,-1,35
 91 147 91 147 74 211.5 c 128,-1,36
 57 276 57 276 57 357 c 0,37,38
 57 440 57 440 75 506 c 128,-1,39
 93 572 93 572 121 612.5 c 128,-1,40
 149 653 149 653 186.5 680 c 128,-1,41
 224 707 224 707 259.5 717.5 c 128,-1,42
 295 728 295 728 332 728 c 0,4,5
EndSplineSet
EndChar

StartChar: cacute
Encoding: 263 263 199
Width: 600
GlyphClass: 2
Flags: W
LayerCount: 2
Fore
SplineSet
348 810 m 1,0,-1
 421 761 l 1,1,-1
 304 605 l 1,2,-1
 246 640 l 1,3,-1
 348 810 l 1,0,-1
539 442 m 1,4,-1
 480 373 l 1,5,6
 475 377 475 377 474.5 387 c 128,-1,7
 474 397 474 397 473 400 c 0,8,9
 470 404 470 404 462 413.5 c 128,-1,10
 454 423 454 423 437.5 436.5 c 128,-1,11
 421 450 421 450 394 459.5 c 128,-1,12
 367 469 367 469 336 469 c 0,13,14
 261 469 261 469 211 415.5 c 128,-1,15
 161 362 161 362 161 273 c 0,16,17
 161 181 161 181 213 122 c 128,-1,18
 265 63 265 63 343 63 c 0,19,20
 427 63 427 63 483 127 c 1,21,-1
 531 71 l 1,22,23
 493 30 493 30 442.5 8.5 c 128,-1,24
 392 -13 392 -13 336 -13 c 0,25,26
 223 -13 223 -13 149 66 c 128,-1,27
 75 145 75 145 75 264.5 c 128,-1,28
 75 384 75 384 150 462 c 128,-1,29
 225 540 225 540 341 540 c 0,30,31
 404 540 404 540 455.5 514 c 128,-1,32
 507 488 507 488 539 442 c 1,4,-1
EndSplineSet
EndChar

StartChar: Ccaron
Encoding: 268 268 200
Width: 600
GlyphClass: 2
Flags: W
LayerCount: 2
Fore
SplineSet
489 875 m 1,0,-1
 337 760 l 1,1,-1
 312 760 l 1,2,-1
 169 873 l 1,3,-1
 207 917 l 1,4,-1
 327 835 l 1,5,-1
 456 914 l 1,6,-1
 489 875 l 1,0,-1
332 728 m 0,7,8
 404 728 404 728 464 689 c 128,-1,9
 524 650 524 650 553 585 c 1,10,-1
 476 547 l 1,11,12
 471 551 471 551 471 558 c 0,13,14
 471 560 471 560 471 563 c 128,-1,15
 471 566 471 566 471 567 c 0,16,17
 471 572 471 572 467 579 c 0,18,19
 445 618 445 618 408 640.5 c 128,-1,20
 371 663 371 663 329 663 c 0,21,22
 248 663 248 663 192 582.5 c 128,-1,23
 136 502 136 502 136 364 c 0,24,25
 136 223 136 223 194 140.5 c 128,-1,26
 252 58 252 58 336 58 c 0,27,28
 379 58 379 58 418.5 81.5 c 128,-1,29
 458 105 458 105 483 146 c 1,30,-1
 543 107 l 1,31,32
 509 52 509 52 452.5 20 c 128,-1,33
 396 -12 396 -12 331 -12 c 0,34,35
 293 -12 293 -12 256.5 -1 c 128,-1,36
 220 10 220 10 183.5 37.5 c 128,-1,37
 147 65 147 65 119 106 c 128,-1,38
 91 147 91 147 74 211.5 c 128,-1,39
 57 276 57 276 57 357 c 0,40,41
 57 440 57 440 75 506 c 128,-1,42
 93 572 93 572 121 612.5 c 128,-1,43
 149 653 149 653 186.5 680 c 128,-1,44
 224 707 224 707 259.5 717.5 c 128,-1,45
 295 728 295 728 332 728 c 0,7,8
EndSplineSet
EndChar

StartChar: ccaron
Encoding: 269 269 201
Width: 600
GlyphClass: 2
Flags: W
LayerCount: 2
Fore
SplineSet
539 442 m 1,0,-1
 480 373 l 1,1,2
 475 377 475 377 474.5 387 c 128,-1,3
 474 397 474 397 473 400 c 0,4,5
 470 404 470 404 462 413.5 c 128,-1,6
 454 423 454 423 437.5 436.5 c 128,-1,7
 421 450 421 450 394 459.5 c 128,-1,8
 367 469 367 469 336 469 c 0,9,10
 261 469 261 469 211 415.5 c 128,-1,11
 161 362 161 362 161 273 c 0,12,13
 161 181 161 181 213 122 c 128,-1,14
 265 63 265 63 343 63 c 0,15,16
 427 63 427 63 483 127 c 1,17,-1
 531 71 l 1,18,19
 493 30 493 30 442.5 8.5 c 128,-1,20
 392 -13 392 -13 336 -13 c 0,21,22
 223 -13 223 -13 149 66 c 128,-1,23
 75 145 75 145 75 264.5 c 128,-1,24
 75 384 75 384 150 462 c 128,-1,25
 225 540 225 540 341 540 c 0,26,27
 404 540 404 540 455.5 514 c 128,-1,28
 507 488 507 488 539 442 c 1,0,-1
447 763 m 1,29,-1
 318 600 l 1,30,-1
 293 600 l 1,31,-1
 165 764 l 1,32,-1
 219 804 l 1,33,-1
 309 685 l 1,34,-1
 403 803 l 1,35,-1
 447 763 l 1,29,-1
EndSplineSet
EndChar

StartChar: Dcaron
Encoding: 270 270 202
Width: 600
GlyphClass: 2
Flags: W
LayerCount: 2
Fore
SplineSet
440 875 m 1,0,-1
 288 760 l 1,1,-1
 263 760 l 1,2,-1
 120 873 l 1,3,-1
 158 917 l 1,4,-1
 278 835 l 1,5,-1
 407 914 l 1,6,-1
 440 875 l 1,0,-1
72 722 m 1,7,-1
 241 722 l 2,8,9
 296 722 296 722 334.5 714.5 c 128,-1,10
 373 707 373 707 409 683 c 0,11,12
 476 640 476 640 509.5 555.5 c 128,-1,13
 543 471 543 471 543 362 c 0,14,15
 543 243 543 243 501.5 155.5 c 128,-1,16
 460 68 460 68 383 28 c 0,17,18
 348 10 348 10 313 4.5 c 128,-1,19
 278 -1 278 -1 227 -1 c 2,20,-1
 72 -1 l 1,21,-1
 72 722 l 1,7,-1
149 653 m 1,22,-1
 149 63 l 1,23,-1
 223 63 l 2,24,25
 266 63 266 63 296.5 69 c 128,-1,26
 327 75 327 75 358 96 c 0,27,28
 461 165 461 165 461 351 c 0,29,30
 461 539 461 539 372 613 c 0,31,32
 342 638 342 638 310.5 645.5 c 128,-1,33
 279 653 279 653 236 653 c 2,34,-1
 149 653 l 1,22,-1
EndSplineSet
EndChar

StartChar: dcaron
Encoding: 271 271 203
Width: 600
GlyphClass: 2
Flags: W
LayerCount: 2
Fore
SplineSet
368 452 m 1,0,-1
 368 771 l 1,1,-1
 447 771 l 1,2,-1
 447 49 l 2,3,4
 447 19 447 19 452 0 c 1,5,-1
 369 0 l 1,6,7
 364 15 364 15 364 39 c 2,8,-1
 364 85 l 1,9,10
 339 42 339 42 297.5 15 c 128,-1,11
 256 -12 256 -12 209 -12 c 0,12,13
 125 -12 125 -12 67.5 68 c 128,-1,14
 10 148 10 148 10 269 c 0,15,16
 10 394 10 394 72.5 468.5 c 128,-1,17
 135 543 135 543 220 543 c 0,18,19
 268 543 268 543 307.5 518.5 c 128,-1,20
 347 494 347 494 368 452 c 1,0,-1
224 475 m 0,21,22
 168 475 168 475 129.5 419.5 c 128,-1,23
 91 364 91 364 91 279 c 0,24,25
 91 193 91 193 128.5 127.5 c 128,-1,26
 166 62 166 62 228 62 c 0,27,28
 260 62 260 62 289 81.5 c 128,-1,29
 318 101 318 101 335 130 c 0,30,31
 361 172 361 172 361 255 c 0,32,33
 361 314 361 314 358 343.5 c 128,-1,34
 355 373 355 373 344 397 c 0,35,36
 327 432 327 432 292.5 453.5 c 128,-1,37
 258 475 258 475 224 475 c 0,21,22
598 701 m 0,38,39
 598 626 598 626 499 526 c 1,40,-1
 467 554 l 1,41,42
 493 578 493 578 514 612 c 0,43,44
 528 635 528 635 528 651 c 0,45,46
 528 669 528 669 506 684 c 0,47,48
 480 701 480 701 480 725 c 0,49,50
 480 746 480 746 495.5 762 c 128,-1,51
 511 778 511 778 533 778 c 0,52,53
 559 778 559 778 578.5 756.5 c 128,-1,54
 598 735 598 735 598 701 c 0,38,39
EndSplineSet
EndChar

StartChar: Dcroat
Encoding: 272 272 204
Width: 600
GlyphClass: 2
Flags: W
LayerCount: 2
Fore
SplineSet
101 722 m 1,0,-1
 263 722 l 2,1,2
 316 722 316 722 353.5 713.5 c 128,-1,3
 391 705 391 705 426 679 c 0,4,5
 488 633 488 633 519 548.5 c 128,-1,6
 550 464 550 464 550 365 c 0,7,8
 550 246 550 246 505.5 152.5 c 128,-1,9
 461 59 461 59 380 21 c 0,10,11
 332 -1 332 -1 249 -1 c 2,12,-1
 101 -1 l 1,13,-1
 101 722 l 1,0,-1
176 654 m 1,14,-1
 176 66 l 1,15,-1
 245 66 l 2,16,17
 283 66 283 66 310.5 71.5 c 128,-1,18
 338 77 338 77 366 96 c 0,19,20
 417 131 417 131 444.5 199.5 c 128,-1,21
 472 268 472 268 472 355 c 0,22,23
 472 501 472 501 411 585 c 0,24,25
 394 608 394 608 374 623.5 c 128,-1,26
 354 639 354 639 332 645 c 128,-1,27
 310 651 310 651 295 652.5 c 128,-1,28
 280 654 280 654 258 654 c 2,29,-1
 176 654 l 1,14,-1
45 416 m 1,30,-1
 297 416 l 1,31,-1
 297 349 l 1,32,-1
 45 349 l 1,33,-1
 45 416 l 1,30,-1
EndSplineSet
EndChar

StartChar: dcroat
Encoding: 273 273 205
Width: 600
GlyphClass: 2
Flags: W
LayerCount: 2
Fore
SplineSet
281 475 m 0,0,1
 256 475 256 475 232 465.5 c 128,-1,2
 208 456 208 456 185.5 435.5 c 128,-1,3
 163 415 163 415 149 375.5 c 128,-1,4
 135 336 135 336 135 283 c 0,5,6
 135 221 135 221 149.5 175.5 c 128,-1,7
 164 130 164 130 187.5 106.5 c 128,-1,8
 211 83 211 83 235 72.5 c 128,-1,9
 259 62 259 62 284 62 c 0,10,11
 327 62 327 62 363 89 c 128,-1,12
 399 116 399 116 414 162 c 0,13,14
 425 197 425 197 425 259 c 0,15,16
 425 338 425 338 416 372 c 0,17,18
 402 425 402 425 362.5 450 c 128,-1,19
 323 475 323 475 281 475 c 0,0,1
510 630 m 1,20,-1
 511 49 l 2,21,22
 511 19 511 19 516 0 c 1,23,-1
 433 0 l 1,24,25
 428 15 428 15 428 39 c 2,26,-1
 428 85 l 1,27,28
 403 40 403 40 359 14 c 128,-1,29
 315 -12 315 -12 265 -12 c 0,30,31
 225 -12 225 -12 188.5 5 c 128,-1,32
 152 22 152 22 121.5 55 c 128,-1,33
 91 88 91 88 72.5 143.5 c 128,-1,34
 54 199 54 199 54 269 c 0,35,36
 54 341 54 341 74 396.5 c 128,-1,37
 94 452 94 452 127.5 482.5 c 128,-1,38
 161 513 161 513 199 528 c 128,-1,39
 237 543 237 543 277 543 c 0,40,41
 331 543 331 543 372 518.5 c 128,-1,42
 413 494 413 494 432 452 c 1,43,-1
 432 630 l 1,44,-1
 344 630 l 1,45,-1
 344 692 l 1,46,-1
 432 692 l 1,47,-1
 432 771 l 1,48,-1
 521 771 l 1,49,50
 521 764 521 764 515 754 c 0,51,52
 510 746 510 746 510 738 c 2,53,-1
 510 692 l 1,54,-1
 561 692 l 1,55,-1
 561 630 l 1,56,-1
 510 630 l 1,20,-1
EndSplineSet
EndChar

StartChar: Eogonek
Encoding: 280 280 206
Width: 600
GlyphClass: 2
Flags: W
LayerCount: 2
Fore
SplineSet
439 0 m 1,0,-1
 516 0 l 1,1,2
 473 -38 473 -38 439 -78 c 0,3,4
 419 -100 419 -100 419 -118 c 0,5,6
 419 -132 419 -132 428.5 -141.5 c 128,-1,7
 438 -151 438 -151 453 -151 c 0,8,9
 464 -151 464 -151 481 -145 c 0,10,11
 503 -137 503 -137 518 -124 c 1,12,-1
 518 -177 l 1,13,14
 487 -204 487 -204 438 -204 c 0,15,16
 395 -204 395 -204 371 -184 c 128,-1,17
 347 -164 347 -164 347 -133 c 0,18,19
 347 -76 347 -76 439 0 c 1,0,-1
78 723 m 1,20,-1
 521 723 l 1,21,-1
 521 651 l 1,22,-1
 155 651 l 1,23,-1
 155 414 l 1,24,-1
 457 414 l 1,25,-1
 457 340 l 1,26,-1
 155 340 l 1,27,-1
 155 72 l 1,28,-1
 518 72 l 1,29,-1
 518 0 l 1,30,-1
 78 0 l 1,31,-1
 78 723 l 1,20,-1
EndSplineSet
EndChar

StartChar: eogonek
Encoding: 281 281 207
Width: 600
GlyphClass: 2
Flags: W
LayerCount: 2
Fore
SplineSet
310 542 m 0,0,1
 344 542 344 542 376 532.5 c 128,-1,2
 408 523 408 523 438 502 c 128,-1,3
 468 481 468 481 489.5 443 c 128,-1,4
 511 405 511 405 519 353 c 0,5,6
 528 305 528 305 523 253 c 1,7,-1
 147 253 l 1,8,9
 150 197 150 197 168 156 c 128,-1,10
 186 115 186 115 213.5 94.5 c 128,-1,11
 241 74 241 74 269 64.5 c 128,-1,12
 297 55 297 55 327 55 c 0,13,14
 411 55 411 55 464 115 c 1,15,-1
 510 70 l 1,16,-1
 469 19 l 2,17,18
 457 4 457 4 446 -9.5 c 128,-1,19
 435 -23 435 -23 426 -35.5 c 128,-1,20
 417 -48 417 -48 410.5 -59 c 128,-1,21
 404 -70 404 -70 400.5 -81 c 128,-1,22
 397 -92 397 -92 397 -102 c 0,23,24
 397 -121 397 -121 409.5 -134 c 128,-1,25
 422 -147 422 -147 442 -147 c 0,26,27
 467 -147 467 -147 501 -125 c 1,28,-1
 500 -182 l 1,29,30
 462 -203 462 -203 424 -203 c 0,31,32
 381 -203 381 -203 354.5 -178 c 128,-1,33
 328 -153 328 -153 328 -117 c 0,34,35
 328 -62 328 -62 392 -1 c 1,36,37
 353 -12 353 -12 313 -12 c 0,38,39
 205 -12 205 -12 135.5 61 c 128,-1,40
 66 134 66 134 66 261 c 0,41,42
 66 330 66 330 86.5 385 c 128,-1,43
 107 440 107 440 141 473.5 c 128,-1,44
 175 507 175 507 218 524.5 c 128,-1,45
 261 542 261 542 310 542 c 0,0,1
150 317 m 1,46,-1
 441 317 l 1,47,48
 449 382 449 382 408.5 430 c 128,-1,49
 368 478 368 478 304 478 c 0,50,51
 281 478 281 478 258 470 c 128,-1,52
 235 462 235 462 212 444.5 c 128,-1,53
 189 427 189 427 172.5 394 c 128,-1,54
 156 361 156 361 150 317 c 1,46,-1
EndSplineSet
EndChar

StartChar: Ecaron
Encoding: 282 282 208
Width: 600
GlyphClass: 2
Flags: W
LayerCount: 2
Fore
SplineSet
470 875 m 1,0,-1
 318 760 l 1,1,-1
 293 760 l 1,2,-1
 150 873 l 1,3,-1
 188 917 l 1,4,-1
 308 835 l 1,5,-1
 437 914 l 1,6,-1
 470 875 l 1,0,-1
78 723 m 1,7,-1
 521 723 l 1,8,-1
 521 651 l 1,9,-1
 155 651 l 1,10,-1
 155 414 l 1,11,-1
 457 414 l 1,12,-1
 457 340 l 1,13,-1
 155 340 l 1,14,-1
 155 72 l 1,15,-1
 518 72 l 1,16,-1
 518 0 l 1,17,-1
 78 0 l 1,18,-1
 78 723 l 1,7,-1
EndSplineSet
EndChar

StartChar: ecaron
Encoding: 283 283 209
Width: 600
GlyphClass: 2
Flags: W
LayerCount: 2
Fore
SplineSet
447 763 m 1,0,-1
 318 600 l 1,1,-1
 293 600 l 1,2,-1
 165 764 l 1,3,-1
 219 804 l 1,4,-1
 309 685 l 1,5,-1
 403 803 l 1,6,-1
 447 763 l 1,0,-1
310 542 m 0,7,8
 344 542 344 542 376 532.5 c 128,-1,9
 408 523 408 523 437.5 502 c 128,-1,10
 467 481 467 481 489 443 c 128,-1,11
 511 405 511 405 519 354 c 0,12,13
 528 305 528 305 523 253 c 1,14,-1
 147 253 l 1,15,16
 150 197 150 197 168 156 c 128,-1,17
 186 115 186 115 213.5 94.5 c 128,-1,18
 241 74 241 74 269 64.5 c 128,-1,19
 297 55 297 55 327 55 c 0,20,21
 411 55 411 55 464 115 c 1,22,-1
 510 70 l 1,23,24
 442 -12 442 -12 320 -12 c 0,25,26
 209 -12 209 -12 137.5 59 c 128,-1,27
 66 130 66 130 66 259 c 0,28,29
 66 329 66 329 86 384 c 128,-1,30
 106 439 106 439 140.5 473 c 128,-1,31
 175 507 175 507 218 524.5 c 128,-1,32
 261 542 261 542 310 542 c 0,7,8
150 317 m 1,33,-1
 441 317 l 1,34,35
 449 382 449 382 408.5 430 c 128,-1,36
 368 478 368 478 304 478 c 0,37,38
 281 478 281 478 258 470 c 128,-1,39
 235 462 235 462 212 444.5 c 128,-1,40
 189 427 189 427 172.5 394 c 128,-1,41
 156 361 156 361 150 317 c 1,33,-1
EndSplineSet
EndChar

StartChar: Gbreve
Encoding: 286 286 210
Width: 600
GlyphClass: 2
Flags: W
LayerCount: 2
Fore
SplineSet
179 916 m 1,0,1
 201 881 201 881 235 857.5 c 128,-1,2
 269 834 269 834 309 834 c 0,3,4
 384 834 384 834 447 915 c 1,5,-1
 480 867 l 1,6,7
 449 825 449 825 404.5 799.5 c 128,-1,8
 360 774 360 774 309 774 c 0,9,10
 262 774 262 774 217 797.5 c 128,-1,11
 172 821 172 821 137 863 c 1,12,-1
 179 916 l 1,0,1
331 729 m 0,13,14
 398 729 398 729 454 696.5 c 128,-1,15
 510 664 510 664 541 608 c 1,16,-1
 484 550 l 1,17,18
 477 555 477 555 469 573 c 0,19,20
 451 610 451 610 414.5 634 c 128,-1,21
 378 658 378 658 331 658 c 0,22,23
 283 658 283 658 239 631.5 c 128,-1,24
 195 605 195 605 168 555 c 0,25,26
 132 486 132 486 132 369 c 0,27,28
 132 202 132 202 201 123 c 0,29,30
 256 60 256 60 338 60 c 0,31,32
 406 60 406 60 468 104 c 1,33,-1
 468 276 l 1,34,-1
 337 276 l 1,35,-1
 337 346 l 1,36,-1
 543 346 l 1,37,-1
 543 64 l 1,38,39
 441 -11 441 -11 331 -11 c 0,40,41
 291 -11 291 -11 253.5 0 c 128,-1,42
 216 11 216 11 178.5 38.5 c 128,-1,43
 141 66 141 66 113.5 106 c 128,-1,44
 86 146 86 146 69 209.5 c 128,-1,45
 52 273 52 273 52 352 c 0,46,47
 52 443 52 443 72 513 c 128,-1,48
 92 583 92 583 122 622.5 c 128,-1,49
 152 662 152 662 192 687 c 128,-1,50
 232 712 232 712 265 720.5 c 128,-1,51
 298 729 298 729 331 729 c 0,13,14
EndSplineSet
EndChar

StartChar: gbreve
Encoding: 287 287 211
Width: 600
GlyphClass: 2
Flags: W
LayerCount: 2
Fore
SplineSet
179 749 m 1,0,1
 201 714 201 714 235 690.5 c 128,-1,2
 269 667 269 667 309 667 c 0,3,4
 384 667 384 667 447 748 c 1,5,-1
 480 700 l 1,6,7
 449 658 449 658 404.5 632.5 c 128,-1,8
 360 607 360 607 309 607 c 0,9,10
 262 607 262 607 217 630.5 c 128,-1,11
 172 654 172 654 137 696 c 1,12,-1
 179 749 l 1,0,1
156 364 m 128,-1,14
 156 316 156 316 190 282 c 128,-1,15
 224 248 224 248 272.5 248 c 128,-1,16
 321 248 321 248 355 282 c 128,-1,17
 389 316 389 316 389 364 c 128,-1,18
 389 412 389 412 355 446.5 c 128,-1,19
 321 481 321 481 272.5 481 c 128,-1,20
 224 481 224 481 190 446.5 c 128,-1,13
 156 412 156 412 156 364 c 128,-1,14
278 547 m 0,21,22
 352 547 352 547 403 496 c 1,23,24
 467 550 467 550 550 543 c 1,25,-1
 560 475 l 1,26,27
 545 478 545 478 529 478 c 0,28,29
 480 478 480 478 437 452 c 1,30,31
 464 411 464 411 464 362 c 0,32,33
 464 289 464 289 408 235 c 128,-1,34
 352 181 352 181 273 181 c 0,35,36
 239 181 239 181 206 193 c 1,37,38
 168 162 168 162 168 134 c 0,39,40
 168 108 168 108 200 99 c 0,41,42
 225 92 225 92 276 92 c 0,43,44
 315 95 315 95 367.5 93.5 c 128,-1,45
 420 92 420 92 455 77 c 0,46,47
 496 61 496 61 516.5 30 c 128,-1,48
 537 -1 537 -1 537 -38 c 0,49,50
 537 -66 537 -66 524 -93 c 128,-1,51
 511 -120 511 -120 483.5 -144.5 c 128,-1,52
 456 -169 456 -169 407 -184 c 128,-1,53
 358 -199 358 -199 294 -199 c 0,54,55
 227 -199 227 -199 178.5 -188 c 128,-1,56
 130 -177 130 -177 104 -158 c 128,-1,57
 78 -139 78 -139 66 -118 c 128,-1,58
 54 -97 54 -97 54 -74 c 0,59,60
 54 -12 54 -12 141 43 c 1,61,62
 98 66 98 66 98 114 c 0,63,64
 98 165 98 165 158 216 c 1,65,66
 122 240 122 240 101 278 c 128,-1,67
 80 316 80 316 80 359 c 0,68,69
 80 436 80 436 139 491.5 c 128,-1,70
 198 547 198 547 278 547 c 0,21,22
197 28 m 1,71,72
 131 -8 131 -8 131 -54 c 0,73,74
 131 -98 131 -98 183 -119 c 0,75,76
 227 -136 227 -136 292 -136 c 0,77,78
 368 -136 368 -136 411 -113 c 0,79,80
 461 -86 461 -86 461 -43 c 0,81,82
 461 -22 461 -22 446 -4 c 128,-1,83
 431 14 431 14 398 19 c 0,84,85
 380 22 380 22 337 22 c 128,-1,86
 294 22 294 22 286 22 c 0,87,88
 230 24 230 24 197 28 c 1,71,72
EndSplineSet
EndChar

StartChar: Idotaccent
Encoding: 304 304 212
Width: 600
GlyphClass: 2
Flags: W
LayerCount: 2
Fore
SplineSet
285 917 m 128,-1,1
 310 917 310 917 327.5 899.5 c 128,-1,2
 345 882 345 882 345 857.5 c 128,-1,3
 345 833 345 833 327.5 815.5 c 128,-1,4
 310 798 310 798 285 798 c 128,-1,5
 260 798 260 798 242.5 815.5 c 128,-1,6
 225 833 225 833 225 857.5 c 128,-1,7
 225 882 225 882 242.5 899.5 c 128,-1,0
 260 917 260 917 285 917 c 128,-1,1
112 722 m 1,8,-1
 470 722 l 1,9,-1
 470 654 l 1,10,-1
 327 654 l 1,11,-1
 327 66 l 1,12,-1
 477 66 l 1,13,-1
 477 -1 l 1,14,-1
 104 -1 l 1,15,-1
 104 67 l 1,16,-1
 246 67 l 1,17,-1
 246 654 l 1,18,-1
 112 654 l 1,19,-1
 112 722 l 1,8,-1
EndSplineSet
EndChar

StartChar: dotlessi
Encoding: 305 305 213
Width: 600
GlyphClass: 2
Flags: W
LayerCount: 2
Fore
SplineSet
133 530 m 1,0,-1
 345 530 l 1,1,-1
 345 67 l 1,2,-1
 469 67 l 1,3,-1
 469 0 l 1,4,-1
 126 0 l 1,5,-1
 126 67 l 1,6,-1
 261 67 l 1,7,-1
 261 462 l 1,8,-1
 133 462 l 1,9,-1
 133 530 l 1,0,-1
EndSplineSet
EndChar

StartChar: kgreenlandic
Encoding: 312 312 214
Width: 600
GlyphClass: 2
Flags: W
LayerCount: 2
Fore
SplineSet
87 529 m 1,0,-1
 182 529 l 2,1,2
 182 528 182 528 182 527 c 0,3,4
 182 522 182 522 175 512 c 0,5,6
 171 506 171 506 171 499 c 2,7,-1
 171 286 l 1,8,-1
 436 532 l 1,9,10
 460 526 460 526 498 526 c 2,11,-1
 528 526 l 1,12,-1
 305 316 l 1,13,-1
 565 -1 l 2,14,15
 561 -1 561 -1 557 -1 c 0,16,17
 522 -1 522 -1 489.5 -3 c 128,-1,18
 457 -5 457 -5 457 -5 c 1,19,-1
 241 265 l 1,20,-1
 171 200 l 1,21,-1
 171 -1 l 1,22,-1
 87 -1 l 1,23,-1
 87 529 l 1,0,-1
EndSplineSet
EndChar

StartChar: Lacute
Encoding: 313 313 215
Width: 600
GlyphClass: 2
Flags: W
LayerCount: 2
Fore
SplineSet
367 917 m 1,0,-1
 413 836 l 1,1,-1
 217 765 l 1,2,-1
 190 813 l 1,3,-1
 367 917 l 1,0,-1
87 722 m 1,4,-1
 181 722 l 1,5,6
 182 714 182 714 177 704 c 0,7,8
 171 692 171 692 171 683 c 2,9,-1
 171 69 l 1,10,-1
 519 69 l 1,11,-1
 519 -1 l 1,12,-1
 87 -1 l 1,13,-1
 87 722 l 1,4,-1
EndSplineSet
EndChar

StartChar: lacute
Encoding: 314 314 216
Width: 600
GlyphClass: 2
Flags: W
LayerCount: 2
Fore
SplineSet
108 770 m 1,0,-1
 342 770 l 1,1,-1
 342 67 l 1,2,-1
 498 67 l 1,3,-1
 498 0 l 1,4,-1
 101 0 l 1,5,-1
 101 67 l 1,6,-1
 258 67 l 1,7,-1
 258 703 l 1,8,-1
 108 703 l 1,9,-1
 108 770 l 1,0,-1
367 967 m 1,10,-1
 413 886 l 1,11,-1
 217 815 l 1,12,-1
 190 863 l 1,13,-1
 367 967 l 1,10,-1
EndSplineSet
EndChar

StartChar: Lcaron
Encoding: 317 317 217
Width: 600
GlyphClass: 2
Flags: W
LayerCount: 2
Fore
SplineSet
498 651 m 0,0,1
 498 576 498 576 399 476 c 1,2,-1
 367 504 l 1,3,4
 393 528 393 528 414 562 c 0,5,6
 428 585 428 585 428 601 c 0,7,8
 428 619 428 619 406 634 c 0,9,10
 380 651 380 651 380 675 c 0,11,12
 380 696 380 696 395.5 712 c 128,-1,13
 411 728 411 728 433 728 c 0,14,15
 459 728 459 728 478.5 706.5 c 128,-1,16
 498 685 498 685 498 651 c 0,0,1
87 722 m 1,17,-1
 181 722 l 1,18,19
 182 714 182 714 177 704 c 0,20,21
 171 692 171 692 171 683 c 2,22,-1
 171 69 l 1,23,-1
 519 69 l 1,24,-1
 519 -1 l 1,25,-1
 87 -1 l 1,26,-1
 87 722 l 1,17,-1
EndSplineSet
EndChar

StartChar: lcaron
Encoding: 318 318 218
Width: 600
GlyphClass: 2
Flags: W
LayerCount: 2
Fore
SplineSet
558 701 m 0,0,1
 558 626 558 626 459 526 c 1,2,-1
 427 554 l 1,3,4
 453 578 453 578 474 612 c 0,5,6
 488 635 488 635 488 651 c 0,7,8
 488 669 488 669 466 684 c 0,9,10
 440 701 440 701 440 725 c 0,11,12
 440 746 440 746 455.5 762 c 128,-1,13
 471 778 471 778 493 778 c 0,14,15
 519 778 519 778 538.5 756.5 c 128,-1,16
 558 735 558 735 558 701 c 0,0,1
88 770 m 1,17,-1
 322 770 l 1,18,-1
 322 67 l 1,19,-1
 478 67 l 1,20,-1
 478 0 l 1,21,-1
 81 0 l 1,22,-1
 81 67 l 1,23,-1
 238 67 l 1,24,-1
 238 703 l 1,25,-1
 88 703 l 1,26,-1
 88 770 l 1,17,-1
EndSplineSet
EndChar

StartChar: Lslash
Encoding: 321 321 219
Width: 600
GlyphClass: 2
Flags: W
LayerCount: 2
Fore
SplineSet
95 722 m 1,0,-1
 189 722 l 2,1,2
 189 720 189 720 189 719 c 0,3,4
 189 712 189 712 184 702.5 c 128,-1,5
 179 693 179 693 179 683 c 2,6,-1
 179 381 l 1,7,-1
 371 443 l 2,8,9
 391 450 391 450 401 454 c 1,10,-1
 401 380 l 1,11,-1
 179 309 l 1,12,-1
 179 69 l 1,13,-1
 527 69 l 1,14,-1
 527 -1 l 1,15,-1
 95 -1 l 1,16,-1
 95 282 l 1,17,-1
 33 262 l 1,18,-1
 33 333 l 1,19,-1
 95 353 l 1,20,-1
 95 722 l 1,0,-1
EndSplineSet
EndChar

StartChar: lslash
Encoding: 322 322 220
Width: 600
GlyphClass: 2
Flags: W
LayerCount: 2
Fore
SplineSet
108 770 m 1,0,-1
 342 770 l 1,1,-1
 342 429 l 1,2,-1
 417 455 l 2,3,4
 431 460 431 460 448 472 c 1,5,-1
 448 387 l 1,6,-1
 342 351 l 1,7,-1
 342 67 l 1,8,-1
 498 67 l 1,9,-1
 498 0 l 1,10,-1
 101 0 l 1,11,-1
 101 67 l 1,12,-1
 258 67 l 1,13,-1
 258 323 l 1,14,-1
 167 292 l 1,15,-1
 167 368 l 1,16,-1
 258 400 l 1,17,-1
 258 703 l 1,18,-1
 108 703 l 1,19,-1
 108 770 l 1,0,-1
EndSplineSet
EndChar

StartChar: Nacute
Encoding: 323 323 221
Width: 600
GlyphClass: 2
Flags: W
LayerCount: 2
Fore
SplineSet
367 917 m 1,0,-1
 413 836 l 1,1,-1
 217 765 l 1,2,-1
 190 813 l 1,3,-1
 367 917 l 1,0,-1
68 0 m 1,4,-1
 68 722 l 1,5,-1
 147 722 l 1,6,-1
 450 187 l 1,7,-1
 450 723 l 1,8,-1
 536 723 l 1,9,10
 537 716 537 716 533 708 c 0,11,12
 528 699 528 699 528 692 c 2,13,-1
 528 -1 l 1,14,-1
 464 -1 l 1,15,-1
 146 568 l 1,16,-1
 146 0 l 1,17,-1
 68 0 l 1,4,-1
EndSplineSet
EndChar

StartChar: nacute
Encoding: 324 324 222
Width: 600
GlyphClass: 2
Flags: W
LayerCount: 2
Fore
SplineSet
348 810 m 1,0,-1
 421 761 l 1,1,-1
 304 605 l 1,2,-1
 246 640 l 1,3,-1
 348 810 l 1,0,-1
89 0 m 1,4,-1
 89 529 l 1,5,-1
 174 529 l 1,6,-1
 174 436 l 1,7,8
 205 483 205 483 251.5 512.5 c 128,-1,9
 298 542 298 542 350 542 c 0,10,11
 396 542 396 542 433.5 517.5 c 128,-1,12
 471 493 471 493 491 449 c 0,13,14
 510 405 510 405 510 321 c 2,15,-1
 510 0 l 1,16,-1
 428 0 l 1,17,-1
 428 319 l 2,18,19
 428 344 428 344 427 359.5 c 128,-1,20
 426 375 426 375 419 397.5 c 128,-1,21
 412 420 412 420 399 436 c 0,22,23
 371 470 371 470 327 470 c 0,24,25
 290 470 290 470 255 446 c 128,-1,26
 220 422 220 422 200 396 c 0,27,28
 174 361 174 361 174 305 c 2,29,-1
 174 0 l 1,30,-1
 89 0 l 1,4,-1
EndSplineSet
EndChar

StartChar: Ncaron
Encoding: 327 327 223
Width: 600
GlyphClass: 2
Flags: W
LayerCount: 2
Fore
SplineSet
470 875 m 1,0,-1
 318 760 l 1,1,-1
 293 760 l 1,2,-1
 150 873 l 1,3,-1
 188 917 l 1,4,-1
 308 835 l 1,5,-1
 437 914 l 1,6,-1
 470 875 l 1,0,-1
68 0 m 1,7,-1
 68 722 l 1,8,-1
 147 722 l 1,9,-1
 450 187 l 1,10,-1
 450 723 l 1,11,-1
 536 723 l 1,12,13
 537 716 537 716 533 708 c 0,14,15
 528 699 528 699 528 692 c 2,16,-1
 528 -1 l 1,17,-1
 464 -1 l 1,18,-1
 146 568 l 1,19,-1
 146 0 l 1,20,-1
 68 0 l 1,7,-1
EndSplineSet
EndChar

StartChar: ncaron
Encoding: 328 328 224
Width: 600
GlyphClass: 2
Flags: W
LayerCount: 2
Fore
SplineSet
447 763 m 1,0,-1
 318 600 l 1,1,-1
 293 600 l 1,2,-1
 165 764 l 1,3,-1
 219 804 l 1,4,-1
 309 685 l 1,5,-1
 403 803 l 1,6,-1
 447 763 l 1,0,-1
89 0 m 1,7,-1
 89 529 l 1,8,-1
 174 529 l 1,9,-1
 174 436 l 1,10,11
 205 483 205 483 251.5 512.5 c 128,-1,12
 298 542 298 542 350 542 c 0,13,14
 396 542 396 542 433.5 517.5 c 128,-1,15
 471 493 471 493 491 449 c 0,16,17
 510 405 510 405 510 321 c 2,18,-1
 510 0 l 1,19,-1
 428 0 l 1,20,-1
 428 319 l 2,21,22
 428 344 428 344 427 359.5 c 128,-1,23
 426 375 426 375 419 397.5 c 128,-1,24
 412 420 412 420 399 436 c 0,25,26
 371 470 371 470 327 470 c 0,27,28
 290 470 290 470 255 446 c 128,-1,29
 220 422 220 422 200 396 c 0,30,31
 174 361 174 361 174 305 c 2,32,-1
 174 0 l 1,33,-1
 89 0 l 1,7,-1
EndSplineSet
EndChar

StartChar: Eng
Encoding: 330 330 225
Width: 600
GlyphClass: 2
Flags: W
LayerCount: 2
Fore
SplineSet
69 0 m 1,0,-1
 69 722 l 1,1,-1
 154 722 l 1,2,-1
 154 628 l 1,3,4
 185 677 185 677 235.5 706 c 128,-1,5
 286 735 286 735 342 735 c 0,6,7
 396 735 396 735 440.5 707 c 128,-1,8
 485 679 485 679 508 629 c 0,9,10
 530 582 530 582 530 491 c 2,11,-1
 530 203 l 2,12,13
 530 125 530 125 510 83 c 0,14,15
 489 38 489 38 447.5 13 c 128,-1,16
 406 -12 406 -12 355 -12 c 0,17,18
 300 -12 300 -12 253 16 c 1,19,-1
 294 88 l 1,20,21
 298 86 298 86 301 81 c 128,-1,22
 304 76 304 76 306 75 c 0,23,24
 326 60 326 60 357 60 c 0,25,26
 382 60 382 60 403 73.5 c 128,-1,27
 424 87 424 87 435 111 c 0,28,29
 448 139 448 139 448 197 c 2,30,-1
 448 489 l 2,31,32
 448 562 448 562 430 597 c 0,33,34
 415 628 415 628 387.5 645 c 128,-1,35
 360 662 360 662 327 662 c 0,36,37
 284 662 284 662 243.5 635.5 c 128,-1,38
 203 609 203 609 180 577 c 0,39,40
 154 539 154 539 154 478 c 2,41,-1
 154 0 l 1,42,-1
 69 0 l 1,0,-1
EndSplineSet
EndChar

StartChar: eng
Encoding: 331 331 226
Width: 600
GlyphClass: 2
Flags: W
LayerCount: 2
Fore
SplineSet
89 0 m 1,0,-1
 89 529 l 1,1,-1
 174 529 l 1,2,-1
 174 436 l 1,3,4
 205 483 205 483 251.5 512.5 c 128,-1,5
 298 542 298 542 350 542 c 0,6,7
 396 542 396 542 433.5 517.5 c 128,-1,8
 471 493 471 493 491 449 c 0,9,10
 510 405 510 405 510 321 c 2,11,-1
 510 65 l 2,12,13
 510 -31 510 -31 489 -81 c 0,14,15
 466 -139 466 -139 418 -171.5 c 128,-1,16
 370 -204 370 -204 314 -204 c 0,17,18
 251 -204 251 -204 201 -165 c 1,19,-1
 241 -87 l 1,20,21
 246 -88 246 -88 249 -97 c 0,22,23
 250 -101 250 -101 251 -102 c 0,24,25
 255 -108 255 -108 274 -117 c 128,-1,26
 293 -126 293 -126 316 -126 c 0,27,28
 371 -126 371 -126 403 -77 c 0,29,30
 414 -58 414 -58 420 -33.5 c 128,-1,31
 426 -9 426 -9 427 7.5 c 128,-1,32
 428 24 428 24 428 52 c 2,33,-1
 428 319 l 2,34,35
 428 344 428 344 427 359.5 c 128,-1,36
 426 375 426 375 419 397.5 c 128,-1,37
 412 420 412 420 399 436 c 0,38,39
 371 470 371 470 327 470 c 0,40,41
 290 470 290 470 255 446 c 128,-1,42
 220 422 220 422 200 396 c 0,43,44
 174 361 174 361 174 305 c 2,45,-1
 174 0 l 1,46,-1
 89 0 l 1,0,-1
EndSplineSet
EndChar

StartChar: omacron
Encoding: 333 333 227
Width: 600
GlyphClass: 2
Flags: W
LayerCount: 2
Fore
SplineSet
153 720 m 1,0,-1
 447 720 l 1,1,-1
 447 655 l 1,2,-1
 153 655 l 1,3,-1
 153 720 l 1,0,-1
543 262 m 0,4,5
 543 136 543 136 473.5 61 c 128,-1,6
 404 -14 404 -14 305 -14 c 0,7,8
 203 -14 203 -14 130 64 c 128,-1,9
 57 142 57 142 57 261 c 0,10,11
 57 381 57 381 130.5 461 c 128,-1,12
 204 541 204 541 307 541 c 0,13,14
 353 541 353 541 395 523 c 128,-1,15
 437 505 437 505 470.5 471 c 128,-1,16
 504 437 504 437 523.5 383 c 128,-1,17
 543 329 543 329 543 262 c 0,4,5
302 470 m 0,18,19
 237 470 237 470 191 415.5 c 128,-1,20
 145 361 145 361 145 268 c 0,21,22
 145 173 145 173 192.5 115.5 c 128,-1,23
 240 58 240 58 306 58 c 0,24,25
 368 58 368 58 413.5 111 c 128,-1,26
 459 164 459 164 459 259 c 0,27,28
 459 361 459 361 412 415.5 c 128,-1,29
 365 470 365 470 302 470 c 0,18,19
EndSplineSet
EndChar

